<?xml version="1.0" ?>
<svg viewBox="-321.4583282470703 -50.14413833618164 960 113.24414825439453" stroke-linejoin="round" stroke-linecap="round" stroke-width="5" stroke="black" fill="none" xmlns="http://www.w3.org/2000/svg"><g><g><path d="M -1024 -35 h 2048 m -2048 35 h 2048 m -2048 35 h 2048 m -1024 -35 v 0" stroke="#ccc" stroke-width="1"></path><g><g><path d="M 20 -35 c 0 40 30 70 70 70"></path><path d="M 20 -35 a 10 13 0 0 1 -20 0"></path><path d="M 48.25 45.75 a -0.75 -0.75 0 0 0 -0.75 -0.75 a -0.75 -0.75 0 0 0 -0.75 0.75 a -0.75 -0.75 0 0 0 0.75 0.75 a -0.75 -0.75 0 0 0 0.75 -0.75"></path></g><g><path d="M 100 -35 c 40 0 40 50 0 70 h 50"></path><g><path d="M 150 35 c 15 0 3.75 22.5 -11.25 -7.5"></path></g><path d="M 138.5416660308838 53.100006103515625 a 12.5 12.5 0 0 1 -20 0"></path></g><g><path d="M 167.08334350585938 -35 c 0 40 30 70 70 70"></path><path d="M 195.33334350585938 45.75 a -0.75 -0.75 0 0 0 -0.75 -0.75 a -0.75 -0.75 0 0 0 -0.75 0.75 a -0.75 -0.75 0 0 0 0.75 0.75 a -0.75 -0.75 0 0 0 0.75 -0.75"></path></g><g><path d="M 247.08334350585938 35 c 0 -15 20 -15 40 0 v -70"></path><path d="M 247.08334350585938 35 v 5 c 30 0 40 15 40 15"></path></g><g><path d="M 307.0833435058594 -35 v 70"></path><g><path d="M 307.0833435058594 -35 c 0 -10 -7 -12 -10 -5"></path></g><g><path d="M 307.0833435058594 35 h 10 l -6 9"></path></g></g></g></g></g></svg>