<svg width="234.54mm" height="98.79mm" version="1.1" viewBox="0 0 234.54 98.79" xml:space="preserve" xmlns="http://www.w3.org/2000/svg"><defs><clipPath id="clipPath49739-2"><path d="m300 300v6e3h2250v-6e3z" clip-rule="evenodd"/></clipPath><clipPath id="clipPath49777-0"><path d="m2550 300v6e3h2250v-6e3z" clip-rule="evenodd"/></clipPath><clipPath id="clipPath49791-2"><path d="m2550 300v6e3h2250v-6e3z" clip-rule="evenodd"/></clipPath><clipPath id="clipPath49803-5"><path d="m2550 300v6e3h2250v-6e3z" clip-rule="evenodd"/></clipPath><clipPath id="clipPath49823-3"><path d="m2550 3289v103h131v-103z"/></clipPath></defs><path d="m77.227 20.885c0-0.0847 0.0847-0.16934 0.16933-0.16934h45.17c0.0847 0 0.16933 0.0847 0.16933 0.16934v30.353c0 0.0847-0.0847 0.16934-0.16933 0.16934h-45.17c-0.0847 0-0.16933-0.0847-0.16933-0.16934zm0.33866 30.353-0.16933-0.16933h45.17l-0.16933 0.16933v-30.353l0.16933 0.21166h-45.17l0.16933-0.21166"/><g transform="translate(316.44 270.16)"><path d="m-221.15-244.06 1.9897-2.1167v5.842l-3.9793 3.8947 0.0847 6.0113 1.9473-1.9897-0.0423-11.642" fill-rule="evenodd"/><path d="m-209.81-245.03 0.0423 0.67733v3.0903l-0.0423 0.33867v0.67733l-0.0423 0.29634v0.254l-0.0423 0.254-0.0423 0.21166-0.0423 0.16934-0.0423 0.21166-0.0423 0.16934-0.0423 0.127-0.0423 0.0423-0.127 0.21167c0 0.0423 0 0.0423-0.0423 0.0847l-0.127 0.127c-0.0423 0.0423-0.0423 0.0423-0.0423 0.0847l-0.16934 0.127-0.762 0.381-0.29633 0.16933-0.254 0.16934-0.21167 0.16933-0.16933 0.16933 0.0423-0.0423-0.16933 0.21167-0.127 0.21166-0.0847 0.254-0.0847 0.29634-0.0847 0.33866-0.0847 0.381-0.0846 0.93134v0.55033l-0.0423 0.59267v2.159h-0.80433v-1.4817l0.0423-0.67733v-0.635l0.0423-0.55034 0.0846-1.016 0.0847-0.42333 0.1694-0.762 0.16934-0.33867 0.16933-0.29633 0.16933-0.254c0.0423 0 0.0423 0 0.0423-0.0423l0.508-0.42334 0.59266-0.33866 0.254-0.127 0.21167-0.127 0.16933-0.0847 0.16934-0.127-0.0423 0.0423 0.127-0.16933-0.0423 0.0847 0.127-0.21167-0.0423 0.0423 0.0423-0.0847 0.0846-0.254 0.0423-0.16934v-0.16933l0.0423-0.254 0.0423-0.21167v-0.59266l0.0423-0.33867v-4.1063" fill="#7f47dd"/></g><path d="m144.92 27.057 2.1167-2.2437v14.732l-2.0743 1.8203-0.0423-14.309" fill-rule="evenodd"/><g transform="translate(7.954 -86.689)"><g transform="translate(622.19 537.59)"><g transform="matrix(0 .35278 .35278 0 -654.18 -489.35)"><g transform="matrix(0,1,1,0,283.68,233.04)" aria-label="äaeëuüöoi"><path d="m7.3037-0.21094q0 0.10547-0.070312 0.1582-0.070313 0.052734-0.19336 0.079102-0.12305 0.026367-0.36035 0.026367-0.22852 0-0.36914-0.026367-0.13184-0.026367-0.19336-0.079102-0.061523-0.052734-0.061523-0.1582v-0.79102q-0.51855 0.55371-1.1602 0.86133-0.63281 0.30762-1.3447 0.30762-0.62402 0-1.1338-0.16699-0.50098-0.1582-0.86133-0.46582-0.35156-0.30762-0.55371-0.75586-0.19336-0.44824-0.19336-1.0195 0-0.66797 0.27246-1.1602 0.27246-0.49219 0.78223-0.81738 0.50977-0.3252 1.248-0.4834 0.73828-0.16699 1.6611-0.16699h1.0898v-0.61523q0-0.45703-0.09668-0.80859t-0.31641-0.58008q-0.21094-0.2373-0.55371-0.35156-0.34277-0.12305-0.84375-0.12305-0.53613 0-0.9668 0.13184-0.42188 0.12305-0.74707 0.28125-0.31641 0.14941-0.53613 0.28125-0.21094 0.12305-0.31641 0.12305-0.070312 0-0.12305-0.035156-0.052734-0.035156-0.09668-0.10547-0.035156-0.070312-0.052734-0.17578-0.017578-0.11426-0.017578-0.24609 0-0.21973 0.026367-0.34277 0.035156-0.13184 0.14941-0.24609 0.12305-0.11426 0.41309-0.26367 0.29004-0.1582 0.66797-0.28125 0.37793-0.13184 0.82617-0.21094 0.44824-0.087891 0.90527-0.087891 0.85254 0 1.4502 0.19336 0.59766 0.19336 0.9668 0.57129 0.36914 0.36914 0.53613 0.92285 0.16699 0.55371 0.16699 1.292zm-1.4414-3.6123h-1.2393q-0.59766 0-1.0371 0.10547-0.43945 0.09668-0.72949 0.29883-0.29004 0.19336-0.43066 0.47461-0.13184 0.27246-0.13184 0.63281 0 0.61523 0.38672 0.98438 0.39551 0.36035 1.0986 0.36035 0.57129 0 1.0547-0.29004 0.49219-0.29004 1.0283-0.8877zm-2.25-6.873q0 0.4834-0.17578 0.65918-0.17578 0.17578-0.65039 0.17578t-0.6416-0.16699q-0.16699-0.17578-0.16699-0.6416 0-0.49219 0.16699-0.66797 0.17578-0.17578 0.65039-0.17578 0.4834 0 0.65039 0.17578 0.16699 0.17578 0.16699 0.6416zm3.1113 0q0 0.4834-0.17578 0.65918-0.17578 0.17578-0.65039 0.17578-0.47461 0-0.6416-0.16699-0.16699-0.17578-0.16699-0.6416 0-0.49219 0.16699-0.66797 0.17578-0.17578 0.65039-0.17578 0.4834 0 0.65039 0.17578 0.16699 0.17578 0.16699 0.6416z"/><path d="m-44.536-0.21094q0 0.10547-0.07031 0.1582-0.070315 0.052734-0.19336 0.079102-0.12305 0.026367-0.36035 0.026367-0.22852 0-0.36914-0.026367-0.13184-0.026367-0.19336-0.079102-0.06152-0.052734-0.06152-0.1582v-0.79102q-0.51856 0.55371-1.1602 0.86133-0.63281 0.30762-1.3447 0.30762-0.62402 0-1.1338-0.16699-0.50098-0.1582-0.86133-0.46582-0.35156-0.30762-0.55371-0.75586-0.19336-0.44824-0.19336-1.0195 0-0.66797 0.27246-1.1602 0.27246-0.49219 0.78223-0.81738t1.248-0.4834q0.73828-0.16699 1.6611-0.16699h1.0898v-0.61523q0-0.45703-0.09668-0.80859t-0.31641-0.58008q-0.21094-0.2373-0.55371-0.35156-0.34277-0.12305-0.84375-0.12305-0.53613 0-0.9668 0.13184-0.42188 0.12305-0.74707 0.28125-0.31641 0.14941-0.53613 0.28125-0.21094 0.12305-0.31641 0.12305-0.07031 0-0.12305-0.035156-0.05274-0.035156-0.09668-0.10547-0.03516-0.070312-0.05273-0.17578-0.01758-0.11426-0.01758-0.24609 0-0.21973 0.02637-0.34277 0.03516-0.13184 0.14941-0.24609 0.12305-0.11426 0.41309-0.26367 0.29004-0.1582 0.66797-0.28125 0.37793-0.13184 0.82617-0.21094 0.44824-0.087891 0.90527-0.087891 0.85254 0 1.4502 0.19336 0.59766 0.19336 0.9668 0.57129 0.36914 0.36914 0.53613 0.92285 0.16699 0.55371 0.16699 1.292zm-1.4414-3.6123h-1.2393q-0.59766 0-1.0371 0.10547-0.43945 0.09668-0.72949 0.29883-0.29004 0.19336-0.43066 0.47461-0.13184 0.27246-0.13184 0.63281 0 0.61523 0.38672 0.98438 0.39551 0.36035 1.0986 0.36035 0.57129 0 1.0547-0.29004 0.49219-0.29004 1.0283-0.8877z"/><path d="m62.095-4.5176q0 0.34277-0.17578 0.49219-0.16699 0.14062-0.38672 0.14062h-5.1855q0 0.65918 0.13184 1.1865 0.13184 0.52734 0.43945 0.90527 0.30762 0.37793 0.7998 0.58008 0.49219 0.20215 1.2041 0.20215 0.5625 0 1.002-0.087891 0.43945-0.09668 0.75586-0.21094 0.3252-0.11426 0.52734-0.20215 0.21094-0.09668 0.31641-0.09668 0.06152 0 0.10547 0.035156 0.05273 0.026367 0.0791 0.087891t0.03516 0.17578q0.01758 0.10547 0.01758 0.26367 0 0.11426-0.0088 0.20215-0.0088 0.079102-0.02637 0.14941-0.0088 0.061523-0.04395 0.11426-0.02637 0.052734-0.0791 0.10547-0.04395 0.043945-0.28125 0.1582-0.2373 0.10547-0.61523 0.21094-0.37792 0.10547-0.87889 0.18457-0.49219 0.087891-1.0547 0.087891-0.97559 0-1.7139-0.27246-0.72949-0.27246-1.2305-0.80859-0.50098-0.53613-0.75586-1.3447-0.25488-0.80859-0.25488-1.8809 0-1.0195 0.26367-1.8281 0.26367-0.81738 0.75586-1.3799 0.50098-0.57129 1.2041-0.87012 0.70312-0.30762 1.5732-0.30762 0.93164 0 1.582 0.29883 0.65918 0.29883 1.0811 0.80859 0.42188 0.50098 0.61523 1.1865 0.20215 0.67676 0.20215 1.4502zm-1.459-0.43066q0.02637-1.1426-0.50976-1.793-0.52734-0.65039-1.5732-0.65039-0.53613 0-0.94043 0.20215-0.4043 0.20215-0.67676 0.53613t-0.42188 0.78223q-0.14941 0.43945-0.16699 0.92285z"/><path d="m115.74-4.5176q0 0.34277-0.17579 0.49219-0.16699 0.14062-0.38671 0.14062h-5.1856q0 0.65918 0.13183 1.1865 0.13184 0.52734 0.43946 0.90527 0.30761 0.37793 0.7998 0.58008 0.49219 0.20215 1.2041 0.20215 0.5625 0 1.002-0.087891 0.43945-0.09668 0.75586-0.21094 0.32519-0.11426 0.52734-0.20215 0.21094-0.09668 0.31641-0.09668 0.0615 0 0.10546 0.035156 0.0527 0.026367 0.0791 0.087891t0.0352 0.17578q0.0176 0.10547 0.0176 0.26367 0 0.11426-9e-3 0.20215-9e-3 0.079102-0.0264 0.14941-9e-3 0.061523-0.0439 0.11426-0.0264 0.052734-0.0791 0.10547-0.044 0.043945-0.28125 0.1582-0.23731 0.10547-0.61524 0.21094-0.37779 0.10547-0.87876 0.18457-0.49219 0.087891-1.0547 0.087891-0.97559 0-1.7139-0.27246-0.72949-0.27246-1.2305-0.80859-0.50097-0.53613-0.75586-1.3447-0.25488-0.80859-0.25488-1.8809 0-1.0195 0.26367-1.8281 0.26368-0.81738 0.75586-1.3799 0.50098-0.57129 1.2041-0.87012 0.70313-0.30762 1.5732-0.30762 0.93164 0 1.582 0.29883 0.65918 0.29883 1.081 0.80859 0.42188 0.50098 0.61524 1.1865 0.20215 0.67676 0.20215 1.4502zm-1.459-0.43066q0.0264-1.1426-0.50976-1.793-0.52735-0.65039-1.5732-0.65039-0.53613 0-0.94043 0.20215-0.40429 0.20215-0.67675 0.53613-0.27247 0.33398-0.42188 0.78223-0.14941 0.43945-0.16699 0.92285zm-2.8301-5.748q0 0.4834-0.17578 0.65918-0.17578 0.17578-0.65039 0.17578t-0.6416-0.16699q-0.16699-0.17578-0.16699-0.6416 0-0.49219 0.16699-0.66797 0.17578-0.17578 0.65039-0.17578 0.4834 0 0.65039 0.17578 0.16699 0.17578 0.16699 0.6416zm3.1113 0q0 0.4834-0.17578 0.65918-0.17578 0.17578-0.65039 0.17578t-0.6416-0.16699q-0.16699-0.17578-0.16699-0.6416 0-0.49219 0.16699-0.66797 0.17578-0.17578 0.65039-0.17578 0.4834 0 0.65039 0.17578 0.16699 0.17578 0.16699 0.6416z"/><path d="m335.98-0.21973q0 0.070312-0.0352 0.12305-0.0264 0.043945-0.10547 0.079102-0.0791 0.035156-0.21094 0.052734-0.12304 0.017578-0.30761 0.017578-0.20215 0-0.33399-0.017578-0.12304-0.017578-0.20215-0.052734-0.0703-0.035156-0.0967-0.079102-0.0264-0.052734-0.0264-0.12305v-1.0459q-0.67676 0.74707-1.3359 1.0898t-1.3359 0.34277q-0.79101 0-1.3359-0.26367-0.53614-0.26367-0.87012-0.71191-0.33399-0.45703-0.4834-1.0547-0.14063-0.60645-0.14063-1.4678v-4.7988q0-0.070312 0.0264-0.11426 0.0352-0.052734 0.12305-0.087891 0.0879-0.043945 0.22851-0.052734 0.14063-0.017578 0.35157-0.017578 0.21093 0 0.35156 0.017578 0.14062 0.00879 0.21973 0.052734 0.0879 0.035156 0.12304 0.087891 0.0352 0.043945 0.0352 0.11426v4.6055q0 0.69434 0.0967 1.1162 0.10547 0.41309 0.30762 0.71191 0.21093 0.29004 0.52734 0.45703 0.31641 0.1582 0.73828 0.1582 0.54492 0 1.0811-0.38672 0.54492-0.38672 1.1514-1.1338v-5.5283q0-0.070312 0.0264-0.11426 0.0352-0.052734 0.12305-0.087891 0.0879-0.043945 0.21972-0.052734 0.14063-0.017578 0.36035-0.017578 0.21094 0 0.35157 0.017578 0.14062 0.00879 0.21972 0.052734 0.0791 0.035156 0.11426 0.087891 0.0439 0.043945 0.0439 0.11426z"/><path d="m388.05-0.21973q0 0.070312-0.0351 0.12305-0.0264 0.043945-0.10547 0.079102-0.0791 0.035156-0.21094 0.052734-0.12305 0.017578-0.30762 0.017578-0.20214 0-0.33398-0.017578-0.12305-0.017578-0.20215-0.052734-0.0703-0.035156-0.0967-0.079102-0.0264-0.052734-0.0264-0.12305v-1.0459q-0.67675 0.74707-1.3359 1.0898t-1.3359 0.34277q-0.79102 0-1.3359-0.26367-0.53613-0.26367-0.87012-0.71191-0.33398-0.45703-0.48339-1.0547-0.14063-0.60645-0.14063-1.4678v-4.7988q0-0.070312 0.0264-0.11426 0.0352-0.052734 0.12305-0.087891 0.0879-0.043945 0.22851-0.052734 0.14063-0.017578 0.35156-0.017578 0.21094 0 0.35157 0.017578 0.14062 0.00879 0.21972 0.052734 0.0879 0.035156 0.12305 0.087891 0.0352 0.043945 0.0352 0.11426v4.6055q0 0.69434 0.0967 1.1162 0.10546 0.41309 0.30761 0.71191 0.21094 0.29004 0.52735 0.45703 0.3164 0.1582 0.73828 0.1582 0.54492 0 1.081-0.38672 0.54492-0.38672 1.1514-1.1338v-5.5283q0-0.070312 0.0264-0.11426 0.0351-0.052734 0.12304-0.087891 0.0879-0.043945 0.21973-0.052734 0.14062-0.017578 0.36035-0.017578 0.21094 0 0.35156 0.017578 0.14063 0.00879 0.21973 0.052734 0.0791 0.035156 0.11426 0.087891 0.0439 0.043945 0.0439 0.11426zm-4.1221-10.477q0 0.4834-0.17578 0.65918-0.17578 0.17578-0.65039 0.17578t-0.6416-0.16699q-0.16699-0.17578-0.16699-0.6416 0-0.49219 0.16699-0.66797 0.17578-0.17578 0.65039-0.17578 0.4834 0 0.65039 0.17578 0.16699 0.17578 0.16699 0.6416zm3.1113 0q0 0.4834-0.17578 0.65918-0.17578 0.17578-0.65039 0.17578t-0.6416-0.16699q-0.16699-0.17578-0.16699-0.6416 0-0.49219 0.16699-0.66797 0.17578-0.17578 0.65039-0.17578 0.4834 0 0.65039 0.17578 0.16699 0.17578 0.16699 0.6416z"/><path d="m282.54-4.2627q0 0.9668-0.25488 1.7842-0.25489 0.80859-0.76465 1.3975-0.50098 0.58887-1.2656 0.92285-0.75586 0.3252-1.7578 0.3252-0.97559 0-1.7051-0.29004-0.7207-0.29004-1.2041-0.84375-0.4834-0.55371-0.7207-1.3447-0.23731-0.79102-0.23731-1.793 0-0.9668 0.2461-1.7754 0.25488-0.81738 0.75586-1.4062 0.50976-0.58887 1.2656-0.91406t1.7666-0.3252q0.97559 0 1.6963 0.29004 0.72949 0.29004 1.2129 0.84375 0.4834 0.55371 0.7207 1.3447 0.2461 0.79102 0.2461 1.7842zm-1.5293 0.09668q0-0.6416-0.12305-1.2129-0.11425-0.57129-0.38671-1.002-0.27247-0.43066-0.73829-0.67676-0.46582-0.25488-1.1602-0.25488-0.6416 0-1.1074 0.22852-0.45703 0.22852-0.75586 0.65039-0.29883 0.41309-0.44825 0.98438-0.14062 0.57129-0.14062 1.248 0 0.65039 0.11426 1.2217 0.12304 0.57129 0.39551 1.002 0.28125 0.42188 0.74707 0.67676 0.46582 0.24609 1.1602 0.24609 0.63281 0 1.0986-0.22852 0.46583-0.22852 0.76465-0.6416 0.29883-0.41309 0.43946-0.98438 0.14062-0.57129 0.14062-1.2568zm-3.1553-6.5303q0 0.4834-0.17578 0.65918-0.17578 0.17578-0.65039 0.17578t-0.64161-0.16699q-0.16699-0.17578-0.16699-0.6416 0-0.49219 0.16699-0.66797 0.17579-0.17578 0.6504-0.17578 0.48339 0 0.65039 0.17578 0.16699 0.17578 0.16699 0.6416zm3.1113 0q0 0.4834-0.17579 0.65918-0.17578 0.17578-0.65039 0.17578t-0.6416-0.16699q-0.16699-0.17578-0.16699-0.6416 0-0.49219 0.16699-0.66797 0.17578-0.17578 0.65039-0.17578 0.4834 0 0.65039 0.17578 0.167 0.17578 0.167 0.6416z"/><path d="m228.54-4.2627q0 0.9668-0.25488 1.7842-0.25489 0.80859-0.76465 1.3975-0.50098 0.58887-1.2656 0.92285-0.75586 0.3252-1.7578 0.3252-0.97559 0-1.7051-0.29004-0.7207-0.29004-1.2041-0.84375-0.4834-0.55371-0.7207-1.3447-0.23731-0.79102-0.23731-1.793 0-0.9668 0.2461-1.7754 0.25488-0.81738 0.75586-1.4062 0.50976-0.58887 1.2656-0.91406t1.7666-0.3252q0.97559 0 1.6963 0.29004 0.72949 0.29004 1.2129 0.84375 0.4834 0.55371 0.7207 1.3447 0.2461 0.79102 0.2461 1.7842zm-1.5293 0.09668q0-0.6416-0.12305-1.2129-0.11425-0.57129-0.38671-1.002-0.27247-0.43066-0.73829-0.67676-0.46582-0.25488-1.1602-0.25488-0.6416 0-1.1074 0.22852-0.45703 0.22852-0.75586 0.65039-0.29883 0.41309-0.44825 0.98438-0.14062 0.57129-0.14062 1.248 0 0.65039 0.11426 1.2217 0.12304 0.57129 0.39551 1.002 0.28125 0.42188 0.74707 0.67676 0.46582 0.24609 1.1602 0.24609 0.63281 0 1.0986-0.22852 0.46583-0.22852 0.76465-0.6416 0.29883-0.41309 0.43946-0.98438 0.14062-0.57129 0.14062-1.2568z"/><path d="m169.95-0.21973q0 0.070312-0.0352 0.12305-0.0352 0.043945-0.11426 0.079102-0.0791 0.035156-0.21973 0.052734-0.14062 0.017578-0.36035 0.017578-0.21093 0-0.35156-0.017578-0.14062-0.017578-0.22851-0.052734-0.0791-0.035156-0.11426-0.079102-0.0264-0.052734-0.0264-0.12305v-7.9102q0-0.061523 0.0264-0.11426 0.0351-0.052734 0.11426-0.087891 0.0879-0.035156 0.22851-0.052734 0.14063-0.017578 0.35156-0.017578 0.21973 0 0.36035 0.017578 0.14063 0.017578 0.21973 0.052734t0.11426 0.087891q0.0352 0.052734 0.0352 0.11426zm0.16699-10.582q0 0.50977-0.19336 0.69434-0.19336 0.18457-0.71192 0.18457-0.50976 0-0.70312-0.17578-0.18457-0.18457-0.18457-0.68555 0-0.50976 0.19336-0.69434 0.19336-0.18457 0.71191-0.18457 0.50977 0 0.69434 0.18457 0.19336 0.17578 0.19336 0.67676z"/></g></g><g transform="matrix(0 .042333 .042333 0 -654.18 -489.35)"><g clip-path="url(#clipPath49739-2)" fill-rule="evenodd"><path d="m2587 1500-43 43 43 43 43-43"/><path d="m2629 2762-109 85 5 18 58-51-3 142 49-37v-157"/><path d="m2470 3263 69-50v-1h155l-76 52-148-1"/><path d="m2560 3389-40 39 114 96 34-42-108-93"/><path d="m2527 3789 40-39c-5 126 91 119 122 59l5 1c-36 78-163 125-167-21"/><path d="m2683 4296-40 39c5-125-91-119-122-59h-5c36-78 163-126 167 20"/><path d="m2500 5161 68-49 67-62 11 6-67 59 140-4-75 51-144-1"/><path d="m2719 4701-67 49-68 62-11-6 68-58-141 3 75-51 144 1"/></g><g clip-path="url(#clipPath49777-0)"><path d="m2587 1500-43 43 43 43 43-43" fill-rule="evenodd"/></g></g><path d="m-566.63-380.56-1.3547 2.032h-6.9003l1.5663-2.032h6.6887" fill-rule="evenodd"/><g transform="matrix(0 .042333 .042333 0 -654.18 -489.35)"><g clip-path="url(#clipPath49791-2)"><path d="m2629 2762-109 85 5 18 58-51-3 142 49-37v-157" fill-rule="evenodd"/></g></g><path d="m-547.12-380.56-3.6407 4.6143-0.762-0.21167 2.159-2.4977-6.0113 0.127 1.5663-2.032h6.6887" fill-rule="evenodd"/><g transform="matrix(0 .042333 .042333 0 -654.18 -489.35)"><g clip-path="url(#clipPath49803-5)" fill-rule="evenodd"><path d="m2470 3263 69-50v-1h155l-76 52-148-1"/><path d="m2560 3389-40 39 114 96 34-42-108-93"/><path d="m2527 3789 40-39c-5 126 91 119 122 59l5 1c-36 78-163 125-167-21"/><path d="m2683 4296-40 39c5-125-91-119-122-59h-5c36-78 163-126 167 20"/><path d="m2500 5161 68-49 67-62 11 6-67 59 140-4-75 51-144-1"/><path d="m2719 4701-67 49-68 62-11-6 68-58-141 3 75-51 144 1"/></g><g clip-path="url(#clipPath49823-3)"><g transform="scale(8.3333)"><g transform="matrix(0,1,1,0,318,394.68)" aria-label="or"><path d="m6.7869-3.3249q0 0.7541-0.19881 1.3917-0.19881 0.6307-0.59643 1.09-0.39076 0.45932-0.98719 0.71982-0.58957 0.25365-1.3711 0.25365-0.76096 0-1.33-0.22623-0.56215-0.22623-0.9392-0.65812-0.37705-0.43189-0.56215-1.0489-0.1851-0.61699-0.1851-1.3985 0-0.7541 0.19195-1.3848 0.19881-0.63756 0.58957-1.0969 0.39762-0.45932 0.98719-0.71297 0.58957-0.25365 1.3779-0.25365 0.76096 0 1.3231 0.22623 0.569 0.22623 0.94605 0.65812t0.56215 1.0489q0.19195 0.61699 0.19195 1.3917zm-1.1929 0.07541q0-0.50045-0.095977-0.94605-0.089121-0.44561-0.30164-0.78152t-0.57586-0.52787q-0.36334-0.19881-0.90492-0.19881-0.50045 0-0.86379 0.17824-0.35648 0.17824-0.58957 0.5073-0.23309 0.32221-0.34963 0.76781-0.10969 0.44561-0.10969 0.97348 0 0.5073 0.089121 0.95291 0.095976 0.44561 0.3085 0.78152 0.21938 0.32906 0.58271 0.52787 0.36334 0.19195 0.90492 0.19195 0.49359 0 0.85693-0.17824 0.36334-0.17824 0.59643-0.50045 0.23309-0.32221 0.34277-0.76781 0.10969-0.44561 0.10969-0.98033z"/><path d="m12.09-5.9368q0 0.15082-0.0069 0.25365-0.0069 0.10283-0.02742 0.16453-0.02057 0.054844-0.05484 0.089121-0.02742 0.027422-0.08226 0.027422t-0.13711-0.027422q-0.07541-0.034277-0.17824-0.061699-0.09598-0.034277-0.21938-0.061699-0.1234-0.027422-0.26736-0.027422-0.17139 0-0.33592 0.068555-0.16453 0.068555-0.34963 0.22623-0.17824 0.15768-0.37705 0.41818-0.19881 0.26051-0.43875 0.63756v4.0584q0 0.054844-0.027422 0.095977-0.027422 0.034277-0.089121 0.061699-0.061699 0.027422-0.17139 0.041133-0.10969 0.013711-0.28107 0.013711-0.16453 0-0.27422-0.013711-0.10965-0.013712-0.17821-0.041133-0.061699-0.027422-0.089121-0.061699-0.020566-0.041133-0.020566-0.095977v-6.1699q0-0.054844 0.020566-0.089121 0.020566-0.041133 0.082266-0.068555 0.061699-0.034277 0.15768-0.041133 0.095977-0.013711 0.25365-0.013711 0.15082 0 0.2468 0.013711 0.10283 0.00686 0.15768 0.041133 0.054844 0.027422 0.07541 0.068555 0.027422 0.034277 0.027422 0.089121v0.89807q0.25365-0.3702 0.47303-0.60328 0.22623-0.23309 0.42504-0.36334 0.19881-0.13711 0.39076-0.1851 0.19881-0.054844 0.39762-0.054844 0.08912 0 0.19881 0.013711 0.11654 0.00686 0.23994 0.034277 0.1234 0.027422 0.21938 0.061699 0.10283 0.034277 0.14396 0.068555 0.04113 0.034277 0.05484 0.068555 0.01371 0.027422 0.02057 0.07541 0.01371 0.047988 0.01371 0.14396 0.0069 0.089121 0.0069 0.2468z"/></g></g></g></g><g fill="#7f47dd"><path d="m-589.83-369.59c0-0.33867 0.29633-0.635 0.635-0.635 0.381 0 0.635 0.29633 0.635 0.635 0 0.381-0.254 0.635-0.635 0.635-0.33867 0-0.635-0.254-0.635-0.635" fill-rule="evenodd"/><g><path d="m-590.21-369.55v-0.0847-0.127c0.0423 0 0.0423-0.0423 0.0423-0.0423l0.0423-0.127v-0.0847l0.0847-0.0847c0-0.0423 0-0.0423 0.0423-0.0847l0.0847-0.0847c0-0.0423 0-0.0423 0.0423-0.0423l0.0847-0.0847c0.0423-0.0423 0.0423-0.0423 0.0847-0.0423l0.0847-0.0847h0.0847l0.127-0.0423s0.0423 0 0.0423-0.0423h0.127 0.0847 0.127c0.0423 0.0423 0.0847 0.0423 0.0847 0.0423l0.127 0.0423h0.0847l0.0847 0.0847c0.0423 0 0.0423 0 0.0847 0.0423l0.0847 0.0847c0.0423 0 0.0423 0 0.0423 0.0423l0.0847 0.0847c0.0423 0.0423 0.0423 0.0423 0.0423 0.0847l0.0847 0.0847v0.0847l0.0423 0.127v0.0423l0.0423 0.127v0.0847l-0.0423 0.127v0.0847l-0.0423 0.127c0 0.0423 0 0.0423-0.0423 0.0847l-0.0423 0.0847c0 0.0423 0 0.0423-0.0423 0.0847l-0.2117 0.2117c-0.0423 0.0423-0.0423 0.0423-0.0847 0.0423l-0.0847 0.0423c-0.0423 0.0423-0.0423 0.0423-0.0847 0.0423l-0.127 0.0423h-0.0847l-0.127 0.0423h-0.0847l-0.127-0.0423h-0.0423l-0.127-0.0423h-0.0847l-0.0847-0.0847c-0.0423 0-0.0423 0-0.0847-0.0423l-0.0847-0.0847c-0.0423 0-0.0423 0-0.0423-0.0423l-0.0847-0.0847c-0.0423-0.0423-0.0423-0.0423-0.0423-0.0847l-0.0847-0.0847v-0.0847l-0.0423-0.127s0-0.0423-0.0423-0.0847zm0.80433 0.0423v-0.0423l0.0423 0.127-0.0423-0.0847 0.0423 0.0847-0.0423-0.0423 0.0847 0.0847-0.0423-0.0423 0.0847 0.0847-0.0423-0.0423 0.0847 0.0423-0.0847-0.0423 0.127 0.0423h-0.0847 0.127-0.0847 0.127-0.0423l0.127-0.0423-0.0847 0.0423 0.0847-0.0423-0.0423 0.0423 0.0847-0.0847-0.0423 0.0423 0.0847-0.0847-0.0423 0.0423 0.0423-0.0847-0.0423 0.0847 0.0423-0.127v0.0423-0.127 0.0847-0.127 0.0847l-0.0423-0.127 0.0423 0.0847-0.0423-0.0847 0.0423 0.0423-0.0847-0.0847 0.0423 0.0423-0.0847-0.0847 0.0423 0.0423-0.0847-0.0423 0.0847 0.0423-0.127-0.0423h0.0423-0.127 0.0847-0.127 0.0847l-0.127 0.0423 0.0847-0.0423-0.0847 0.0423 0.0423-0.0423-0.0847 0.0847 0.0423-0.0423-0.0847 0.0847 0.0423-0.0423-0.0423 0.0847 0.0423-0.0847-0.0423 0.127v-0.0847 0.127-0.0847"/><path d="m-573.75-369.34v0.80433h6.604v-0.80433z"/><path d="m-530.61-366.29-5.2917-0.0423-0.29633-0.0423-0.29633-0.0847-0.254-0.0847c-0.0423-0.0423-0.0423-0.0423-0.0847-0.0423l-0.16933-0.127s-0.0423 0-0.0423-0.0423l-0.16933-0.127s-0.0423 0-0.0423-0.0423l-0.127-0.127c0-0.0423 0-0.0423-0.0423-0.0847l-0.0847-0.127v-0.0847l-0.0847-0.16934v-0.0847-0.16934-0.0847-0.16934-0.0847l0.0847-0.16934v-0.0847l0.127-0.16934s0-0.0423 0.0423-0.0423l0.127-0.16933c0-0.0423 0-0.0423 0.0423-0.0423l0.16934-0.16933s0-0.0423 0.0423-0.0423l0.21167-0.127 0.29633-0.16934 0.33867 0.71967-0.21167 0.0847-0.21167 0.16933 0.0423-0.0423-0.16934 0.127 0.0423-0.0423-0.127 0.16934 0.0423-0.0423-0.0847 0.16934 0.0423-0.0847-0.0847 0.21167 0.0423-0.0847-0.0423 0.16933v-0.0847l0.0423 0.16933-0.0423-0.0847 0.0847 0.16934-0.0423-0.0423 0.0847 0.127-0.0423-0.0423 0.127 0.127-0.0423-0.0423 0.127 0.127-0.0423-0.0423 0.16933 0.127-0.0423-0.0423 0.16933 0.0847 0.16934 0.0423 0.21166 0.0423 5.2917 0.0423"/><path d="m-556.77-369.34 5.2917 0.0423 0.29633 0.0423 0.29634 0.0847 0.254 0.0847 0.0423 0.0423 0.21167 0.127 0.1693 0.1693c0.0423 0 0.0423 0.0423 0.0847 0.0423l0.0847 0.127c0.0423 0.0423 0.0423 0.0423 0.0423 0.0847l0.0847 0.16933c0.0423 0 0.0423 0.0423 0.0423 0.0423l0.0423 0.16934c0 0.0423 0.0423 0.0423 0.0423 0.0847v0.16934 0.0847 0.16934c0 0.0423-0.0423 0.0423-0.0423 0.0847l-0.0423 0.16934c0 0.0423 0 0.0423-0.0423 0.0847l-0.0847 0.16934-0.0423 0.0423-0.127 0.16933c0 0.0423-0.0423 0.0423-0.0423 0.0423l-0.21163 0.21163-0.21166 0.127-0.29634 0.16934-0.381-0.71967 0.21167-0.0847 0.21167-0.16933-0.0423 0.0423 0.16934-0.127-0.0423 0.0423 0.127-0.16934v0.0423l0.0847-0.16934-0.0423 0.0847 0.0423-0.21167v0.0847-0.16933 0.0847-0.16933 0.0847l-0.0423-0.16934 0.0423 0.0847-0.0847-0.16933 0.0423 0.0423-0.127-0.127 0.0423 0.0423-0.127-0.127 0.0423 0.0423-0.16933-0.127 0.0423 0.0423-0.16933-0.0847-0.16933-0.0423-0.254-0.0423-5.2917-0.0423"/><path d="m-516.98-368.96v6.604h0.80434v-6.604z"/><path d="m-507.79-369.17 4.445 5.6303-0.59266 0.508-4.4873-5.6727"/><path d="m-453.69-369.42 0.0423 4.3603 0.0846 0.33866-0.0423-0.0847 0.0847 0.21166-0.0423-0.0847 0.0847 0.16933v-0.0423l0.0847 0.127-0.0423-0.0847 0.127 0.127-0.0847-0.0423 0.127 0.0423h-0.0423l0.127 0.0423-0.0847-0.0423 0.127 0.0423h-0.0423l0.127-0.0423-0.0847 0.0423 0.127-0.0423h-0.0423l0.127-0.0847-0.0423 0.0423 0.127-0.0847-0.0423 0.0423 0.127-0.127 0.0847-0.16933 0.0847-0.127 0.71966 0.33867-0.16933 0.254-0.127 0.21166-0.127 0.16934s-0.0423 0-0.0423 0.0423l-0.16934 0.0847c0 0.0423-0.0423 0.0423-0.0423 0.0423l-0.127 0.0847h-0.0847l-0.127 0.0847h-0.0847-0.38097-0.0847l-0.127-0.0423c-0.0423-0.0423-0.0423-0.0423-0.0847-0.0423l-0.127-0.0847s-0.0423 0-0.0423-0.0423l-0.127-0.0847-0.1693-0.1693c0-0.0423 0-0.0423-0.0423-0.0423l-0.0847-0.16933v-0.0423l-0.0847-0.16934c0-0.0423 0-0.0423-0.0423-0.0847l-0.0423-0.21167-0.0423-0.29633-0.0423-4.3603"/><path d="m-436.04-363.2-0.0423-4.3603-0.0423-0.16933-0.0423-0.127 0.0423 0.0423-0.0847-0.16933 0.0423 0.0423-0.0847-0.127v0.0423l-0.0847-0.127 0.0423 0.0423-0.127-0.0847 0.0847 0.0423-0.127-0.0847 0.0423 0.0423-0.127-0.0423h0.0847-0.127 0.0423-0.127 0.0847l-0.127 0.0423 0.0423-0.0423-0.127 0.0847 0.0423-0.0423-0.127 0.127 0.0423-0.0423-0.127 0.127 0.0423-0.0423-0.127 0.16934-0.0847 0.16933-0.71966-0.381 0.127-0.254 0.127-0.16933c0.0423 0 0.0423 0 0.0423-0.0423l0.1693-0.1693 0.16934-0.127 0.0423-0.0423 0.127-0.0423c0.0423-0.0423 0.0423-0.0423 0.0847-0.0423l0.127-0.0423c0.0423 0 0.0847 0 0.0847-0.0423h0.38097c0 0.0423 0.0423 0.0423 0.0847 0.0423l0.127 0.0423c0.0423 0 0.0423 0 0.0847 0.0423l0.127 0.0423 0.0423 0.0423 0.127 0.0847c0 0.0423 0.0423 0.0423 0.0423 0.0847l0.1693 0.1693 0.0847 0.127v0.0423l0.0847 0.21167 0.0423 0.0423 0.0846 0.508 0.0423 4.3603"/><path d="m-493.82-368.7 0.46567-0.0847 0.46567-0.0423 0.42333-0.0423h0.80433l0.381 0.0423 0.33867 0.0847 0.59267 0.1694 0.254 0.127 0.21166 0.16933 0.254 0.16934 0.16934 0.16933 0.16933 0.21167 0.127 0.21166 0.0847 0.254 0.0847 0.21167 0.0846 0.508v0.254l-0.1269 0.762-0.0847 0.21167-0.254 0.508-0.127 0.21166-0.16933 0.254-0.33867 0.42334-0.42333 0.381-0.55033-0.59267 0.381-0.33867 0.29633-0.33866 0.127-0.16934 0.127-0.21166 0.0847-0.16934 0.0847-0.21166 0.0847-0.16934 0.0423-0.21166 0.0423-0.16934v-0.508l-0.0846-0.33866-0.0423-0.127-0.0847-0.16934-0.0847-0.127-0.127-0.127-0.16933-0.0847-0.127-0.127-0.21167-0.0847-0.21166-0.0847-0.254-0.0847-0.254-0.0423-0.67734-0.0846-0.33866 0.0423h-0.42334l-0.42333 0.0847-0.46567 0.0423"/><path d="m-469.78-363.88-0.46567 0.0847-0.46567 0.0423-0.42333 0.0423h-0.80433l-0.381-0.0423-0.33867-0.0847-0.59267-0.1694-0.254-0.127-0.21166-0.16933-0.42334-0.33867-0.16933-0.21167-0.127-0.21166-0.0847-0.254-0.0847-0.21167-0.0846-0.508v-0.254l0.1269-0.762 0.0847-0.254 0.127-0.21167 0.254-0.508 0.508-0.635 0.42333-0.381 0.55033 0.59267-0.381 0.29633-0.29633 0.381-0.127 0.16934-0.127 0.21166-0.0847 0.16934-0.0847 0.21166-0.0847 0.16934-0.0423 0.16933-0.0423 0.21167v0.508l0.0846 0.33866 0.0423 0.127 0.0847 0.127 0.127 0.16934 0.127 0.127 0.127 0.0847 0.16933 0.127 0.16934 0.0847 0.21166 0.0847 0.254 0.0847 0.59267 0.0846h1.1007l0.42333-0.0847 0.46567-0.0847"/></g></g></g></g><g stroke-linejoin="bevel" stroke-opacity=".44465" stroke-width="1.7639"><path d="m93.962 13.264q0.03721 0.11162 0.04651 0.17673 0.0093 0.06511-0.02481 0.09922-0.03411 0.03101-0.12092 0.03721-0.08682 0.0093-0.23874 0.0093-0.15813 0-0.24805-0.0062-0.08682-0.0031-0.13332-0.0155-0.04651-0.0155-0.06511-0.04031t-0.03101-0.06511l-0.26975-0.80615h-1.5069l-0.25425 0.78445q-0.0124 0.04341-0.03411 0.07441-0.0186 0.02791-0.06511 0.04651-0.04341 0.0155-0.12712 0.02171-0.08061 0.0062-0.21394 0.0062-0.14263 0-0.22324-0.0093-0.08062-0.0093-0.11162-0.04341-0.031-0.03721-0.0217-0.10232t0.04651-0.17363l1.2371-3.5595q0.0186-0.05271 0.04341-0.083716 0.0248-0.034106 0.07751-0.049609 0.05581-0.018603 0.15193-0.021704 0.09612-0.0062 0.25425-0.0062 0.18294 0 0.29146 0.0062 0.10852 0.0031 0.16743 0.021704 0.06201 0.015503 0.08682 0.049609 0.02791 0.034107 0.04651 0.093018zm-1.8417-2.9425h-0.0031l-0.56741 1.7053h1.1379zm3.4024 3.1409q0 0.03101-0.0186 0.05581-0.0186 0.0217-0.06511 0.03721-0.04341 0.0155-0.11782 0.0217-0.07442 0.0093-0.18914 0.0093-0.11472 0-0.18914-0.0093-0.07441-0.0062-0.12092-0.0217-0.04341-0.0155-0.06201-0.03721-0.0186-0.0248-0.0186-0.05581v-4.0773q0-0.031006 0.0186-0.055811t0.06201-0.040308q0.04651-0.018603 0.12092-0.027905 0.07441-0.0093 0.18914-0.0093 0.11472 0 0.18914 0.0093 0.07441 0.0093 0.11782 0.027905 0.04651 0.015503 0.06511 0.040308t0.0186 0.055811zm3.8272-1.4232q0 0.36897-0.08061 0.66663-0.07752 0.29456-0.22944 0.5023-0.15193 0.20774-0.37827 0.31936t-0.5178 0.11162q-0.12092 0-0.22324-0.02481-0.09922-0.0217-0.19534-0.06821-0.09302-0.04961-0.18604-0.12092-0.09302-0.07131-0.19224-0.16743v1.3022q0 0.03101-0.0186 0.05581-0.0186 0.02481-0.06511 0.04031-0.04341 0.0186-0.11782 0.0279-0.07441 0.0093-0.18914 0.0093-0.11472 0-0.18914-0.0093-0.07441-0.0093-0.12092-0.0279-0.04341-0.0155-0.06201-0.04031-0.0186-0.0248-0.0186-0.05581v-3.8633q0-0.03101 0.0155-0.05271 0.0155-0.0248 0.05271-0.04031 0.04031-0.0155 0.10232-0.0217 0.06511-0.0093 0.16123-0.0093 0.09302 0 0.15503 0.0093 0.06511 0.0062 0.10232 0.0217 0.04031 0.0155 0.05581 0.04031 0.0155 0.0217 0.0155 0.05271v0.32556q0.12092-0.12402 0.23564-0.21704 0.11782-0.09612 0.23874-0.15813 0.12092-0.06511 0.24805-0.09612 0.13022-0.03101 0.27595-0.03101 0.30386 0 0.5178 0.12092 0.21394 0.11782 0.34727 0.32556 0.13642 0.20774 0.19844 0.48369 0.06201 0.27595 0.06201 0.58911zm-0.81235 0.05581q0-0.17673-0.02791-0.33796-0.02481-0.16433-0.08992-0.29146-0.06201-0.12712-0.16743-0.20154-0.10232-0.07752-0.25735-0.07752-0.07751 0-0.15503 0.02481-0.07442 0.0217-0.15503 0.07441-0.07751 0.05271-0.16123 0.13643-0.08372 0.08372-0.17673 0.20774v0.91157q0.16433 0.20774 0.31316 0.32246 0.14883 0.11162 0.31006 0.11162 0.15193 0 0.25735-0.07751 0.10852-0.07752 0.17673-0.20154 0.06821-0.12712 0.09922-0.28525 0.03411-0.15813 0.03411-0.31626zm4.3419 1.3674q0 0.03101-0.0186 0.05581-0.0186 0.0217-0.062 0.03721-0.0434 0.0155-0.12093 0.0217-0.0744 0.0093-0.18603 0.0093-0.11472 0-0.19224-0.0093-0.0744-0.0062-0.11782-0.0217-0.0434-0.0155-0.062-0.03721-0.0186-0.0248-0.0186-0.05581v-1.5782q0-0.20154-0.031-0.31626-0.0279-0.11472-0.0837-0.19534-0.0558-0.08371-0.14573-0.12712-0.0868-0.04651-0.20463-0.04651-0.14883 0-0.30076 0.10852-0.15193 0.10852-0.31626 0.31626v1.8386q0 0.03101-0.0186 0.05581-0.0186 0.0217-0.0651 0.03721-0.0434 0.0155-0.11782 0.0217-0.0744 0.0093-0.18913 0.0093t-0.18914-0.0093q-0.0744-0.0062-0.12092-0.0217-0.0434-0.0155-0.062-0.03721-0.0186-0.0248-0.0186-0.05581v-4.0773q0-0.031006 0.0186-0.055811t0.062-0.040308q0.0465-0.018603 0.12092-0.027905 0.0744-0.0093 0.18914-0.0093 0.11472 0 0.18913 0.0093 0.0744 0.0093 0.11782 0.027905 0.0465 0.015503 0.0651 0.040308t0.0186 0.055811v1.5286q0.20154-0.19844 0.40928-0.29456 0.21084-0.09922 0.43718-0.09922 0.28215 0 0.47439 0.09302 0.19534 0.09302 0.31316 0.25425 0.12092 0.16123 0.17363 0.37827 0.0527 0.21394 0.0527 0.5209zm3.3869 0.0093q0 0.04341-0.031 0.06821t-0.0992 0.03411q-0.0651 0.0124-0.19534 0.0124-0.13952 0-0.20464-0.0124-0.062-0.0093-0.0899-0.03411-0.0248-0.02481-0.0248-0.06821v-0.22014q-0.17053 0.18294-0.39067 0.28525-0.21704 0.10232-0.48369 0.10232-0.22014 0-0.40618-0.05891-0.18293-0.05581-0.31936-0.16743-0.13333-0.11472-0.20774-0.28215-0.0744-0.16743-0.0744-0.39067 0-0.24185 0.093-0.41858 0.0961-0.17983 0.28216-0.29456 0.18913-0.11782 0.46819-0.17363 0.27905-0.05581 0.64802-0.05581h0.26975v-0.16743q0-0.13022-0.0279-0.22634-0.0248-0.09922-0.0868-0.16433-0.0589-0.06511-0.16123-0.09612-0.0992-0.03101-0.24805-0.03101-0.19534 0-0.35037 0.04341-0.15192 0.04341-0.26975 0.09612-0.11782 0.05271-0.19843 0.09612-0.0775 0.04341-0.12713 0.04341-0.0341 0-0.062-0.0217-0.0248-0.0217-0.0434-0.06201-0.0155-0.04031-0.0248-0.09922-9e-3 -0.05891-9e-3 -0.13022 0-0.09612 0.0155-0.15193 0.0155-0.05581 0.0589-0.09922 0.0434-0.04651 0.15193-0.09922 0.10852-0.05581 0.25425-0.10232 0.14572-0.04651 0.31626-0.07441 0.17363-0.03101 0.35656-0.03101 0.32556 0 0.55501 0.06511 0.23254 0.06201 0.38137 0.19534 0.14883 0.13022 0.21704 0.33796 0.0682 0.20774 0.0682 0.49299zm-0.76584-1.1844h-0.29766q-0.18913 0-0.32246 0.02791-0.13332 0.0279-0.21704 0.08371-0.0837 0.05581-0.12402 0.13643-0.0372 0.07752-0.0372 0.17983 0 0.17363 0.10852 0.27285 0.11162 0.09922 0.30696 0.09922 0.16433 0 0.30076-0.08372 0.13952-0.08372 0.28215-0.24495zm4.593-0.24495q0 0.36897-0.0806 0.66352-0.0806 0.29456-0.23254 0.5023-0.15193 0.20774-0.37517 0.31936-0.22014 0.11162-0.5023 0.11162-0.13952 0-0.26044-0.02791-0.12093-0.0248-0.23255-0.08371-0.10852-0.05891-0.21704-0.14883-0.10542-0.08992-0.21704-0.21704v0.30076q0 0.03411-0.0186 0.05891-0.0155 0.0217-0.0558 0.03721-0.0372 0.0155-0.10232 0.02171-0.0651 0.0062-0.15813 0.0062-0.0961 0-0.16123-0.0062-0.062-0.0062-0.10232-0.02171-0.0372-0.0155-0.0527-0.03721-0.0155-0.0248-0.0155-0.05891v-4.0773q0-0.031006 0.0186-0.055811t0.062-0.040308q0.0465-0.018603 0.12092-0.027905 0.0744-0.0093 0.18914-0.0093 0.11472 0 0.18913 0.0093 0.0744 0.0093 0.11783 0.027905 0.0465 0.015503 0.0651 0.040308t0.0186 0.055811v1.5286q0.10542-0.10542 0.21084-0.17983 0.10542-0.07441 0.21084-0.12092 0.10542-0.04961 0.21704-0.07131t0.23565-0.0217q0.30695 0 0.52089 0.12402 0.21395 0.12092 0.34727 0.32866 0.13643 0.20774 0.19844 0.48679 0.062 0.27595 0.062 0.58291zm-0.80925 0.05581q0-0.17673-0.0279-0.34106-0.0248-0.16433-0.0899-0.29146t-0.17053-0.20154q-0.10232-0.07752-0.26045-0.07752-0.0775 0-0.15193 0.0217-0.0744 0.0217-0.15502 0.07441-0.0775 0.05271-0.16124 0.13643-0.0837 0.08372-0.17673 0.20774v0.91777q0.16433 0.21084 0.31316 0.32246 0.15193 0.10852 0.31626 0.10852 0.15193 0 0.25735-0.07751 0.10542-0.07752 0.17363-0.20154 0.0713-0.12402 0.10232-0.28215 0.031-0.15813 0.031-0.31626zm4.2519-0.09922q0 0.14263-0.0651 0.21084-0.062 0.06821-0.17363 0.06821h-1.6836q0 0.17673 0.0403 0.32246 0.0434 0.14263 0.13332 0.24495 0.093 0.09922 0.23565 0.15193 0.14572 0.05271 0.34726 0.05271 0.20464 0 0.35967-0.02791 0.15503-0.03101 0.26665-0.06511 0.11472-0.03721 0.18914-0.06511 0.0744-0.03101 0.12092-0.03101 0.0279 0 0.0465 0.0124 0.0186 0.0093 0.031 0.03721t0.0155 0.08061q6e-3 0.04961 6e-3 0.12712 0 0.06821-3e-3 0.11782-3e-3 0.04651-9e-3 0.08061-6e-3 0.03411-0.0186 0.05891-0.0124 0.0217-0.0341 0.04341-0.0186 0.0217-0.10852 0.05891-0.0899 0.03721-0.22945 0.07441-0.13952 0.03411-0.31936 0.05891-0.17983 0.02791-0.38447 0.02791-0.36897 0-0.64802-0.09302-0.27596-0.09302-0.46199-0.28215-0.18604-0.18914-0.27905-0.47749-0.0899-0.28836-0.0899-0.67593 0-0.36897 0.0961-0.66353 0.0961-0.29766 0.27905-0.50229 0.18294-0.20774 0.44338-0.31626 0.26355-0.10852 0.59222-0.10852 0.34726 0 0.59221 0.10232 0.24805 0.10232 0.40618 0.28525 0.15812 0.17983 0.23254 0.42788 0.0744 0.24805 0.0744 0.5395zm-0.75654-0.22324q9e-3 -0.32866-0.13333-0.5147-0.13952-0.18914-0.43408-0.18914-0.14883 0-0.26045 0.05581-0.10852 0.05581-0.18293 0.15193-0.0713 0.09302-0.11162 0.22324-0.0372 0.12712-0.0434 0.27285zm3.2566 1.4139q0 0.13643-0.0186 0.21084-0.0155 0.07131-0.0434 0.10232-0.0279 0.02791-0.0837 0.05271-0.0527 0.0217-0.12712 0.03721-0.0713 0.0186-0.15813 0.02791-0.0837 0.0093-0.17053 0.0093-0.23255 0-0.40308-0.05891t-0.28215-0.17983q-0.11163-0.12402-0.16434-0.31006-0.0527-0.18604-0.0527-0.44028v-1.417h-0.33176q-0.0589 0-0.0899-0.07131-0.031-0.07441-0.031-0.24495 0-0.08992 6e-3 -0.15193 9e-3 -0.06201 0.0248-0.09612 0.0155-0.03721 0.0372-0.05271 0.0248-0.0155 0.0558-0.0155h0.32866v-0.61702q0-0.031006 0.0155-0.055811 0.0186-0.024805 0.062-0.040308 0.0465-0.018604 0.12092-0.024805 0.0775-0.0093 0.18914-0.0093 0.11472 0 0.18913 0.0093 0.0775 0.0062 0.12093 0.024805 0.0434 0.015503 0.062 0.040308t0.0186 0.055811v0.61702h0.60152q0.031 0 0.0527 0.0155 0.0248 0.0155 0.0403 0.05271 0.0155 0.03411 0.0217 0.09612 9e-3 0.06201 9e-3 0.15193 0 0.17053-0.031 0.24495-0.031 0.07131-0.0899 0.07131h-0.60462v1.2991q0 0.22634 0.0713 0.34106 0.0713 0.11162 0.25424 0.11162 0.062 0 0.11162-0.0093 0.0496-0.0124 0.0868-0.02481 0.0403-0.0155 0.0651-0.02481 0.0279-0.0124 0.0496-0.0124 0.0186 0 0.0341 0.0124 0.0186 0.0093 0.0279 0.04341 9e-3 0.03101 0.0155 0.08682 9e-3 0.05581 9e-3 0.14263zm1.6102 0.27285q0 0.03101-0.0186 0.05581-0.0186 0.0217-0.0651 0.03721-0.0434 0.0155-0.11782 0.0217-0.0744 0.0093-0.18914 0.0093-0.11472 0-0.18913-0.0093-0.0744-0.0062-0.12093-0.0217-0.0434-0.0155-0.062-0.03721-0.0186-0.0248-0.0186-0.05581v-2.7595q0-0.03101 0.0186-0.05271 0.0186-0.02481 0.062-0.04031 0.0465-0.0186 0.12093-0.02791 0.0744-0.0093 0.18913-0.0093 0.11472 0 0.18914 0.0093 0.0744 0.0093 0.11782 0.02791 0.0465 0.0155 0.0651 0.04031 0.0186 0.0217 0.0186 0.05271zm0.0589-3.7021q0 0.23564-0.0961 0.32556-0.0961 0.08992-0.35657 0.08992-0.26355 0-0.35657-0.08682-0.0899-0.08682-0.0899-0.31316 0-0.23564 0.093-0.32556 0.0961-0.093018 0.35966-0.093018 0.26045 0 0.35347 0.089917 0.093 0.086816 0.093 0.31316zm3.0768 3.2618q0 0.08061-6e-3 0.13643-3e-3 0.05271-0.0124 0.08992-6e-3 0.03721-0.0186 0.06201-9e-3 0.0217-0.0465 0.05891-0.0372 0.03411-0.12713 0.08682-0.0899 0.04961-0.20464 0.08992-0.11472 0.04031-0.25114 0.06511-0.13333 0.0248-0.27596 0.0248-0.31936 0-0.5674-0.09922-0.24495-0.09922-0.41238-0.29146-0.16743-0.19534-0.25425-0.47439-0.0837-0.27905-0.0837-0.63872 0-0.41548 0.10232-0.71624 0.10542-0.30386 0.29146-0.5023 0.18603-0.19844 0.44028-0.29456 0.25425-0.09612 0.55811-0.09612 0.12402 0 0.24184 0.0217 0.12093 0.0217 0.22325 0.05891 0.10542 0.03721 0.18603 0.08372 0.0837 0.04651 0.11782 0.08061 0.0341 0.03411 0.0465 0.05891 0.0155 0.0217 0.0217 0.05891 9e-3 0.03721 0.0124 0.09302 6e-3 0.05271 6e-3 0.13022 0 0.17983-0.031 0.25425-0.031 0.07131-0.0806 0.07131-0.0527 0-0.11162-0.04341-0.0589-0.04341-0.13953-0.09612-0.0806-0.05271-0.19224-0.09612-0.11162-0.04341-0.26665-0.04341-0.30385 0-0.46508 0.23564-0.16123 0.23254-0.16123 0.68523 0 0.22324 0.0403 0.39378t0.11783 0.28525q0.0806 0.11472 0.19843 0.17363 0.12093 0.05581 0.27906 0.05581 0.16123 0 0.27595-0.04651 0.11782-0.04961 0.20464-0.10852 0.0868-0.05891 0.14572-0.10542 0.0589-0.04961 0.0992-0.04961 0.0279 0 0.0465 0.0155t0.0279 0.05891q0.0124 0.04031 0.0186 0.10542 6e-3 0.06511 6e-3 0.16743zm7.0631 0.33796q-0.0186 0.07441-0.0527 0.12092-0.031 0.04341-0.0961 0.06821-0.0651 0.0217-0.16743 0.0279-0.10232 0.0093-0.26045 0.0093-0.17674 0-0.28526-0.0093-0.10542-0.0062-0.16743-0.0279-0.062-0.02481-0.0899-0.06821-0.0279-0.04651-0.0434-0.12092l-0.64182-2.5425h-6e-3l-0.60771 2.5425q-0.0155 0.07131-0.0434 0.11782-0.0279 0.04341-0.0899 0.06821-0.0589 0.02481-0.16433 0.03101-0.10232 0.0093-0.27285 0.0093-0.17983 0-0.28835-0.0093-0.10542-0.0062-0.16743-0.0279-0.062-0.02481-0.0899-0.06821-0.0279-0.04651-0.0465-0.12092l-0.91188-3.5006q-0.0279-0.11162-0.031-0.17363-3e-3 -0.065112 0.0341-0.099219 0.0403-0.034106 0.12712-0.040308 0.0899-0.0093 0.24805-0.0093 0.14573 0 0.22944 0.0062 0.0868 0.0031 0.13023 0.021704 0.0434 0.015503 0.0589 0.049609 0.0155 0.031006 0.0248 0.089917l0.70384 3.0727h3e-3l0.73173-3.051q0.0124-0.058911 0.031-0.096118 0.0217-0.037207 0.0682-0.05581 0.0496-0.021704 0.13333-0.027905 0.0837-0.0093 0.22324-0.0093 0.14883 0 0.23565 0.0062 0.0899 0.0062 0.13642 0.027905 0.0496 0.018603 0.0713 0.055811 0.0217 0.037207 0.0341 0.099219l0.75654 3.051h6e-3l0.70383-3.0634q9e-3 -0.049609 0.0248-0.083716 0.0155-0.037207 0.0589-0.05581 0.0434-0.021704 0.12403-0.027905 0.0806-0.0093 0.22634-0.0093 0.13643 0 0.21084 0.0093 0.0775 0.0062 0.11162 0.040308 0.0341 0.034107 0.0279 0.10232-3e-3 0.065112-0.031 0.17983zm3.3528-2.4061q0 0.11162-6e-3 0.18294-6e-3 0.07131-0.0186 0.11162-0.0124 0.04031-0.0341 0.05581-0.0186 0.0155-0.0496 0.0155-0.0248 0-0.0558-0.0093-0.031-0.0124-0.0713-0.02481-0.0372-0.0124-0.0837-0.0217-0.0465-0.0124-0.10232-0.0124-0.0651 0-0.13022 0.02791-0.0651 0.0248-0.13643 0.08061-0.0682 0.05581-0.14573 0.14883-0.0744 0.09302-0.16123 0.22944v1.7239q0 0.03101-0.0186 0.05581-0.0186 0.0217-0.0651 0.03721-0.0434 0.0155-0.11783 0.0217-0.0744 0.0093-0.18913 0.0093-0.11472 0-0.18914-0.0093-0.0744-0.0062-0.12092-0.0217-0.0434-0.0155-0.062-0.03721-0.0186-0.0248-0.0186-0.05581v-2.7657q0-0.03101 0.0155-0.05271 0.0155-0.0248 0.0558-0.04031 0.0403-0.0155 0.10232-0.0217 0.0651-0.0093 0.16123-0.0093 0.0992 0 0.16433 0.0093 0.0651 0.0062 0.0992 0.0217 0.0372 0.0155 0.0527 0.04031 0.0155 0.0217 0.0155 0.05271v0.34416q0.10852-0.15503 0.20464-0.25425 0.0961-0.10232 0.18293-0.16123 0.0868-0.05891 0.17364-0.08061 0.0868-0.0248 0.17363-0.0248 0.0403 0 0.0868 0.0062 0.0465 0.0031 0.0961 0.0155 0.0496 0.0093 0.0868 0.0248 0.0372 0.0124 0.0527 0.02791 0.0186 0.0155 0.0248 0.03411 9e-3 0.0186 0.0155 0.05271 6e-3 0.03101 9e-3 0.09612t3e-3 0.17673zm1.5265 2.5084q0 0.03101-0.0186 0.05581-0.0186 0.0217-0.0651 0.03721-0.0434 0.0155-0.11782 0.0217-0.0744 0.0093-0.18914 0.0093-0.11472 0-0.18914-0.0093-0.0744-0.0062-0.12092-0.0217-0.0434-0.0155-0.062-0.03721-0.0186-0.0248-0.0186-0.05581v-2.7595q0-0.03101 0.0186-0.05271 0.0186-0.02481 0.062-0.04031 0.0465-0.0186 0.12092-0.02791 0.0744-0.0093 0.18914-0.0093 0.11472 0 0.18914 0.0093 0.0744 0.0093 0.11782 0.02791 0.0465 0.0155 0.0651 0.04031 0.0186 0.0217 0.0186 0.05271zm0.0589-3.7021q0 0.23564-0.0961 0.32556-0.0961 0.08992-0.35657 0.08992-0.26355 0-0.35657-0.08682-0.0899-0.08682-0.0899-0.31316 0-0.23564 0.093-0.32556 0.0961-0.093018 0.35967-0.093018 0.26045 0 0.35347 0.089917 0.093 0.086816 0.093 0.31316zm2.621 3.4292q0 0.13643-0.0186 0.21084-0.0155 0.07131-0.0434 0.10232-0.0279 0.02791-0.0837 0.05271-0.0527 0.0217-0.12713 0.03721-0.0713 0.0186-0.15813 0.02791-0.0837 0.0093-0.17053 0.0093-0.23254 0-0.40308-0.05891-0.17053-0.05891-0.28215-0.17983-0.11162-0.12402-0.16433-0.31006-0.0527-0.18604-0.0527-0.44028v-1.417h-0.33176q-0.0589 0-0.0899-0.07131-0.031-0.07441-0.031-0.24495 0-0.08992 6e-3 -0.15193 9e-3 -0.06201 0.0248-0.09612 0.0155-0.03721 0.0372-0.05271 0.0248-0.0155 0.0558-0.0155h0.32866v-0.61702q0-0.031006 0.0155-0.055811 0.0186-0.024805 0.062-0.040308 0.0465-0.018604 0.12093-0.024805 0.0775-0.0093 0.18913-0.0093 0.11472 0 0.18914 0.0093 0.0775 0.0062 0.12092 0.024805 0.0434 0.015503 0.062 0.040308t0.0186 0.055811v0.61702h0.60151q0.031 0 0.0527 0.0155 0.0248 0.0155 0.0403 0.05271 0.0155 0.03411 0.0217 0.09612 9e-3 0.06201 9e-3 0.15193 0 0.17053-0.031 0.24495-0.031 0.07131-0.0899 0.07131h-0.60461v1.2991q0 0.22634 0.0713 0.34106 0.0713 0.11162 0.25425 0.11162 0.062 0 0.11162-0.0093 0.0496-0.0124 0.0868-0.02481 0.0403-0.0155 0.0651-0.02481 0.0279-0.0124 0.0496-0.0124 0.0186 0 0.0341 0.0124 0.0186 0.0093 0.0279 0.04341 9e-3 0.03101 0.0155 0.08682 9e-3 0.05581 9e-3 0.14263zm1.6102 0.27285q0 0.03101-0.0186 0.05581-0.0186 0.0217-0.0651 0.03721-0.0434 0.0155-0.11783 0.0217-0.0744 0.0093-0.18913 0.0093-0.11472 0-0.18914-0.0093-0.0744-0.0062-0.12092-0.0217-0.0434-0.0155-0.062-0.03721-0.0186-0.0248-0.0186-0.05581v-2.7595q0-0.03101 0.0186-0.05271 0.0186-0.02481 0.062-0.04031 0.0465-0.0186 0.12092-0.02791 0.0744-0.0093 0.18914-0.0093 0.11472 0 0.18913 0.0093 0.0744 0.0093 0.11783 0.02791 0.0465 0.0155 0.0651 0.04031 0.0186 0.0217 0.0186 0.05271zm0.0589-3.7021q0 0.23564-0.0961 0.32556-0.0961 0.08992-0.35656 0.08992-0.26355 0-0.35657-0.08682-0.0899-0.08682-0.0899-0.31316 0-0.23564 0.093-0.32556 0.0961-0.093018 0.35967-0.093018 0.26045 0 0.35346 0.089917 0.093 0.086816 0.093 0.31316zm3.6256 3.7021q0 0.03101-0.0186 0.05581-0.0186 0.0217-0.062 0.03721-0.0434 0.0155-0.12092 0.0217-0.0744 0.0093-0.18603 0.0093-0.11473 0-0.19224-0.0093-0.0744-0.0062-0.11782-0.0217-0.0434-0.0155-0.062-0.03721-0.0186-0.0248-0.0186-0.05581v-1.5782q0-0.20154-0.031-0.31626-0.0279-0.11472-0.0837-0.19534-0.0558-0.08371-0.14573-0.12712-0.0868-0.04651-0.20464-0.04651-0.14882 0-0.30075 0.10852-0.15193 0.10852-0.31626 0.31626v1.8386q0 0.03101-0.0186 0.05581-0.0186 0.0217-0.0651 0.03721-0.0434 0.0155-0.11782 0.0217-0.0744 0.0093-0.18914 0.0093-0.11472 0-0.18913-0.0093-0.0744-0.0062-0.12092-0.0217-0.0434-0.0155-0.062-0.03721-0.0186-0.0248-0.0186-0.05581v-2.7657q0-0.03101 0.0155-0.05271 0.0155-0.0248 0.0558-0.04031 0.0403-0.0155 0.10232-0.0217 0.0651-0.0093 0.16123-0.0093 0.0992 0 0.16433 0.0093 0.0651 0.0062 0.0992 0.0217 0.0372 0.0155 0.0527 0.04031 0.0155 0.0217 0.0155 0.05271v0.31936q0.22944-0.24805 0.46508-0.37207 0.23875-0.12402 0.4961-0.12402 0.28215 0 0.47439 0.09302 0.19533 0.09302 0.31316 0.25425 0.12092 0.15813 0.17363 0.37207 0.0527 0.21394 0.0527 0.5147zm3.5233-2.5735q0 0.14883-0.0341 0.22014-0.0341 0.07131-0.0837 0.07131h-0.32557q0.0682 0.07441 0.0961 0.17053 0.031 0.09302 0.031 0.19534 0 0.24185-0.0806 0.43098-0.0806 0.18604-0.23254 0.31626-0.14883 0.12712-0.36277 0.19534-0.21084 0.06511-0.47129 0.06511-0.13332 0-0.25425-0.03101-0.12092-0.03411-0.18603-0.07752-0.0372 0.04031-0.0682 0.09612-0.0279 0.05581-0.0279 0.12402 0 0.08992 0.0775 0.14883 0.0806 0.05581 0.22325 0.06201l0.67282 0.0248q0.23565 0.0093 0.41858 0.06821 0.18604 0.05581 0.31006 0.16123 0.12713 0.10232 0.19224 0.24805 0.0682 0.14573 0.0682 0.33176 0 0.20464-0.0899 0.38447-0.0899 0.18293-0.26975 0.31626-0.17983 0.13332-0.45268 0.21084-0.26975 0.07752-0.63252 0.07752-0.35347 0-0.60462-0.05581-0.24804-0.05581-0.40927-0.15503-0.15813-0.09922-0.23255-0.23874-0.0713-0.13643-0.0713-0.30076 0-0.10232 0.0248-0.19534 0.0279-0.09302 0.0775-0.17983 0.0527-0.08371 0.12712-0.16123 0.0744-0.07752 0.17053-0.14883-0.13332-0.07131-0.20773-0.19224-0.0713-0.12402-0.0713-0.26975 0-0.18294 0.0837-0.33176 0.0837-0.15193 0.21704-0.27285-0.10852-0.10852-0.17363-0.26045-0.0651-0.15193-0.0651-0.37827 0-0.24185 0.0837-0.43098 0.0868-0.19224 0.23874-0.32246 0.15193-0.13332 0.36277-0.20154 0.21084-0.07131 0.46509-0.07131 0.13023 0 0.24805 0.0155 0.12092 0.0155 0.22324 0.04341h0.87747q0.0527 0 0.0837 0.06821 0.0341 0.06821 0.0341 0.22944zm-1.0015 0.65422q0-0.22324-0.12402-0.34727-0.12403-0.12402-0.35037-0.12402-0.11472 0-0.20154 0.04031-0.0868 0.03721-0.14573 0.10542-0.0558 0.06511-0.0837 0.15503-0.0279 0.08682-0.0279 0.18294 0 0.21084 0.12403 0.33486 0.12402 0.12092 0.34416 0.12092 0.11782 0 0.20464-0.03721 0.0868-0.03721 0.14263-0.10232 0.0589-0.06511 0.0868-0.14883 0.031-0.08682 0.031-0.17983zm0.18293 2.2076q0-0.13953-0.11162-0.21394-0.11162-0.07441-0.30696-0.08061l-0.555-0.0155q-0.0806 0.05891-0.13023 0.11472-0.0465 0.05271-0.0775 0.10232-0.0279 0.04961-0.0372 0.09612-9e-3 0.04651-9e-3 0.09612 0 0.15503 0.15503 0.23564 0.15813 0.08061 0.44338 0.08061 0.17674 0 0.29766-0.03721 0.12092-0.03411 0.19534-0.09302 0.0744-0.05891 0.10542-0.13332 0.031-0.07131 0.031-0.15193z" style="font-variant-ligatures:none;paint-order:stroke fill markers;text-orientation:upright" aria-label="Alphabetic Writing"/><g style="font-variant-ligatures:none;paint-order:stroke fill markers;text-orientation:upright" aria-label="Placeholder for
Alphabetic Writing"><path d="m86.772 43.261q0 0.2005-0.06615 0.36174-0.06615 0.16123-0.19017 0.27492-0.12196 0.11369-0.30179 0.1757-0.17777 0.06201-0.42581 0.06201h-0.30386v0.96325q0 0.01654-0.01033 0.02894-0.0083 0.0124-0.02894 0.02067-0.0186 0.0062-0.05374 0.01033-0.03307 0.0062-0.08475 0.0062t-0.08682-0.0062q-0.03307-0.0041-0.05374-0.01033-0.02067-0.0083-0.02894-0.02067-0.0083-0.0124-0.0083-0.02894v-2.4681q0-0.08268 0.04341-0.11782 0.04341-0.03514 0.09715-0.03514h0.57258q0.08682 0 0.16536 0.0083 0.08061 0.0062 0.1881 0.03101 0.10955 0.02274 0.22118 0.08888 0.11369 0.06408 0.19224 0.15916 0.07855 0.09508 0.11989 0.22118 0.04341 0.12402 0.04341 0.27492zm-0.37414 0.02894q0-0.1633-0.06201-0.27285-0.05994-0.10955-0.1509-0.1633-0.08888-0.05374-0.18604-0.06821-0.09508-0.01447-0.18604-0.01447h-0.32866v1.0728h0.32039q0.16123 0 0.26665-0.04134 0.10749-0.04134 0.17983-0.11369 0.07235-0.07441 0.10955-0.1757 0.03721-0.10335 0.03721-0.22324zm1.4841 1.8107q0 0.01654-0.0083 0.02894-0.0083 0.01034-0.02687 0.0186-0.0186 0.0083-0.05168 0.0124-0.03307 0.0041-0.08475 0.0041-0.04961 0-0.08268-0.0041t-0.05374-0.0124q-0.0186-0.0083-0.02687-0.0186-0.0062-0.0124-0.0062-0.02894v-2.7616q0-0.01654 0.0062-0.02894 0.0083-0.0124 0.02687-0.02067 0.02067-0.0083 0.05374-0.0124t0.08268-0.0041q0.05168 0 0.08475 0.0041t0.05168 0.0124q0.0186 0.0083 0.02687 0.02067 0.0083 0.0124 0.0083 0.02894zm2.2965 0.0021q0 0.0248-0.01654 0.03721-0.01654 0.0124-0.04548 0.0186t-0.08475 0.0062q-0.05374 0-0.08682-0.0062-0.03101-0.0062-0.04548-0.0186t-0.01447-0.03721v-0.18604q-0.12196 0.13022-0.27285 0.20257-0.14883 0.07235-0.31626 0.07235-0.14676 0-0.26665-0.03927-0.11782-0.03721-0.20257-0.10955-0.08268-0.07235-0.13022-0.17777-0.04547-0.10542-0.04547-0.23978 0-0.1571 0.06408-0.27285 0.06408-0.11576 0.18397-0.19224 0.11989-0.07648 0.29352-0.11369 0.17363-0.03927 0.39067-0.03927h0.25632v-0.14469q0-0.10749-0.02274-0.19017-0.02274-0.08268-0.07441-0.13643-0.04961-0.05581-0.13022-0.08268-0.08061-0.02894-0.19844-0.02894-0.12609 0-0.22738 0.03101-0.09922 0.02894-0.1757 0.06615-0.07441 0.03514-0.12609 0.06615-0.04961 0.02894-0.07441 0.02894-0.01654 0-0.02894-0.0083t-0.02274-0.0248q-0.0083-0.01654-0.0124-0.04134-0.0041-0.02687-0.0041-0.05788 0-0.05168 0.0062-0.08062 0.0083-0.03101 0.03514-0.05788 0.02894-0.02687 0.09715-0.06201 0.06821-0.03721 0.1571-0.06615 0.08888-0.03101 0.1943-0.04961 0.10542-0.02067 0.21291-0.02067 0.2005 0 0.34106 0.04547 0.14056 0.04548 0.22738 0.13436 0.08682 0.08682 0.12609 0.21704 0.03927 0.13022 0.03927 0.30386zm-0.339-0.84956h-0.29146q-0.14056 0-0.24391 0.0248-0.10335 0.02274-0.17156 0.07028-0.06821 0.04548-0.10129 0.11162-0.03101 0.06408-0.03101 0.14883 0 0.14469 0.09095 0.23151 0.09302 0.08475 0.25838 0.08475 0.13436 0 0.24805-0.06821 0.11576-0.06821 0.24185-0.20877zm2.5673 0.56431q0 0.03514-0.0021 0.06201-0.0021 0.0248-0.0083 0.04341-0.0041 0.01654-0.0124 0.03101-0.0062 0.0124-0.03307 0.03927-0.0248 0.0248-0.08682 0.06408-0.06201 0.03721-0.14056 0.06821-0.07648 0.02894-0.16743 0.04754-0.09095 0.0186-0.1881 0.0186-0.2005 0-0.35553-0.06615t-0.26045-0.19224q-0.10335-0.12816-0.15916-0.31212-0.05374-0.18604-0.05374-0.42788 0-0.27492 0.06615-0.47129 0.06821-0.19844 0.18397-0.32453 0.11782-0.12609 0.27492-0.18604 0.15916-0.06201 0.34313-0.06201 0.08888 0 0.17156 0.01654 0.08475 0.01654 0.15503 0.04341 0.07028 0.02687 0.12402 0.06201 0.05581 0.03514 0.08061 0.05994 0.02481 0.02481 0.03307 0.03927 0.01033 0.01447 0.01654 0.03514 0.0062 0.0186 0.0083 0.04341t0.0021 0.06201q0 0.08061-0.0186 0.11369-0.0186 0.03101-0.04547 0.03101-0.03101 0-0.07235-0.03307-0.03927-0.03514-0.10129-0.07648-0.06201-0.04134-0.1509-0.07441-0.08682-0.03514-0.2067-0.03514-0.24598 0-0.37827 0.19017-0.13022 0.1881-0.13022 0.54777 0 0.17983 0.03307 0.31626 0.03514 0.13436 0.10129 0.22531 0.06615 0.09095 0.16123 0.13643 0.09715 0.04341 0.22118 0.04341 0.11782 0 0.2067-0.03721 0.08888-0.03721 0.15296-0.08062 0.06615-0.04547 0.10955-0.08061 0.04548-0.03721 0.07028-0.03721 0.01447 0 0.02481 0.0083 0.01033 0.0083 0.01654 0.02894 0.0083 0.0186 0.01034 0.04961 0.0041 0.02894 0.0041 0.07028zm2.3048-0.7276q0 0.08062-0.04134 0.11576-0.03927 0.03307-0.09095 0.03307h-1.2196q0 0.15503 0.03101 0.27905t0.10335 0.21291q0.07235 0.08888 0.1881 0.13642 0.11576 0.04754 0.28319 0.04754 0.13229 0 0.23564-0.02067 0.10335-0.02274 0.17777-0.04961 0.07648-0.02687 0.12402-0.04754 0.04961-0.02274 0.07441-0.02274 0.01447 0 0.0248 0.0083 0.0124 0.0062 0.0186 0.02067t0.0083 0.04134q0.0041 0.0248 0.0041 0.06201 0 0.02687-0.0021 0.04754-0.0021 0.0186-0.0062 0.03514-0.0021 0.01447-0.01033 0.02687-0.0062 0.0124-0.0186 0.02481-0.01033 0.01033-0.06615 0.03721-0.05581 0.02481-0.14469 0.04961-0.08888 0.02481-0.2067 0.04341-0.11576 0.02067-0.24805 0.02067-0.22944 0-0.40308-0.06408-0.17156-0.06408-0.28939-0.19017-0.11782-0.12609-0.17777-0.31626-0.05994-0.19017-0.05994-0.44235 0-0.23978 0.06201-0.42995 0.06201-0.19224 0.17777-0.32453 0.11782-0.13436 0.28319-0.20464 0.16536-0.07235 0.37-0.07235 0.21911 0 0.37207 0.07028 0.15503 0.07028 0.25425 0.19017 0.09922 0.11782 0.14469 0.27905 0.04754 0.15916 0.04754 0.34106zm-0.34313-0.10128q0.0062-0.26872-0.11989-0.42168-0.12402-0.15296-0.37-0.15296-0.12609 0-0.22118 0.04754-0.09508 0.04754-0.15916 0.12609-0.06408 0.07855-0.09922 0.18397-0.03514 0.10335-0.03927 0.21704zm2.7285 1.1121q0 0.01654-0.0083 0.02894-0.0083 0.01034-0.02687 0.0186-0.0186 0.0083-0.05168 0.0124-0.03307 0.0041-0.08268 0.0041-0.05168 0-0.08475-0.0041t-0.05168-0.0124q-0.0186-0.0083-0.02687-0.0186-0.0083-0.0124-0.0083-0.02894v-1.0893q0-0.15916-0.02481-0.25632-0.0248-0.09715-0.07235-0.16743-0.04754-0.07028-0.12402-0.10749-0.07441-0.03721-0.17363-0.03721-0.12816 0-0.25631 0.09095-0.12816 0.09095-0.26872 0.26665v1.3002q0 0.01654-0.0083 0.02894-0.0083 0.01034-0.02687 0.0186-0.0186 0.0083-0.05168 0.0124-0.03307 0.0041-0.08475 0.0041-0.04961 0-0.08268-0.0041t-0.05374-0.0124q-0.0186-0.0083-0.02687-0.0186-0.0062-0.0124-0.0062-0.02894v-2.7616q0-0.01654 0.0062-0.02894 0.0083-0.0124 0.02687-0.02067 0.02067-0.0083 0.05374-0.0124t0.08268-0.0041q0.05168 0 0.08475 0.0041t0.05168 0.0124q0.0186 0.0083 0.02687 0.02067 0.0083 0.0124 0.0083 0.02894v1.1141q0.14676-0.15503 0.29559-0.22944 0.14883-0.07648 0.29972-0.07648 0.18604 0 0.31213 0.06408 0.12816 0.06201 0.2067 0.16743 0.07855 0.10542 0.11162 0.24805 0.03514 0.14056 0.03514 0.34106zm2.6169-0.95085q0 0.22738-0.05994 0.41961-0.05994 0.19017-0.17983 0.32866-0.11782 0.13849-0.29766 0.21704-0.17777 0.07648-0.41341 0.07648-0.22944 0-0.40101-0.06821-0.1695-0.06821-0.28319-0.19844-0.11369-0.13022-0.1695-0.31626-0.05581-0.18604-0.05581-0.42168 0-0.22738 0.05788-0.41754 0.05994-0.19224 0.17777-0.33073 0.11989-0.13849 0.29766-0.21497 0.17777-0.07648 0.41548-0.07648 0.22944 0 0.39894 0.06821 0.17157 0.06821 0.28525 0.19844 0.11369 0.13022 0.1695 0.31626 0.05788 0.18604 0.05788 0.41961zm-0.35967 0.02274q0-0.1509-0.02894-0.28525-0.02687-0.13436-0.09095-0.23564-0.06408-0.10129-0.17363-0.15916-0.10955-0.05994-0.27285-0.05994-0.1509 0-0.26045 0.05374-0.10749 0.05374-0.17777 0.15296-0.07028 0.09715-0.10542 0.23151-0.03307 0.13436-0.03307 0.29352 0 0.15296 0.02687 0.28732 0.02894 0.13436 0.09302 0.23564 0.06615 0.09922 0.1757 0.15916 0.10955 0.05788 0.27285 0.05788 0.14883 0 0.25838-0.05374t0.17983-0.1509q0.07028-0.09715 0.10335-0.23151 0.03307-0.13436 0.03307-0.29559zm1.4676 0.92811q0 0.01654-8e-3 0.02894-8e-3 0.01034-0.0269 0.0186-0.0186 0.0083-0.0517 0.0124t-0.0847 0.0041q-0.0496 0-0.0827-0.0041t-0.0537-0.0124q-0.0186-0.0083-0.0269-0.0186-6e-3 -0.0124-6e-3 -0.02894v-2.7616q0-0.01654 6e-3 -0.02894 8e-3 -0.0124 0.0269-0.02067 0.0207-0.0083 0.0537-0.0124 0.0331-0.0041 0.0827-0.0041 0.0517 0 0.0847 0.0041 0.0331 0.0041 0.0517 0.0124t0.0269 0.02067q8e-3 0.0124 8e-3 0.02894zm2.4887 0q0 0.01654-8e-3 0.02894-6e-3 0.0124-0.0248 0.02067-0.0165 0.0062-0.0455 0.01034-0.0289 0.0041-0.0703 0.0041-0.0434 0-0.0723-0.0041t-0.0476-0.01034q-0.0186-0.0083-0.0269-0.02067-8e-3 -0.0124-8e-3 -0.02894v-0.24598q-0.14676 0.15916-0.30592 0.24805-0.1571 0.08888-0.3452 0.08888-0.20464 0-0.34933-0.07855-0.1447-0.08062-0.23565-0.21497-0.0889-0.13643-0.13022-0.31833-0.0413-0.18397-0.0413-0.38654 0-0.23978 0.0517-0.43201 0.0517-0.1943 0.15297-0.33073 0.10128-0.13643 0.25011-0.20877 0.1509-0.07441 0.34727-0.07441 0.16329 0 0.29765 0.07235 0.13643 0.07028 0.26872 0.20877v-1.0811q0-0.01447 6e-3 -0.02687 8e-3 -0.01447 0.0289-0.02067 0.0207-0.0083 0.0517-0.0124 0.0331-0.0062 0.0827-0.0062 0.0517 0 0.0847 0.0062 0.0331 0.0041 0.0517 0.0124 0.0186 0.0062 0.0269 0.02067 0.0103 0.0124 0.0103 0.02687zm-0.34313-1.3084q-0.13849-0.17156-0.26872-0.26045-0.12816-0.09095-0.26872-0.09095-0.13022 0-0.22117 0.06201-0.091 0.06201-0.14883 0.1633-0.0558 0.10129-0.0827 0.22944-0.0248 0.12816-0.0248 0.26045 0 0.14056 0.0207 0.27492 0.0227 0.13436 0.0765 0.23978 0.0537 0.10335 0.14262 0.16743 0.0889 0.06201 0.22324 0.06201 0.0682 0 0.13023-0.0186 0.0641-0.0186 0.13022-0.06201 0.0662-0.04341 0.1385-0.11162 0.0723-0.07028 0.15296-0.17157zm2.8257 0.29766q0 0.08062-0.0413 0.11576-0.0393 0.03307-0.091 0.03307h-1.2196q0 0.15503 0.031 0.27905t0.10335 0.21291q0.0724 0.08888 0.1881 0.13642 0.11576 0.04754 0.28319 0.04754 0.13229 0 0.23564-0.02067 0.10335-0.02274 0.17777-0.04961 0.0765-0.02687 0.12402-0.04754 0.0496-0.02274 0.0744-0.02274 0.0145 0 0.0248 0.0083 0.0124 0.0062 0.0186 0.02067 6e-3 0.01447 8e-3 0.04134 4e-3 0.0248 4e-3 0.06201 0 0.02687-2e-3 0.04754-2e-3 0.0186-6e-3 0.03514-2e-3 0.01447-0.0103 0.02687-6e-3 0.0124-0.0186 0.02481-0.0103 0.01033-0.0662 0.03721-0.0558 0.02481-0.14469 0.04961-0.0889 0.02481-0.20671 0.04341-0.11575 0.02067-0.24804 0.02067-0.22945 0-0.40308-0.06408-0.17156-0.06408-0.28939-0.19017-0.11782-0.12609-0.17776-0.31626-0.06-0.19017-0.06-0.44235 0-0.23978 0.062-0.42995 0.062-0.19224 0.17777-0.32453 0.11782-0.13436 0.28319-0.20464 0.16536-0.07235 0.37-0.07235 0.21911 0 0.37207 0.07028 0.15503 0.07028 0.25425 0.19017 0.0992 0.11782 0.14469 0.27905 0.0475 0.15916 0.0475 0.34106zm-0.34313-0.10128q6e-3 -0.26872-0.11989-0.42168-0.12402-0.15296-0.37-0.15296-0.12609 0-0.22117 0.04754-0.0951 0.04754-0.15917 0.12609-0.0641 0.07855-0.0992 0.18397-0.0351 0.10335-0.0393 0.21704zm2.2138-0.62632q0 0.04547-2e-3 0.07648t-8e-3 0.04961q-6e-3 0.01654-0.0165 0.02687-8e-3 0.0083-0.0248 0.0083-0.0165 0-0.0413-0.0083-0.0227-0.01033-0.0537-0.0186-0.0289-0.01033-0.0662-0.0186-0.0372-0.0083-0.0806-0.0083-0.0517 0-0.10129 0.02067-0.0496 0.02067-0.10542 0.06821-0.0537 0.04754-0.11369 0.12609-0.0599 0.07855-0.13229 0.19224v1.2237q0 0.01654-8e-3 0.02894-8e-3 0.01034-0.0269 0.0186-0.0186 0.0083-0.0517 0.0124t-0.0847 0.0041q-0.0496 0-0.0827-0.0041t-0.0537-0.0124q-0.0186-0.0083-0.0269-0.0186-6e-3 -0.0124-6e-3 -0.02894v-1.8604q0-0.01654 6e-3 -0.02687 6e-3 -0.0124 0.0248-0.02067 0.0186-0.01033 0.0475-0.0124 0.0289-0.0041 0.0765-0.0041 0.0455 0 0.0744 0.0041 0.031 0.0021 0.0475 0.0124 0.0165 0.0083 0.0227 0.02067 8e-3 0.01033 8e-3 0.02687v0.27078q0.0765-0.11162 0.14263-0.1819 0.0682-0.07028 0.12815-0.10955 0.06-0.04134 0.11783-0.05581 0.0599-0.01654 0.11988-0.01654 0.0269 0 0.06 0.0041 0.0351 0.0021 0.0724 0.01034 0.0372 0.0083 0.0661 0.0186 0.031 0.01034 0.0434 0.02067 0.0124 0.01034 0.0165 0.02067 4e-3 0.0083 6e-3 0.02274 4e-3 0.01447 4e-3 0.04341 2e-3 0.02687 2e-3 0.07441zm3.1585-0.88677q0 0.03927-4e-3 0.06408-4e-3 0.02274-0.0103 0.03721-4e-3 0.01447-0.0124 0.02067-8e-3 0.0041-0.0207 0.0041-0.0145 0-0.0372-0.0083-0.0207-0.01033-0.0517-0.02067-0.031-0.0124-0.0744-0.02067-0.0413-0.01033-0.0971-0.01033-0.0765 0-0.13023 0.0248-0.0537 0.02481-0.0868 0.07855-0.0331 0.05168-0.0475 0.13642-0.0145 0.08268-0.0145 0.20257v0.20257h0.41547q0.0165 0 0.0269 0.0083 0.0124 0.0062 0.0207 0.0248 0.0103 0.01654 0.0145 0.04341 6e-3 0.02687 6e-3 0.06615 0 0.07441-0.0186 0.10749-0.0186 0.03307-0.0496 0.03307h-0.41547v1.6309q0 0.01654-8e-3 0.02894-8e-3 0.01034-0.0289 0.0186-0.0186 0.0083-0.0517 0.0124t-0.0827 0.0041-0.0827-0.0041-0.0537-0.0124q-0.0186-0.0083-0.0269-0.0186-8e-3 -0.0124-8e-3 -0.02894v-1.6309h-0.26251q-0.0331 0-0.0496-0.03307t-0.0165-0.10749q0-0.03927 4e-3 -0.06615 4e-3 -0.02687 0.0124-0.04341 8e-3 -0.0186 0.0207-0.0248 0.0124-0.0083 0.0289-0.0083h0.26251v-0.19224q0-0.1943 0.0351-0.3328 0.0372-0.14056 0.11163-0.22944 0.0744-0.08888 0.18603-0.13022 0.11369-0.04341 0.26665-0.04341 0.0724 0 0.14056 0.01447 0.0682 0.0124 0.10542 0.02894 0.0372 0.01447 0.0496 0.02687t0.0207 0.03307q8e-3 0.0186 0.0103 0.04754 4e-3 0.02687 4e-3 0.06615zm2.1787 1.6743q0 0.22738-0.06 0.41961-0.0599 0.19017-0.17983 0.32866-0.11782 0.13849-0.29766 0.21704-0.17777 0.07648-0.41341 0.07648-0.22944 0-0.40101-0.06821-0.1695-0.06821-0.28318-0.19844-0.11369-0.13022-0.1695-0.31626-0.0558-0.18604-0.0558-0.42168 0-0.22738 0.0579-0.41754 0.0599-0.19224 0.17777-0.33073 0.11989-0.13849 0.29766-0.21497 0.17776-0.07648 0.41547-0.07648 0.22945 0 0.39895 0.06821 0.17156 0.06821 0.28525 0.19844 0.11369 0.13022 0.1695 0.31626 0.0579 0.18604 0.0579 0.41961zm-0.35967 0.02274q0-0.1509-0.0289-0.28525-0.0269-0.13436-0.0909-0.23564-0.0641-0.10129-0.17363-0.15916-0.10956-0.05994-0.27285-0.05994-0.1509 0-0.26045 0.05374-0.10749 0.05374-0.17777 0.15296-0.0703 0.09715-0.10542 0.23151-0.0331 0.13436-0.0331 0.29352 0 0.15296 0.0269 0.28732 0.0289 0.13436 0.093 0.23564 0.0661 0.09922 0.1757 0.15916 0.10955 0.05788 0.27285 0.05788 0.14882 0 0.25838-0.05374 0.10955-0.05374 0.17983-0.1509 0.0703-0.09715 0.10336-0.23151 0.0331-0.13436 0.0331-0.29559zm2.2138-0.81029q0 0.04547-2e-3 0.07648t-8e-3 0.04961q-6e-3 0.01654-0.0165 0.02687-8e-3 0.0083-0.0248 0.0083-0.0165 0-0.0413-0.0083-0.0227-0.01033-0.0538-0.0186-0.0289-0.01033-0.0661-0.0186-0.0372-0.0083-0.0806-0.0083-0.0517 0-0.10128 0.02067-0.0496 0.02067-0.10542 0.06821-0.0537 0.04754-0.11369 0.12609-0.0599 0.07855-0.13229 0.19224v1.2237q0 0.01654-8e-3 0.02894-8e-3 0.01034-0.0269 0.0186-0.0186 0.0083-0.0517 0.0124t-0.0847 0.0041q-0.0496 0-0.0827-0.0041t-0.0537-0.0124q-0.0186-0.0083-0.0269-0.0186-6e-3 -0.0124-6e-3 -0.02894v-1.8604q0-0.01654 6e-3 -0.02687 6e-3 -0.0124 0.0248-0.02067 0.0186-0.01033 0.0475-0.0124 0.0289-0.0041 0.0765-0.0041 0.0455 0 0.0744 0.0041 0.031 0.0021 0.0475 0.0124 0.0165 0.0083 0.0227 0.02067 8e-3 0.01033 8e-3 0.02687v0.27078q0.0765-0.11162 0.14262-0.1819 0.0682-0.07028 0.12816-0.10955 0.0599-0.04134 0.11782-0.05581 0.06-0.01654 0.11989-0.01654 0.0269 0 0.06 0.0041 0.0351 0.0021 0.0723 0.01034 0.0372 0.0083 0.0661 0.0186 0.031 0.01034 0.0434 0.02067 0.0124 0.01034 0.0165 0.02067 4e-3 0.0083 6e-3 0.02274 4e-3 0.01447 4e-3 0.04341 2e-3 0.02687 2e-3 0.07441z"/><path d="m83.941 49.26q0.01654 0.04547 0.01654 0.07441 0.0021 0.02687-0.01447 0.04134-0.01654 0.01447-0.05581 0.0186-0.03721 0.0041-0.10129 0.0041-0.06408 0-0.10335-0.0041-0.03721-0.0021-0.05788-0.0083-0.0186-0.0083-0.02894-0.02067-0.0083-0.0124-0.01654-0.03101l-0.22944-0.65112h-1.1121l-0.21911 0.64285q-0.0062 0.0186-0.01654 0.03307-0.01033 0.0124-0.03101 0.02274-0.0186 0.0083-0.05581 0.0124-0.03514 0.0041-0.09302 0.0041-0.05994 0-0.09922-0.0062-0.03721-0.0041-0.05374-0.0186-0.01447-0.01447-0.01447-0.04134 0.0021-0.02894 0.0186-0.07441l0.8971-2.4846q0.0083-0.02274 0.02067-0.03721 0.01447-0.01447 0.03927-0.02274 0.02687-0.0083 0.06615-0.01033 0.04134-0.0041 0.10335-0.0041 0.06615 0 0.10955 0.0041 0.04341 0.0021 0.07028 0.01033 0.02687 0.0083 0.04134 0.0248 0.01447 0.01447 0.02274 0.03721zm-1.1514-2.1931h-0.0021l-0.46095 1.3333h0.93018zm2.1642 2.2676q0 0.01654-0.0083 0.02894-0.0083 0.01033-0.02687 0.0186-0.0186 0.0083-0.05168 0.0124-0.03307 0.0041-0.08475 0.0041-0.04961 0-0.08268-0.0041t-0.05374-0.0124q-0.0186-0.0083-0.02687-0.0186-0.0062-0.0124-0.0062-0.02894v-2.7616q0-0.01654 0.0062-0.02894 0.0083-0.0124 0.02687-0.02067 0.02067-0.0083 0.05374-0.0124t0.08268-0.0041q0.05168 0 0.08475 0.0041t0.05168 0.0124q0.0186 0.0083 0.02687 0.02067 0.0083 0.0124 0.0083 0.02894zm2.6066-0.95911q0 0.24391-0.05374 0.43822-0.05168 0.1943-0.15503 0.33073-0.10129 0.13436-0.25218 0.20877-0.1509 0.07235-0.3452 0.07235-0.08268 0-0.15296-0.01654-0.07028-0.01654-0.13849-0.05168-0.06615-0.03514-0.13229-0.08888-0.06615-0.05374-0.14056-0.12609v0.93018q0 0.01654-0.0083 0.02894t-0.02687 0.02067q-0.0186 0.0083-0.05168 0.0124-0.03307 0.0041-0.08475 0.0041-0.04961 0-0.08268-0.0041t-0.05374-0.0124q-0.0186-0.0083-0.02687-0.02067-0.0062-0.0124-0.0062-0.02894v-2.5983q0-0.0186 0.0062-0.02894 0.0062-0.0124 0.02481-0.02067 0.0186-0.0083 0.04754-0.01033 0.02894-0.0041 0.07028-0.0041 0.04341 0 0.07028 0.0041 0.02894 0.0021 0.04754 0.01033 0.0186 0.0083 0.02481 0.02067 0.0083 0.01034 0.0083 0.02894v0.25011q0.08475-0.08682 0.1633-0.1509 0.07855-0.06408 0.1571-0.10542 0.08062-0.04341 0.1633-0.06408 0.08475-0.02274 0.17777-0.02274 0.20257 0 0.3452 0.07855t0.23151 0.21497q0.09095 0.13642 0.13229 0.31833 0.04134 0.17983 0.04134 0.3824zm-0.35967 0.03928q0-0.14263-0.02274-0.27492-0.02067-0.13436-0.07441-0.23771-0.05168-0.10335-0.14056-0.16536-0.08888-0.06201-0.22118-0.06201-0.06615 0-0.13022 0.02067-0.06408 0.0186-0.13022 0.06201-0.06615 0.04134-0.13849 0.11162-0.07235 0.06821-0.15296 0.1695v0.74001q0.14056 0.17157 0.26665 0.26252 0.12609 0.09095 0.26458 0.09095 0.12816 0 0.21911-0.06201 0.09302-0.06201 0.14883-0.16536 0.05788-0.10335 0.08475-0.23151 0.02687-0.12816 0.02687-0.25838zm2.7388 0.91984q0 0.01654-0.0083 0.02894-0.0083 0.01033-0.02687 0.0186-0.0186 0.0083-0.05168 0.0124-0.03307 0.0041-0.08268 0.0041-0.05168 0-0.08475-0.0041t-0.05168-0.0124q-0.0186-0.0083-0.02687-0.0186-0.0083-0.0124-0.0083-0.02894v-1.0893q0-0.15916-0.02481-0.25632-0.02481-0.09715-0.07235-0.16743-0.04754-0.07028-0.12402-0.10749-0.07441-0.03721-0.17363-0.03721-0.12816 0-0.25632 0.09095-0.12816 0.09095-0.26872 0.26665v1.3002q0 0.01654-0.0083 0.02894-0.0083 0.01033-0.02687 0.0186-0.0186 0.0083-0.05168 0.0124-0.03307 0.0041-0.08475 0.0041-0.04961 0-0.08268-0.0041t-0.05374-0.0124q-0.0186-0.0083-0.02687-0.0186-0.0062-0.0124-0.0062-0.02894v-2.7616q0-0.01654 0.0062-0.02894 0.0083-0.0124 0.02687-0.02067 0.02067-0.0083 0.05374-0.0124t0.08268-0.0041q0.05168 0 0.08475 0.0041t0.05168 0.0124q0.0186 0.0083 0.02687 0.02067 0.0083 0.0124 0.0083 0.02894v1.1141q0.14676-0.15503 0.29559-0.22944 0.14883-0.07648 0.29972-0.07648 0.18604 0 0.31212 0.06408 0.12816 0.06201 0.20671 0.16743 0.07855 0.10542 0.11162 0.24805 0.03514 0.14056 0.03514 0.34106zm2.2882 0.0021q0 0.02481-0.01654 0.03721t-0.04547 0.0186q-0.02894 0.0062-0.08475 0.0062-0.05374 0-0.08682-0.0062-0.03101-0.0062-0.04548-0.0186t-0.01447-0.03721v-0.18604q-0.12196 0.13022-0.27285 0.20257-0.14883 0.07235-0.31626 0.07235-0.14676 0-0.26665-0.03927-0.11782-0.03721-0.20257-0.10955-0.08268-0.07235-0.13022-0.17777-0.04548-0.10542-0.04548-0.23978 0-0.1571 0.06408-0.27285t0.18397-0.19224q0.11989-0.07648 0.29352-0.11369 0.17363-0.03927 0.39067-0.03927h0.25632v-0.14469q0-0.10749-0.02274-0.19017-0.02274-0.08268-0.07441-0.13643-0.04961-0.05581-0.13022-0.08268-0.08062-0.02894-0.19844-0.02894-0.12609 0-0.22738 0.03101-0.09922 0.02894-0.1757 0.06615-0.07441 0.03514-0.12609 0.06615-0.04961 0.02894-0.07441 0.02894-0.01654 0-0.02894-0.0083t-0.02274-0.02481q-0.0083-0.01654-0.0124-0.04134-0.0041-0.02687-0.0041-0.05788 0-0.05168 0.0062-0.08062 0.0083-0.03101 0.03514-0.05788 0.02894-0.02687 0.09715-0.06201 0.06821-0.03721 0.1571-0.06614 0.08888-0.03101 0.1943-0.04961 0.10542-0.02067 0.21291-0.02067 0.2005 0 0.34106 0.04548 0.14056 0.04547 0.22738 0.13436 0.08682 0.08682 0.12609 0.21704 0.03927 0.13022 0.03927 0.30386zm-0.339-0.84956h-0.29146q-0.14056 0-0.24391 0.02481-0.10335 0.02274-0.17157 0.07028-0.06821 0.04547-0.10129 0.11162-0.03101 0.06408-0.03101 0.14883 0 0.14469 0.09095 0.23151 0.09302 0.08475 0.25838 0.08475 0.13436 0 0.24805-0.06821 0.11576-0.06821 0.24184-0.20877zm2.9414-0.10749q0 0.24184-0.05374 0.43615-0.05168 0.19224-0.15503 0.32866-0.10129 0.13643-0.25011 0.20877-0.14883 0.07235-0.34106 0.07235-0.08888 0-0.16536-0.0186-0.07441-0.01654-0.14676-0.05581-0.07235-0.03927-0.14469-0.09922-0.07235-0.05994-0.15296-0.14469v0.22738q0 0.01654-0.0083 0.02894t-0.02687 0.02067q-0.0186 0.0062-0.04754 0.01033-0.02687 0.0041-0.07028 0.0041-0.04134 0-0.07028-0.0041t-0.04754-0.01033q-0.0186-0.0083-0.02481-0.02067-0.0062-0.0124-0.0062-0.02894v-2.7616q0-0.01654 0.0062-0.02894 0.0083-0.0124 0.02687-0.02067 0.02067-0.0083 0.05374-0.0124t0.08268-0.0041q0.05168 0 0.08475 0.0041t0.05168 0.0124q0.0186 0.0083 0.02687 0.02067 0.0083 0.0124 0.0083 0.02894v1.1141q0.08268-0.08475 0.15916-0.14263 0.07855-0.05788 0.15296-0.09302 0.07441-0.03721 0.14883-0.05374 0.07441-0.01654 0.1571-0.01654 0.20257 0 0.3452 0.08062 0.14469 0.08062 0.23358 0.21704 0.09095 0.13436 0.13229 0.31626 0.04134 0.1819 0.04134 0.38447zm-0.35967 0.03927q0-0.14263-0.02274-0.27699-0.02067-0.13436-0.07441-0.23771t-0.14263-0.16536q-0.08888-0.06408-0.22118-0.06408-0.06615 0-0.13022 0.0186-0.06408 0.0186-0.13022 0.06201-0.06615 0.04341-0.13849 0.11162-0.07028 0.06821-0.1509 0.17156v0.74207q0.14056 0.17157 0.26872 0.26252 0.12816 0.08888 0.26665 0.08888 0.12816 0 0.21911-0.06201t0.14676-0.1633q0.05788-0.10335 0.08268-0.22944 0.02687-0.12816 0.02687-0.25838zm2.7244-0.09509q0 0.08062-0.04134 0.11576-0.03928 0.03307-0.09095 0.03307h-1.2196q0 0.15503 0.03101 0.27905 0.03101 0.12402 0.10335 0.21291 0.07235 0.08888 0.1881 0.13643 0.11576 0.04754 0.28319 0.04754 0.13229 0 0.23564-0.02067 0.10335-0.02274 0.17777-0.04961 0.07648-0.02687 0.12402-0.04754 0.04961-0.02274 0.07441-0.02274 0.01447 0 0.02481 0.0083 0.0124 0.0062 0.0186 0.02067t0.0083 0.04134q0.0041 0.02481 0.0041 0.06201 0 0.02687-0.0021 0.04754-0.0021 0.0186-0.0062 0.03514-0.0021 0.01447-0.01034 0.02687-0.0062 0.0124-0.0186 0.02481-0.01034 0.01034-0.06615 0.03721-0.05581 0.0248-0.14469 0.04961-0.08888 0.0248-0.20671 0.04341-0.11576 0.02067-0.24805 0.02067-0.22944 0-0.40308-0.06408-0.17157-0.06408-0.28939-0.19017-0.11782-0.12609-0.17777-0.31626-0.05994-0.19017-0.05994-0.44235 0-0.23978 0.06201-0.42995 0.06201-0.19224 0.17777-0.32453 0.11782-0.13436 0.28319-0.20464 0.16536-0.07235 0.37-0.07235 0.21911 0 0.37207 0.07028 0.15503 0.07028 0.25425 0.19017 0.09922 0.11782 0.14469 0.27905 0.04754 0.15916 0.04754 0.34106zm-0.34313-0.10129q0.0062-0.26872-0.11989-0.42168-0.12402-0.15296-0.37-0.15296-0.12609 0-0.22118 0.04754-0.09508 0.04754-0.15916 0.12609-0.06408 0.07855-0.09922 0.18397-0.03514 0.10335-0.03927 0.21704zm2.0712 0.97565q0 0.05994-0.0083 0.09508t-0.02481 0.05168q-0.01654 0.01654-0.04961 0.03101t-0.07648 0.02274q-0.04134 0.01034-0.08888 0.01654t-0.09508 0.0062q-0.14469 0-0.24805-0.03721-0.10335-0.03927-0.1695-0.11576-0.06615-0.07855-0.09715-0.19637-0.02894-0.11989-0.02894-0.28112v-1.0873h-0.26045q-0.03101 0-0.04961-0.03307t-0.0186-0.10749q0-0.03927 0.0041-0.06615 0.0062-0.02687 0.01447-0.04341 0.0083-0.0186 0.02067-0.02481 0.01447-0.0083 0.03101-0.0083h0.25838v-0.44235q0-0.01447 0.0062-0.02687 0.0083-0.0124 0.02687-0.02067 0.02067-0.01034 0.05374-0.01447 0.03307-0.0041 0.08268-0.0041 0.05168 0 0.08475 0.0041t0.05168 0.01447q0.0186 0.0083 0.02687 0.02067 0.0083 0.0124 0.0083 0.02687v0.44235h0.47749q0.01654 0 0.02894 0.0083 0.0124 0.0062 0.02067 0.02481 0.01034 0.01654 0.01447 0.04341 0.0041 0.02687 0.0041 0.06615 0 0.07441-0.0186 0.10749-0.0186 0.03307-0.04961 0.03307h-0.47749v1.0377q0 0.19224 0.05581 0.29146 0.05788 0.09715 0.20464 0.09715 0.04754 0 0.08475-0.0083 0.03721-0.01034 0.06615-0.02067 0.02894-0.01034 0.04961-0.0186 0.02067-0.01033 0.03721-0.01033 0.01033 0 0.0186 0.0062 0.01033 0.0041 0.01447 0.0186 0.0062 0.01447 0.01033 0.03927 0.0041 0.02481 0.0041 0.06201zm1.0563 0.13642q0 0.01654-0.0083 0.02894-0.0083 0.01033-0.02687 0.0186-0.0186 0.0083-0.05168 0.0124-0.03307 0.0041-0.08475 0.0041-0.04961 0-0.08268-0.0041t-0.05374-0.0124q-0.0186-0.0083-0.02687-0.0186-0.0062-0.0124-0.0062-0.02894v-1.8604q0-0.01447 0.0062-0.02687 0.0083-0.0124 0.02687-0.02067 0.02067-0.0083 0.05374-0.0124t0.08268-0.0041q0.05168 0 0.08475 0.0041t0.05168 0.0124q0.0186 0.0083 0.02687 0.02067 0.0083 0.0124 0.0083 0.02687zm0.03927-2.4887q0 0.11989-0.04547 0.1633-0.04547 0.04341-0.16743 0.04341-0.11989 0-0.16536-0.04134-0.04341-0.04341-0.04341-0.16123 0-0.11989 0.04547-0.1633 0.04548-0.04341 0.16743-0.04341 0.11989 0 0.1633 0.04341 0.04547 0.04134 0.04547 0.15916zm2.1932 2.2055q0 0.03514-2e-3 0.06201-2e-3 0.0248-8e-3 0.04341-4e-3 0.01654-0.0124 0.03101-6e-3 0.0124-0.0331 0.03927-0.0248 0.02481-0.0868 0.06408-0.062 0.03721-0.14056 0.06821-0.0765 0.02894-0.16743 0.04754-0.0909 0.0186-0.1881 0.0186-0.2005 0-0.35553-0.06615t-0.26045-0.19224q-0.10336-0.12816-0.15917-0.31213-0.0537-0.18604-0.0537-0.42788 0-0.27492 0.0661-0.47129 0.0682-0.19844 0.18396-0.32453 0.11783-0.12609 0.27492-0.18604 0.15917-0.06201 0.34313-0.06201 0.0889 0 0.17157 0.01654 0.0847 0.01654 0.15503 0.04341 0.0703 0.02687 0.12402 0.06201 0.0558 0.03514 0.0806 0.05994t0.0331 0.03927q0.0103 0.01447 0.0165 0.03514 6e-3 0.0186 8e-3 0.04341t2e-3 0.06201q0 0.08062-0.0186 0.11369-0.0186 0.03101-0.0455 0.03101-0.031 0-0.0723-0.03307-0.0393-0.03514-0.10129-0.07648-0.062-0.04134-0.15089-0.07441-0.0868-0.03514-0.20671-0.03514-0.24598 0-0.37827 0.19017-0.13023 0.1881-0.13023 0.54777 0 0.17983 0.0331 0.31626 0.0351 0.13436 0.10128 0.22531 0.0661 0.09095 0.16123 0.13643 0.0971 0.04341 0.22118 0.04341 0.11782 0 0.2067-0.03721 0.0889-0.03721 0.15297-0.08062 0.0661-0.04548 0.10955-0.08062 0.0455-0.03721 0.0703-0.03721 0.0145 0 0.0248 0.0083t0.0165 0.02894q8e-3 0.0186 0.0103 0.04961 4e-3 0.02894 4e-3 0.07028zm4.8038 0.25632q-8e-3 0.02894-0.0248 0.04754-0.0165 0.01654-0.0455 0.02687-0.0289 0.0083-0.0724 0.0124-0.0413 0.0041-0.10335 0.0041-0.0641 0-0.10956-0.0041-0.0434-0.0041-0.0723-0.0124-0.0289-0.01034-0.0434-0.02687-0.0145-0.0186-0.0227-0.04754l-0.56017-2.0195h-4e-3l-0.51677 2.0195q-6e-3 0.02894-0.0207 0.04754-0.0145 0.01654-0.0413 0.02687-0.0269 0.0083-0.0703 0.0124-0.0413 0.0041-0.10749 0.0041-0.0682 0-0.11368-0.0041-0.0455-0.0041-0.0744-0.0124-0.0289-0.01034-0.0455-0.02687-0.0145-0.0186-0.0207-0.04754l-0.70694-2.4701q-0.0124-0.04754-0.0145-0.07441 0-0.02687 0.0165-0.04134 0.0186-0.01447 0.0579-0.0186 0.0393-0.0041 0.10542-0.0041 0.0641 0 0.10128 0.0041 0.0372 0.0021 0.0558 0.01033 0.0207 0.0083 0.0269 0.02274 8e-3 0.01447 0.0124 0.03721l0.60151 2.2407h2e-3l0.5705-2.2366q6e-3 -0.02274 0.0145-0.03721 0.0103-0.01654 0.031-0.02481 0.0207-0.0083 0.0579-0.0124 0.0393-0.0041 0.10128-0.0041 0.0579 0 0.091 0.0041 0.0351 0.0041 0.0558 0.0124t0.0289 0.02481q0.0103 0.01447 0.0165 0.03721l0.61391 2.2366h4e-3l0.58911-2.2386q6e-3 -0.02067 0.0124-0.03514 6e-3 -0.01654 0.0248-0.02481 0.0207-0.0083 0.0558-0.0124 0.0372-0.0041 0.0971-0.0041 0.062 0 0.0971 0.0062 0.0372 0.0041 0.0537 0.0186 0.0165 0.01447 0.0145 0.04134 0 0.02687-0.0103 0.07441zm2.3936-1.7115q0 0.04548-2e-3 0.07648-2e-3 0.03101-8e-3 0.04961-6e-3 0.01654-0.0165 0.02687-8e-3 0.0083-0.0248 0.0083-0.0165 0-0.0413-0.0083-0.0227-0.01034-0.0537-0.0186-0.0289-0.01034-0.0661-0.0186-0.0372-0.0083-0.0806-0.0083-0.0517 0-0.10129 0.02067-0.0496 0.02067-0.10542 0.06821-0.0537 0.04754-0.11369 0.12609-0.0599 0.07855-0.13229 0.19224v1.2237q0 0.01654-8e-3 0.02894-8e-3 0.01033-0.0269 0.0186-0.0186 0.0083-0.0517 0.0124t-0.0847 0.0041q-0.0496 0-0.0827-0.0041t-0.0537-0.0124q-0.0186-0.0083-0.0269-0.0186-6e-3 -0.0124-6e-3 -0.02894v-1.8604q0-0.01654 6e-3 -0.02687 6e-3 -0.0124 0.0248-0.02067 0.0186-0.01034 0.0475-0.0124 0.0289-0.0041 0.0765-0.0041 0.0455 0 0.0744 0.0041 0.031 0.0021 0.0475 0.0124 0.0165 0.0083 0.0227 0.02067 8e-3 0.01033 8e-3 0.02687v0.27078q0.0765-0.11162 0.14262-0.1819 0.0682-0.07028 0.12816-0.10955 0.06-0.04134 0.11782-0.05581 0.0599-0.01654 0.11989-0.01654 0.0269 0 0.06 0.0041 0.0351 0.0021 0.0723 0.01033 0.0372 0.0083 0.0661 0.0186 0.031 0.01033 0.0434 0.02067 0.0124 0.01033 0.0165 0.02067 4e-3 0.0083 6e-3 0.02274 4e-3 0.01447 4e-3 0.04341 2e-3 0.02687 2e-3 0.07441zm0.99425 1.7384q0 0.01654-8e-3 0.02894-8e-3 0.01033-0.0269 0.0186-0.0186 0.0083-0.0517 0.0124t-0.0847 0.0041q-0.0496 0-0.0827-0.0041t-0.0537-0.0124q-0.0186-0.0083-0.0269-0.0186-6e-3 -0.0124-6e-3 -0.02894v-1.8604q0-0.01447 6e-3 -0.02687 8e-3 -0.0124 0.0269-0.02067 0.0207-0.0083 0.0537-0.0124 0.0331-0.0041 0.0827-0.0041 0.0517 0 0.0847 0.0041 0.0331 0.0041 0.0517 0.0124t0.0269 0.02067q8e-3 0.0124 8e-3 0.02687zm0.0393-2.4887q0 0.11989-0.0455 0.1633-0.0455 0.04341-0.16743 0.04341-0.11989 0-0.16537-0.04134-0.0434-0.04341-0.0434-0.16123 0-0.11989 0.0455-0.1633 0.0455-0.04341 0.16743-0.04341 0.11989 0 0.1633 0.04341 0.0455 0.04134 0.0455 0.15916zm1.8232 2.3523q0 0.05994-8e-3 0.09508t-0.0248 0.05168q-0.0165 0.01654-0.0496 0.03101t-0.0765 0.02274q-0.0413 0.01034-0.0889 0.01654-0.0475 0.0062-0.0951 0.0062-0.1447 0-0.24805-0.03721-0.10335-0.03927-0.1695-0.11576-0.0661-0.07855-0.0971-0.19637-0.0289-0.11989-0.0289-0.28112v-1.0873h-0.26045q-0.031 0-0.0496-0.03307t-0.0186-0.10749q0-0.03927 4e-3 -0.06615 6e-3 -0.02687 0.0145-0.04341 8e-3 -0.0186 0.0207-0.02481 0.0145-0.0083 0.031-0.0083h0.25838v-0.44235q0-0.01447 6e-3 -0.02687 8e-3 -0.0124 0.0269-0.02067 0.0207-0.01034 0.0537-0.01447 0.0331-0.0041 0.0827-0.0041 0.0517 0 0.0847 0.0041 0.0331 0.0041 0.0517 0.01447 0.0186 0.0083 0.0269 0.02067 8e-3 0.0124 8e-3 0.02687v0.44235h0.47749q0.0165 0 0.0289 0.0083 0.0124 0.0062 0.0207 0.02481 0.0103 0.01654 0.0145 0.04341 4e-3 0.02687 4e-3 0.06615 0 0.07441-0.0186 0.10749-0.0186 0.03307-0.0496 0.03307h-0.47749v1.0377q0 0.19224 0.0558 0.29146 0.0579 0.09715 0.20464 0.09715 0.0476 0 0.0847-0.0083 0.0372-0.01034 0.0662-0.02067 0.0289-0.01034 0.0496-0.0186 0.0207-0.01033 0.0372-0.01033 0.0103 0 0.0186 0.0062 0.0103 0.0041 0.0145 0.0186 6e-3 0.01447 0.0103 0.03927 4e-3 0.02481 4e-3 0.06201zm1.0563 0.13642q0 0.01654-8e-3 0.02894-8e-3 0.01033-0.0269 0.0186-0.0186 0.0083-0.0517 0.0124t-0.0847 0.0041q-0.0496 0-0.0827-0.0041t-0.0537-0.0124q-0.0186-0.0083-0.0269-0.0186-6e-3 -0.0124-6e-3 -0.02894v-1.8604q0-0.01447 6e-3 -0.02687 8e-3 -0.0124 0.0269-0.02067 0.0207-0.0083 0.0537-0.0124 0.0331-0.0041 0.0827-0.0041 0.0517 0 0.0847 0.0041 0.0331 0.0041 0.0517 0.0124t0.0269 0.02067q8e-3 0.0124 8e-3 0.02687zm0.0393-2.4887q0 0.11989-0.0455 0.1633-0.0455 0.04341-0.16743 0.04341-0.11989 0-0.16536-0.04134-0.0434-0.04341-0.0434-0.16123 0-0.11989 0.0455-0.1633 0.0455-0.04341 0.16743-0.04341 0.11989 0 0.1633 0.04341 0.0455 0.04134 0.0455 0.15916zm2.4577 2.4887q0 0.01654-8e-3 0.02894-8e-3 0.01033-0.0269 0.0186-0.0186 0.0083-0.0517 0.0124t-0.0827 0.0041q-0.0517 0-0.0847-0.0041-0.0331-0.0041-0.0517-0.0124t-0.0269-0.0186q-8e-3 -0.0124-8e-3 -0.02894v-1.0893q0-0.15916-0.0248-0.25632-0.0248-0.09715-0.0724-0.16743-0.0475-0.07028-0.12402-0.10749-0.0744-0.03721-0.17363-0.03721-0.12816 0-0.25632 0.09095t-0.26872 0.26665v1.3002q0 0.01654-8e-3 0.02894-8e-3 0.01033-0.0269 0.0186-0.0186 0.0083-0.0517 0.0124t-0.0847 0.0041q-0.0496 0-0.0827-0.0041t-0.0537-0.0124q-0.0186-0.0083-0.0269-0.0186-6e-3 -0.0124-6e-3 -0.02894v-1.8604q0-0.01654 6e-3 -0.02687 6e-3 -0.0124 0.0248-0.02067 0.0186-0.01034 0.0476-0.0124 0.0289-0.0041 0.0765-0.0041 0.0455 0 0.0744 0.0041 0.031 0.0021 0.0475 0.0124 0.0165 0.0083 0.0227 0.02067 8e-3 0.01033 8e-3 0.02687v0.24598q0.1571-0.1757 0.31213-0.25632 0.15709-0.08268 0.31626-0.08268 0.18603 0 0.31212 0.06408 0.12816 0.06201 0.20671 0.16743 0.0785 0.10542 0.11162 0.24805 0.0351 0.14056 0.0351 0.339zm2.4412-1.7756q0 0.07235-0.0207 0.10542-0.0186 0.03101-0.0496 0.03101h-0.26665q0.0724 0.07441 0.10129 0.16536 0.0289 0.08888 0.0289 0.18604 0 0.16123-0.0517 0.28525-0.0517 0.12402-0.14883 0.21084-0.0951 0.08475-0.22738 0.13022-0.13229 0.04548-0.29352 0.04548-0.11369 0-0.21704-0.02894-0.10128-0.03101-0.15709-0.07648-0.0372 0.03721-0.062 0.08475-0.0227 0.04754-0.0227 0.10955 0 0.07235 0.0661 0.11989 0.0682 0.04754 0.17984 0.05168l0.48575 0.02067q0.1385 0.0041 0.25425 0.03927 0.11576 0.03307 0.20051 0.09715 0.0847 0.06201 0.13229 0.15503 0.0475 0.09095 0.0475 0.21291 0 0.12816-0.0537 0.24391t-0.16537 0.20257q-0.10955 0.08888-0.28112 0.13849-0.17156 0.05168-0.40514 0.05168-0.22531 0-0.38447-0.03927-0.1571-0.03721-0.25839-0.10335-0.10128-0.06615-0.14676-0.15916-0.0455-0.09095-0.0455-0.19844 0-0.06821 0.0165-0.13229 0.0165-0.06408 0.0496-0.12196 0.0351-0.05788 0.0847-0.10955 0.0517-0.05374 0.11783-0.10542-0.10129-0.05168-0.1509-0.13022-0.0475-0.07855-0.0475-0.1695 0-0.12609 0.0517-0.22531 0.0517-0.09922 0.12815-0.17777-0.0641-0.07648-0.10128-0.17157-0.0372-0.09715-0.0372-0.23358 0-0.15916 0.0537-0.28525 0.0537-0.12609 0.14883-0.21291 0.0951-0.08682 0.22738-0.13229 0.13436-0.04754 0.29145-0.04754 0.0847 0 0.1571 0.01033 0.0744 0.0083 0.13849 0.02481h0.56224q0.0351 0 0.0517 0.03514 0.0186 0.03307 0.0186 0.10335zm-0.5333 0.48989q0-0.19017-0.10542-0.29559-0.10335-0.10749-0.29559-0.10749-0.0992 0-0.17363 0.03307-0.0724 0.03307-0.12196 0.09095-0.0475 0.05788-0.0723 0.13436-0.0227 0.07441-0.0227 0.1571 0 0.18397 0.10335 0.28939 0.10542 0.10542 0.29352 0.10542 0.10129 0 0.1757-0.03101 0.0744-0.03307 0.12196-0.08888 0.0496-0.05788 0.0724-0.13229 0.0248-0.07441 0.0248-0.15503zm0.17157 1.4738q0-0.11989-0.0992-0.18397-0.0971-0.06614-0.26459-0.07028l-0.48162-0.01654q-0.0662 0.05168-0.10955 0.09922-0.0413 0.04548-0.0661 0.08682-0.0248 0.04341-0.0351 0.08475-8e-3 0.04134-8e-3 0.08475 0 0.13436 0.13643 0.20257 0.13642 0.07028 0.38034 0.07028 0.15502 0 0.25838-0.03101 0.10542-0.02894 0.1695-0.07855 0.0641-0.04961 0.0909-0.11369 0.0289-0.06408 0.0289-0.13436z"/></g><g style="font-variant-ligatures:none;paint-order:stroke fill markers;text-orientation:upright" aria-label="Stress
Character"><path d="m141.84 47.448q0 0.1881-0.0703 0.33486-0.0682 0.14676-0.19224 0.25011-0.12196 0.10129-0.28939 0.15296-0.16536 0.05168-0.3576 0.05168-0.13436 0-0.25011-0.02274-0.11369-0.02274-0.20464-0.05581-0.0889-0.03307-0.15089-0.06821-0.0599-0.03514-0.0847-0.05994-0.0227-0.0248-0.0351-0.06201-0.0103-0.03927-0.0103-0.10335 0-0.04548 4e-3 -0.07441 4e-3 -0.03101 0.0124-0.04961 8e-3 -0.0186 0.0207-0.02481 0.0124-0.0083 0.0289-0.0083 0.0289 0 0.0806 0.03514 0.0538 0.03514 0.13643 0.07648 0.0827 0.04134 0.19843 0.07855 0.11783 0.03514 0.27079 0.03514 0.11575 0 0.21084-0.03101 0.0971-0.03101 0.16536-0.08682 0.0703-0.05788 0.10749-0.14056 0.0372-0.08268 0.0372-0.1881 0-0.11369-0.0517-0.1943-0.0517-0.08062-0.13643-0.14056-0.0847-0.06201-0.1943-0.11162-0.10749-0.05168-0.22117-0.10335-0.11369-0.05374-0.22118-0.11782-0.10749-0.06408-0.19223-0.1509-0.0848-0.08682-0.1385-0.20257-0.0517-0.11782-0.0517-0.28112 0-0.16743 0.0599-0.29766 0.062-0.13229 0.1695-0.22118 0.10955-0.08888 0.25838-0.13436 0.1509-0.04754 0.32453-0.04754 0.0889 0 0.17777 0.01654 0.0909 0.01447 0.16949 0.04134 0.0806 0.0248 0.14263 0.05788 0.062 0.03101 0.0806 0.05168 0.0207 0.0186 0.0269 0.03101 6e-3 0.01034 0.0103 0.02894 4e-3 0.01654 6e-3 0.04134 2e-3 0.02481 2e-3 0.06408 0 0.03721-4e-3 0.06615-2e-3 0.02894-8e-3 0.04961-6e-3 0.0186-0.0186 0.02894-0.0103 0.0083-0.0248 0.0083-0.0227 0-0.0724-0.02894-0.0475-0.02894-0.11782-0.06408-0.0703-0.03721-0.16743-0.06615-0.0951-0.03101-0.21497-0.03101-0.11162 0-0.19431 0.03101-0.0827 0.02894-0.13642 0.07855-0.0537 0.04961-0.0806 0.11782-0.0269 0.06821-0.0269 0.14469 0 0.11162 0.0517 0.19224 0.0517 0.08062 0.13642 0.14263 0.0868 0.06201 0.19637 0.11369 0.10956 0.05168 0.22325 0.10542 0.11368 0.05168 0.22324 0.11576 0.10955 0.06201 0.1943 0.14883 0.0868 0.08475 0.13849 0.20257 0.0538 0.11576 0.0538 0.27492zm1.7012 0.56224q0 0.05994-8e-3 0.09508t-0.0248 0.05168q-0.0165 0.01654-0.0496 0.03101t-0.0765 0.02274q-0.0413 0.01034-0.0889 0.01654t-0.0951 0.0062q-0.14469 0-0.24804-0.03721-0.10336-0.03927-0.1695-0.11576-0.0661-0.07855-0.0971-0.19637-0.0289-0.11989-0.0289-0.28112v-1.0873h-0.26045q-0.031 0-0.0496-0.03307t-0.0186-0.10749q0-0.03927 4e-3 -0.06615 6e-3 -0.02687 0.0145-0.04341 8e-3 -0.0186 0.0207-0.02481 0.0145-0.0083 0.031-0.0083h0.25839v-0.44235q0-0.01447 6e-3 -0.02687 8e-3 -0.0124 0.0269-0.02067 0.0207-0.01033 0.0537-0.01447 0.0331-0.0041 0.0827-0.0041 0.0517 0 0.0847 0.0041 0.0331 0.0041 0.0517 0.01447 0.0186 0.0083 0.0269 0.02067 8e-3 0.0124 8e-3 0.02687v0.44235h0.47749q0.0165 0 0.0289 0.0083 0.0124 0.0062 0.0207 0.02481 0.0103 0.01654 0.0145 0.04341 4e-3 0.02687 4e-3 0.06615 0 0.07441-0.0186 0.10749-0.0186 0.03307-0.0496 0.03307h-0.47719v1.0377q0 0.19224 0.0558 0.29145 0.0579 0.09715 0.20464 0.09715 0.0475 0 0.0847-0.0083 0.0372-0.01034 0.0661-0.02067 0.0289-0.01034 0.0496-0.0186 0.0207-0.01034 0.0372-0.01034 0.0103 0 0.0186 0.0062 0.0103 0.0041 0.0145 0.0186 6e-3 0.01447 0.0103 0.03927 4e-3 0.02481 4e-3 0.06201zm1.8025-1.602q0 0.04548-2e-3 0.07648-2e-3 0.03101-8e-3 0.04961-6e-3 0.01654-0.0165 0.02687-8e-3 0.0083-0.0248 0.0083-0.0165 0-0.0413-0.0083-0.0227-0.01033-0.0538-0.0186-0.0289-0.01034-0.0661-0.0186-0.0372-0.0083-0.0806-0.0083-0.0517 0-0.10128 0.02067-0.0496 0.02067-0.10542 0.06821-0.0538 0.04754-0.11369 0.12609-0.0599 0.07855-0.13229 0.19224v1.2237q0 0.01654-8e-3 0.02894-8e-3 0.01034-0.0269 0.0186-0.0186 0.0083-0.0517 0.0124t-0.0847 0.0041q-0.0496 0-0.0827-0.0041t-0.0537-0.0124q-0.0186-0.0083-0.0269-0.0186-6e-3 -0.0124-6e-3 -0.02894v-1.8604q0-0.01654 6e-3 -0.02687 6e-3 -0.0124 0.0248-0.02067 0.0186-0.01034 0.0475-0.0124 0.0289-0.0041 0.0765-0.0041 0.0455 0 0.0744 0.0041 0.031 0.0021 0.0475 0.0124 0.0165 0.0083 0.0227 0.02067 8e-3 0.01033 8e-3 0.02687v0.27078q0.0765-0.11162 0.14262-0.1819 0.0682-0.07028 0.12816-0.10955 0.0599-0.04134 0.11782-0.05581 0.06-0.01654 0.11989-0.01654 0.0269 0 0.06 0.0041 0.0351 0.0021 0.0723 0.01033 0.0372 0.0083 0.0661 0.0186 0.031 0.01033 0.0434 0.02067t0.0165 0.02067q4e-3 0.0083 6e-3 0.02274 4e-3 0.01447 4e-3 0.04341 2e-3 0.02687 2e-3 0.07441zm2.1849 0.7276q0 0.08062-0.0413 0.11576-0.0393 0.03307-0.0909 0.03307h-1.2196q0 0.15503 0.031 0.27905t0.10335 0.21291q0.0723 0.08888 0.1881 0.13642 0.11576 0.04754 0.28319 0.04754 0.13229 0 0.23564-0.02067 0.10335-0.02274 0.17777-0.04961 0.0765-0.02687 0.12402-0.04754 0.0496-0.02274 0.0744-0.02274 0.0145 0 0.0248 0.0083 0.0124 0.0062 0.0186 0.02067 6e-3 0.01447 8e-3 0.04134 4e-3 0.0248 4e-3 0.06201 0 0.02687-2e-3 0.04754-2e-3 0.0186-6e-3 0.03514-2e-3 0.01447-0.0103 0.02687-6e-3 0.0124-0.0186 0.02481-0.0103 0.01034-0.0661 0.03721-0.0558 0.02481-0.14469 0.04961-0.0889 0.02481-0.20671 0.04341-0.11575 0.02067-0.24804 0.02067-0.22945 0-0.40308-0.06408-0.17156-0.06408-0.28939-0.19017-0.11782-0.12609-0.17776-0.31626-0.0599-0.19017-0.0599-0.44235 0-0.23978 0.062-0.42995 0.062-0.19224 0.17777-0.32453 0.11782-0.13436 0.28319-0.20464 0.16536-0.07235 0.37-0.07235 0.21911 0 0.37207 0.07028 0.15503 0.07028 0.25425 0.19017 0.0992 0.11782 0.14469 0.27905 0.0475 0.15916 0.0475 0.34106zm-0.34313-0.10128q6e-3 -0.26872-0.11989-0.42168-0.12402-0.15296-0.37-0.15296-0.12609 0-0.22117 0.04754-0.0951 0.04754-0.15917 0.12609-0.0641 0.07855-0.0992 0.18397-0.0351 0.10335-0.0393 0.21704zm2.2944 0.60565q0 0.14263-0.0537 0.25425-0.0517 0.11162-0.14883 0.1881-0.0971 0.07648-0.23151 0.11576-0.13436 0.03927-0.29559 0.03927-0.0992 0-0.19017-0.01654-0.0889-0.01447-0.16123-0.03721-0.0703-0.02481-0.11989-0.04961-0.0496-0.02687-0.0723-0.04754t-0.0331-0.05788q-0.0103-0.03721-0.0103-0.10128 0-0.03927 4e-3 -0.06615 4e-3 -0.02687 0.0103-0.04341 6e-3 -0.01654 0.0165-0.02274 0.0124-0.0083 0.0269-0.0083 0.0227 0 0.0661 0.02894 0.0455 0.02687 0.10956 0.05994 0.0661 0.03307 0.15503 0.06201 0.0889 0.02687 0.20463 0.02687 0.0868 0 0.1571-0.0186t0.12196-0.05374q0.0517-0.03721 0.0786-0.09302 0.0289-0.05581 0.0289-0.13229 0-0.07855-0.0413-0.13229-0.0393-0.05374-0.10542-0.09508-0.0661-0.04134-0.14883-0.07235-0.0827-0.03307-0.17156-0.06821-0.0868-0.03514-0.17157-0.07855-0.0827-0.04548-0.14882-0.10955-0.0661-0.06408-0.10749-0.15296-0.0393-0.08888-0.0393-0.21291 0-0.10955 0.0414-0.20877 0.0434-0.10128 0.12815-0.1757 0.0847-0.07648 0.21084-0.12196 0.12816-0.04548 0.29766-0.04548 0.0744 0 0.14883 0.0124 0.0744 0.0124 0.13436 0.03101 0.0599 0.0186 0.10128 0.04134 0.0434 0.02067 0.0641 0.03721 0.0227 0.01654 0.0289 0.02894 8e-3 0.0124 0.0103 0.02894 4e-3 0.01447 6e-3 0.03721 4e-3 0.02274 4e-3 0.05581 0 0.03514-4e-3 0.06201-2e-3 0.02481-0.0103 0.04134-6e-3 0.01654-0.0165 0.02481-0.0103 0.0062-0.0227 0.0062-0.0186 0-0.0537-0.02274t-0.091-0.04754q-0.0558-0.02687-0.13229-0.04961-0.0744-0.02274-0.17157-0.02274-0.0868 0-0.15296 0.02067-0.0661 0.0186-0.10955 0.05581-0.0413 0.03514-0.0641 0.08475-0.0207 0.04961-0.0207 0.10749 0 0.08062 0.0413 0.13643 0.0413 0.05374 0.10749 0.09508 0.0661 0.04134 0.15089 0.07441 0.0847 0.03307 0.17157 0.06821 0.0889 0.03514 0.17363 0.07855 0.0868 0.04341 0.15296 0.10542 0.0662 0.06201 0.10542 0.14883 0.0413 0.08682 0.0413 0.20671zm1.9203 0q0 0.14263-0.0537 0.25425-0.0517 0.11162-0.14883 0.1881-0.0971 0.07648-0.23151 0.11576-0.13436 0.03927-0.29559 0.03927-0.0992 0-0.19017-0.01654-0.0889-0.01447-0.16123-0.03721-0.0703-0.02481-0.11989-0.04961-0.0496-0.02687-0.0724-0.04754-0.0227-0.02067-0.0331-0.05788-0.0103-0.03721-0.0103-0.10128 0-0.03927 4e-3 -0.06615 4e-3 -0.02687 0.0103-0.04341 6e-3 -0.01654 0.0165-0.02274 0.0124-0.0083 0.0269-0.0083 0.0227 0 0.0661 0.02894 0.0455 0.02687 0.10955 0.05994 0.0661 0.03307 0.15503 0.06201 0.0889 0.02687 0.20464 0.02687 0.0868 0 0.1571-0.0186t0.12195-0.05374q0.0517-0.03721 0.0785-0.09302 0.0289-0.05581 0.0289-0.13229 0-0.07855-0.0413-0.13229-0.0393-0.05374-0.10542-0.09508-0.0661-0.04134-0.14883-0.07235-0.0827-0.03307-0.17157-0.06821-0.0868-0.03514-0.17156-0.07855-0.0827-0.04548-0.14883-0.10955-0.0662-0.06408-0.10749-0.15296-0.0393-0.08888-0.0393-0.21291 0-0.10955 0.0413-0.20877 0.0434-0.10128 0.12816-0.1757 0.0847-0.07648 0.21084-0.12196 0.12816-0.04548 0.29765-0.04548 0.0744 0 0.14883 0.0124 0.0744 0.0124 0.13436 0.03101 0.0599 0.0186 0.10129 0.04134 0.0434 0.02067 0.0641 0.03721 0.0227 0.01654 0.0289 0.02894 8e-3 0.0124 0.0103 0.02894 4e-3 0.01447 6e-3 0.03721 4e-3 0.02274 4e-3 0.05581 0 0.03514-4e-3 0.06201-2e-3 0.02481-0.0103 0.04134-6e-3 0.01654-0.0165 0.02481-0.0103 0.0062-0.0227 0.0062-0.0186 0-0.0537-0.02274t-0.091-0.04754q-0.0558-0.02687-0.13229-0.04961-0.0744-0.02274-0.17157-0.02274-0.0868 0-0.15296 0.02067-0.0661 0.0186-0.10956 0.05581-0.0413 0.03514-0.0641 0.08475-0.0207 0.04961-0.0207 0.10749 0 0.08062 0.0413 0.13643 0.0413 0.05374 0.10748 0.09508 0.0661 0.04134 0.1509 0.07441 0.0847 0.03307 0.17156 0.06821 0.0889 0.03514 0.17364 0.07855 0.0868 0.04341 0.15296 0.10542 0.0661 0.06201 0.10542 0.14883 0.0413 0.08682 0.0413 0.20671z"/><path d="m138.69 52.054q0 0.03307-2e-3 0.05788t-8e-3 0.04341q-4e-3 0.0186-0.0124 0.03307-8e-3 0.01447-0.0289 0.03514-0.0207 0.02067-0.0868 0.06408-0.0661 0.04134-0.16536 0.08268-0.0971 0.03927-0.22531 0.06615-0.12609 0.02894-0.27699 0.02894-0.26045 0-0.47129-0.08682-0.20877-0.08682-0.3576-0.25632-0.14676-0.1695-0.22737-0.41754-0.0786-0.25011-0.0786-0.57464 0-0.3328 0.0847-0.59324 0.0868-0.26045 0.24184-0.44028 0.15503-0.1819 0.37001-0.27699 0.21704-0.09508 0.47955-0.09508 0.11576 0 0.22531 0.02274 0.10956 0.02067 0.20257 0.05374 0.093 0.03307 0.16537 0.07648 0.0724 0.04341 0.0992 0.07235 0.0289 0.02687 0.0372 0.04134 8e-3 0.01447 0.0124 0.03514 6e-3 0.0186 8e-3 0.04548 4e-3 0.02687 4e-3 0.06408 0 0.04134-4e-3 0.07028t-0.0124 0.04961q-8e-3 0.0186-0.0207 0.02894-0.0103 0.0083-0.0269 0.0083-0.0289 0-0.0806-0.03927-0.0517-0.04134-0.13436-0.08888-0.0806-0.04961-0.19844-0.08888-0.11576-0.04134-0.27905-0.04134-0.17777 0-0.32453 0.07235-0.14469 0.07028-0.24805 0.20877-0.10335 0.13849-0.16123 0.339-0.0558 0.19844-0.0558 0.45475 0 0.25425 0.0537 0.45062 0.0558 0.1943 0.1571 0.3266 0.10335 0.13022 0.25218 0.19844 0.14883 0.06615 0.33693 0.06615 0.15917 0 0.27699-0.03927 0.11989-0.03927 0.20257-0.08682 0.0847-0.04961 0.13849-0.08888 0.0538-0.03927 0.0848-0.03927 0.0145 0 0.0248 0.0062t0.0165 0.02481q6e-3 0.01654 8e-3 0.04754 4e-3 0.03101 4e-3 0.07855zm2.2986 0.32659q0 0.01654-8e-3 0.02894-8e-3 0.01033-0.0269 0.0186-0.0186 0.0083-0.0517 0.0124t-0.0827 0.0041q-0.0517 0-0.0848-0.0041t-0.0517-0.0124-0.0269-0.0186q-8e-3 -0.0124-8e-3 -0.02894v-1.0893q0-0.15916-0.0248-0.25632-0.0248-0.09715-0.0724-0.16743-0.0475-0.07028-0.12402-0.10749-0.0744-0.03721-0.17363-0.03721-0.12816 0-0.25632 0.09095-0.12815 0.09095-0.26871 0.26665v1.3002q0 0.01654-8e-3 0.02894-8e-3 0.01033-0.0269 0.0186-0.0186 0.0083-0.0517 0.0124t-0.0847 0.0041q-0.0496 0-0.0827-0.0041t-0.0538-0.0124q-0.0186-0.0083-0.0269-0.0186-6e-3 -0.0124-6e-3 -0.02894v-2.7616q0-0.01654 6e-3 -0.02894 8e-3 -0.0124 0.0269-0.02067 0.0207-0.0083 0.0538-0.0124t0.0827-0.0041q0.0517 0 0.0847 0.0041 0.0331 0.0041 0.0517 0.0124t0.0269 0.02067q8e-3 0.0124 8e-3 0.02894v1.1141q0.14676-0.15503 0.29559-0.22944 0.14882-0.07648 0.29972-0.07648 0.18603 0 0.31212 0.06408 0.12816 0.06201 0.20671 0.16743 0.0786 0.10542 0.11162 0.24805 0.0351 0.14056 0.0351 0.34106zm2.2882 0.0021q0 0.02481-0.0165 0.03721t-0.0455 0.0186q-0.0289 0.0062-0.0847 0.0062-0.0537 0-0.0868-0.0062-0.031-0.0062-0.0455-0.0186t-0.0145-0.03721v-0.18604q-0.12196 0.13022-0.27285 0.20257-0.14883 0.07235-0.31626 0.07235-0.14676 0-0.26665-0.03927-0.11782-0.03721-0.20257-0.10955-0.0827-0.07235-0.13023-0.17777-0.0455-0.10542-0.0455-0.23978 0-0.1571 0.0641-0.27285t0.18397-0.19224q0.11989-0.07648 0.29352-0.11369 0.17364-0.03927 0.39068-0.03927h0.25631v-0.14469q0-0.10749-0.0227-0.19017-0.0227-0.08268-0.0744-0.13643-0.0496-0.05581-0.13022-0.08268-0.0806-0.02894-0.19844-0.02894-0.12609 0-0.22738 0.03101-0.0992 0.02894-0.1757 0.06615-0.0744 0.03514-0.12609 0.06615-0.0496 0.02894-0.0744 0.02894-0.0165 0-0.0289-0.0083t-0.0227-0.0248q-8e-3 -0.01654-0.0124-0.04134-4e-3 -0.02687-4e-3 -0.05788 0-0.05168 6e-3 -0.08061 8e-3 -0.03101 0.0351-0.05788 0.0289-0.02687 0.0971-0.06201 0.0682-0.03721 0.1571-0.06614 0.0889-0.03101 0.1943-0.04961 0.10542-0.02067 0.21291-0.02067 0.2005 0 0.34106 0.04547 0.14056 0.04548 0.22738 0.13436 0.0868 0.08682 0.12609 0.21704 0.0393 0.13022 0.0393 0.30386zm-0.339-0.84956h-0.29145q-0.14056 0-0.24391 0.0248-0.10336 0.02274-0.17157 0.07028-0.0682 0.04548-0.10129 0.11162-0.031 0.06408-0.031 0.14883 0 0.14469 0.091 0.23151 0.093 0.08475 0.25838 0.08475 0.13436 0 0.24805-0.06821 0.11575-0.06821 0.24184-0.20877zm2.3172-0.8909q0 0.04548-2e-3 0.07648-2e-3 0.03101-8e-3 0.04961-6e-3 0.01654-0.0165 0.02687-8e-3 0.0083-0.0248 0.0083-0.0165 0-0.0413-0.0083-0.0227-0.01034-0.0537-0.0186-0.0289-0.01033-0.0661-0.0186-0.0372-0.0083-0.0806-0.0083-0.0517 0-0.10129 0.02067-0.0496 0.02067-0.10541 0.06821-0.0538 0.04754-0.11369 0.12609-0.06 0.07855-0.13229 0.19224v1.2237q0 0.01654-8e-3 0.02894-8e-3 0.01033-0.0269 0.0186-0.0186 0.0083-0.0517 0.0124t-0.0848 0.0041q-0.0496 0-0.0827-0.0041t-0.0538-0.0124q-0.0186-0.0083-0.0269-0.0186-6e-3 -0.0124-6e-3 -0.02894v-1.8604q0-0.01654 6e-3 -0.02687 6e-3 -0.0124 0.0248-0.02067 0.0186-0.01033 0.0475-0.0124 0.0289-0.0041 0.0765-0.0041 0.0455 0 0.0744 0.0041 0.031 0.0021 0.0476 0.0124 0.0165 0.0083 0.0227 0.02067 8e-3 0.01034 8e-3 0.02687v0.27078q0.0765-0.11162 0.14263-0.1819 0.0682-0.07028 0.12816-0.10955 0.0599-0.04134 0.11782-0.05581 0.0599-0.01654 0.11989-0.01654 0.0269 0 0.0599 0.0041 0.0351 0.0021 0.0724 0.01033 0.0372 0.0083 0.0662 0.0186 0.031 0.01033 0.0434 0.02067t0.0165 0.02067q4e-3 0.0083 6e-3 0.02274 4e-3 0.01447 4e-3 0.04341 2e-3 0.02687 2e-3 0.07441zm1.9678 1.7405q0 0.02481-0.0165 0.03721t-0.0455 0.0186q-0.0289 0.0062-0.0847 0.0062-0.0537 0-0.0868-0.0062-0.031-0.0062-0.0455-0.0186t-0.0145-0.03721v-0.18604q-0.12196 0.13022-0.27285 0.20257-0.14883 0.07235-0.31626 0.07235-0.14676 0-0.26665-0.03927-0.11783-0.03721-0.20257-0.10955-0.0827-0.07235-0.13023-0.17777-0.0455-0.10542-0.0455-0.23978 0-0.1571 0.0641-0.27285t0.18397-0.19224q0.11989-0.07648 0.29352-0.11369 0.17364-0.03927 0.39068-0.03927h0.25631v-0.14469q0-0.10749-0.0227-0.19017-0.0227-0.08268-0.0744-0.13643-0.0496-0.05581-0.13022-0.08268-0.0806-0.02894-0.19844-0.02894-0.12609 0-0.22738 0.03101-0.0992 0.02894-0.1757 0.06615-0.0744 0.03514-0.12609 0.06615-0.0496 0.02894-0.0744 0.02894-0.0165 0-0.0289-0.0083t-0.0227-0.0248q-8e-3 -0.01654-0.0124-0.04134-4e-3 -0.02687-4e-3 -0.05788 0-0.05168 6e-3 -0.08061 8e-3 -0.03101 0.0351-0.05788 0.0289-0.02687 0.0971-0.06201 0.0682-0.03721 0.15709-0.06614 0.0889-0.03101 0.19431-0.04961 0.10542-0.02067 0.2129-0.02067 0.20051 0 0.34107 0.04547 0.14056 0.04548 0.22738 0.13436 0.0868 0.08682 0.12609 0.21704 0.0393 0.13022 0.0393 0.30386zm-0.339-0.84956h-0.29145q-0.14056 0-0.24392 0.0248-0.10335 0.02274-0.17156 0.07028-0.0682 0.04548-0.10129 0.11162-0.031 0.06408-0.031 0.14883 0 0.14469 0.091 0.23151 0.093 0.08475 0.25838 0.08475 0.13436 0 0.24805-0.06821 0.11575-0.06821 0.24184-0.20877zm2.5673 0.56431q0 0.03514-2e-3 0.06201-2e-3 0.02481-8e-3 0.04341-4e-3 0.01654-0.0124 0.03101-6e-3 0.0124-0.0331 0.03927-0.0248 0.02481-0.0868 0.06408-0.062 0.03721-0.14056 0.06821-0.0765 0.02894-0.16743 0.04754-0.0909 0.0186-0.18811 0.0186-0.2005 0-0.35553-0.06615t-0.26045-0.19224q-0.10335-0.12816-0.15916-0.31213-0.0537-0.18604-0.0537-0.42788 0-0.27492 0.0661-0.47129 0.0682-0.19844 0.18397-0.32453 0.11782-0.12609 0.27492-0.18604 0.15916-0.06201 0.34313-0.06201 0.0889 0 0.17156 0.01654 0.0848 0.01654 0.15503 0.04341 0.0703 0.02687 0.12403 0.06201 0.0558 0.03514 0.0806 0.05994t0.0331 0.03927q0.0103 0.01447 0.0165 0.03514 6e-3 0.0186 8e-3 0.04341t2e-3 0.06201q0 0.08062-0.0186 0.11369-0.0186 0.03101-0.0455 0.03101-0.031 0-0.0724-0.03307-0.0393-0.03514-0.10128-0.07648-0.062-0.04134-0.1509-0.07441-0.0868-0.03514-0.20671-0.03514-0.24597 0-0.37827 0.19017-0.13022 0.1881-0.13022 0.54777 0 0.17983 0.0331 0.31626 0.0351 0.13436 0.10129 0.22531 0.0661 0.09095 0.16123 0.13643 0.0971 0.04341 0.22117 0.04341 0.11783 0 0.20671-0.03721 0.0889-0.03721 0.15296-0.08061 0.0661-0.04548 0.10955-0.08062 0.0455-0.03721 0.0703-0.03721 0.0145 0 0.0248 0.0083t0.0165 0.02894q8e-3 0.0186 0.0103 0.04961 4e-3 0.02894 4e-3 0.07028zm1.6847 0.14676q0 0.05994-8e-3 0.09508t-0.0248 0.05168q-0.0165 0.01654-0.0496 0.03101t-0.0765 0.02274q-0.0413 0.01033-0.0889 0.01654-0.0475 0.0062-0.0951 0.0062-0.14469 0-0.24804-0.03721-0.10336-0.03927-0.1695-0.11576-0.0661-0.07855-0.0971-0.19637-0.0289-0.11989-0.0289-0.28112v-1.0873h-0.26045q-0.031 0-0.0496-0.03307t-0.0186-0.10749q0-0.03927 4e-3 -0.06615 6e-3 -0.02687 0.0145-0.04341 8e-3 -0.0186 0.0207-0.02481 0.0145-0.0083 0.031-0.0083h0.25838v-0.44235q0-0.01447 6e-3 -0.02687 8e-3 -0.0124 0.0269-0.02067 0.0207-0.01034 0.0537-0.01447 0.0331-0.0041 0.0827-0.0041 0.0517 0 0.0847 0.0041 0.0331 0.0041 0.0517 0.01447 0.0186 0.0083 0.0269 0.02067 8e-3 0.0124 8e-3 0.02687v0.44235h0.47749q0.0165 0 0.0289 0.0083 0.0124 0.0062 0.0207 0.02481 0.0103 0.01654 0.0145 0.04341 4e-3 0.02687 4e-3 0.06615 0 0.07441-0.0186 0.10749-0.0186 0.03307-0.0496 0.03307h-0.47749v1.0377q0 0.19224 0.0558 0.29146 0.0579 0.09715 0.20464 0.09715 0.0475 0 0.0847-0.0083 0.0372-0.01034 0.0662-0.02067 0.0289-0.01033 0.0496-0.0186 0.0207-0.01034 0.0372-0.01034 0.0103 0 0.0186 0.0062 0.0103 0.0041 0.0145 0.0186 6e-3 0.01447 0.0103 0.03927 4e-3 0.0248 4e-3 0.06201zm2.2572-0.87436q0 0.08062-0.0413 0.11576-0.0393 0.03307-0.0909 0.03307h-1.2196q0 0.15503 0.031 0.27905 0.031 0.12402 0.10335 0.21291 0.0724 0.08888 0.18811 0.13643 0.11575 0.04754 0.28318 0.04754 0.13229 0 0.23565-0.02067 0.10335-0.02274 0.17776-0.04961 0.0765-0.02687 0.12403-0.04754 0.0496-0.02274 0.0744-0.02274 0.0145 0 0.0248 0.0083 0.0124 0.0062 0.0186 0.02067 6e-3 0.01447 8e-3 0.04134 4e-3 0.02481 4e-3 0.06201 0 0.02687-2e-3 0.04754-2e-3 0.0186-6e-3 0.03514-2e-3 0.01447-0.0103 0.02687-6e-3 0.0124-0.0186 0.02481-0.0103 0.01033-0.0661 0.03721-0.0558 0.0248-0.1447 0.04961t-0.2067 0.04341q-0.11576 0.02067-0.24805 0.02067-0.22944 0-0.40307-0.06408-0.17157-0.06408-0.28939-0.19017-0.11782-0.12609-0.17777-0.31626-0.0599-0.19017-0.0599-0.44235 0-0.23978 0.062-0.42995 0.062-0.19224 0.17777-0.32453 0.11782-0.13436 0.28318-0.20464 0.16537-0.07235 0.37001-0.07235 0.2191 0 0.37207 0.07028 0.15502 0.07028 0.25424 0.19017 0.0992 0.11782 0.1447 0.27905 0.0475 0.15916 0.0475 0.34106zm-0.34313-0.10129q6e-3 -0.26872-0.11989-0.42168-0.12402-0.15296-0.37-0.15296-0.12609 0-0.22118 0.04754-0.0951 0.04754-0.15916 0.12609-0.0641 0.07855-0.0992 0.18397-0.0351 0.10335-0.0393 0.21704zm2.2138-0.62632q0 0.04548-2e-3 0.07648-2e-3 0.03101-8e-3 0.04961-6e-3 0.01654-0.0165 0.02687-8e-3 0.0083-0.0248 0.0083-0.0165 0-0.0413-0.0083-0.0227-0.01034-0.0538-0.0186-0.0289-0.01033-0.0661-0.0186-0.0372-0.0083-0.0806-0.0083-0.0517 0-0.10128 0.02067-0.0496 0.02067-0.10542 0.06821-0.0537 0.04754-0.11369 0.12609-0.06 0.07855-0.13229 0.19224v1.2237q0 0.01654-8e-3 0.02894-8e-3 0.01033-0.0269 0.0186-0.0186 0.0083-0.0517 0.0124t-0.0848 0.0041q-0.0496 0-0.0827-0.0041t-0.0537-0.0124q-0.0186-0.0083-0.0269-0.0186-6e-3 -0.0124-6e-3 -0.02894v-1.8604q0-0.01654 6e-3 -0.02687 6e-3 -0.0124 0.0248-0.02067 0.0186-0.01033 0.0475-0.0124 0.0289-0.0041 0.0765-0.0041 0.0455 0 0.0744 0.0041 0.031 0.0021 0.0475 0.0124 0.0165 0.0083 0.0227 0.02067 8e-3 0.01034 8e-3 0.02687v0.27078q0.0765-0.11162 0.14263-0.1819 0.0682-0.07028 0.12816-0.10955 0.0599-0.04134 0.11782-0.05581 0.0599-0.01654 0.11989-0.01654 0.0269 0 0.0599 0.0041 0.0351 0.0021 0.0724 0.01033 0.0372 0.0083 0.0662 0.0186 0.031 0.01033 0.0434 0.02067t0.0165 0.02067q4e-3 0.0083 6e-3 0.02274 4e-3 0.01447 4e-3 0.04341 2e-3 0.02687 2e-3 0.07441z"/></g></g></svg>
