<svg data-name="图层 1" version="1.1" viewBox="0 0 1e3 800" xmlns="http://www.w3.org/2000/svg">
 <defs>
  <style>.cls-1 {
        fill: #999;
      }

      .cls-2 {
        fill: #b3b3b3;
      }

      .cls-3 {
        fill: #666;
      }

      .cls-4 {
        fill: #f2f2f2;
      }</style>
 </defs>
 <path class="cls-2" d="m350.05 408.23v-83.62l-176.63 154.13 176.63 154.14v-83.62h230.48v-141.03z" fill="#b3b3b3"/>
 <path class="cls-4" d="m649.95 619.26v83.62l176.63-154.14-176.63-154.13v83.62h-230.48v141.03z" fill="#ccc"/>
 <g fill="#333" stroke-linejoin="bevel" stroke-opacity=".44465" stroke-width="6.6667" style="font-variation-settings:'wdth' 75, 'wght' 600;paint-order:stroke fill markers;text-orientation:upright" aria-label="reified as Entity
or Object
= Noun">
  <path d="m228.21 463.6v-12.164h2.5547v12.164zm5.6836-9.7266q-0.10547 0-0.24609 0-0.12891 0-0.32813 0-1.1953 0-1.875 0.64453-0.66797 0.64453-0.67969 1.7461l-0.24609-2.707q0.55078-1.0898 1.4297-1.7109 0.8789-0.6211 1.9453-0.6211zm6.1094 9.9023q-1.793 0-2.7891-1.0195-0.98437-1.0195-0.98437-2.8711v-4.5469q0-1.9688 0.96094-3.0352 0.97265-1.0781 2.7188-1.0781 1.7695 0 2.7422 1.0195 0.97266 1.0195 0.97266 2.8945v3.3164h-5.4492v-1.9688h2.9883v-1.3945q0-0.75-0.32812-1.1602-0.32813-0.41015-0.92578-0.41015-0.57422 0-0.89063 0.44531-0.31641 0.43359-0.31641 1.2422v4.7578q0 0.70313 0.33985 1.0898 0.33984 0.375 0.96094 0.375 0.57421 0 0.8789-0.29296 0.31641-0.29297 0.31641-0.84375v-0.2461l2.4609 0.0117v0.21094q0 1.6641-0.96094 2.5898-0.96094 0.91406-2.6953 0.91406zm6.7422-14.59v-2.543h2.5547v2.543zm0 14.414v-12.164h2.5547v12.164zm6.0977 0v-13.816q0-1.5938 0.75-2.4024 0.76172-0.82031 2.3438-0.82031h1.4883v2.4141h-1.2305q-0.41015 0-0.60937 0.28125-0.1875 0.28125-0.1875 0.69141v13.652zm-1.1484-9.8789v-2.2852h5.7305v2.2852zm8.2422-4.5352v-2.543h2.5547v2.543zm0 14.414v-12.164h2.5547v12.164zm9.4141 0.17578q-1.793 0-2.7891-1.0195-0.98438-1.0195-0.98438-2.8711v-4.5469q0-1.9688 0.96094-3.0352 0.97266-1.0781 2.7188-1.0781 1.7695 0 2.7422 1.0195 0.97266 1.0195 0.97266 2.8945v3.3164h-5.4492v-1.9688h2.9883v-1.3945q0-0.75-0.32813-1.1602-0.32812-0.41015-0.92578-0.41015-0.57422 0-0.89062 0.44531-0.31641 0.43359-0.31641 1.2422v4.7578q0 0.70313 0.33984 1.0898 0.33985 0.375 0.96094 0.375 0.57422 0 0.87891-0.29296 0.3164-0.29297 0.3164-0.84375v-0.2461l2.4609 0.0117v0.21094q0 1.6641-0.96094 2.5898-0.96093 0.91406-2.6953 0.91406zm11.512-0.17578v-17.039h2.5547v17.039zm-2.3555 0.21094q-1.207 0-1.875-0.91406-0.65625-0.91406-0.65625-2.5664v-5.5664q0-1.6875 0.66797-2.6133 0.66797-0.92578 1.8633-0.92578 0.8086 0 1.4883 0.57422 0.69141 0.57422 1.1133 1.6055l-0.24609 1.6289q0-0.46875-0.14062-0.78516-0.14063-0.32812-0.39844-0.49219-0.25781-0.17578-0.63281-0.17578-0.5625 0-0.87891 0.38672-0.31641 0.375-0.31641 1.0898v5.0274q0 0.64453 0.31641 1.0078 0.31641 0.35156 0.87891 0.35156 0.375 0 0.63281-0.16406t0.39844-0.48047q0.14062-0.3164 0.14062-0.77344l0.16406 1.6641q-0.3164 0.99609-0.97265 1.5586t-1.5469 0.5625zm20.074-0.21094v-8.8125q0-0.60937-0.32812-0.9375-0.32813-0.33984-0.92579-0.33984-0.5039 0-0.79687 0.33984-0.29297 0.32813-0.29297 0.9375h-2.4609q0-1.6992 0.9375-2.625 0.94922-0.9375 2.6602-0.9375 1.7344 0 2.6953 0.92578 0.96094 0.92579 0.96094 2.6367v8.8125zm-2.1562 0.17578q-1.4297 0-2.168-0.86718-0.72656-0.86719-0.72656-2.5781 0-2.0039 0.98437-3.0234 0.98438-1.0195 2.8945-1.0195h1.2422l0.16407 2.1445h-1.3242q-0.75 0-1.1484 0.48047-0.38672 0.48047-0.38672 1.418 0 0.60938 0.29297 0.92578 0.29297 0.31641 0.86719 0.31641 0.71484 0 1.0898-0.39844t0.375-1.1836l0.22266 1.0781q-0.0117 0.89063-0.29297 1.5-0.26953 0.59766-0.79688 0.90235-0.52734 0.30468-1.2891 0.30468zm11.207 0q-1.6992 0-2.7188-0.99609-1.0195-1.0078-1.0195-2.6836v-0.14063l2.4375-0.0117v0.14063q0 0.64453 0.35156 1.0312 0.35157 0.375 0.94922 0.375 0.59766 0 0.9375-0.36328 0.35156-0.36328 0.35156-0.96094 0-0.52734-0.29296-0.82031-0.28125-0.30469-0.75-0.50391t-1.0078-0.39844q-0.49218-0.19922-0.99609-0.45703-0.50391-0.26953-0.92578-0.66797-0.41016-0.39843-0.65625-0.99609-0.2461-0.60938-0.2461-1.5 0-1.6523 0.94922-2.625t2.543-0.97266q1.6055 0 2.543 0.9375 0.94922 0.9375 0.96094 2.543v0.14063l-2.4492 0.0117v-0.16407q0-0.53906-0.28125-0.85547-0.28125-0.32812-0.77344-0.32812-0.48047 0-0.76172 0.35156-0.28125 0.33985-0.28125 0.9375 0 0.51563 0.25782 0.83203 0.26953 0.30469 0.6914 0.49219 0.42188 0.1875 0.91406 0.35156 0.52735 0.17578 1.0547 0.41016 0.53906 0.22266 0.97266 0.60937 0.44531 0.38672 0.71484 1.0312 0.26953 0.63282 0.26953 1.6406 0 1.6523-1.0195 2.6367-1.0078 0.97265-2.7188 0.97265zm13.219-0.17578v-17.039h2.5547v17.039zm1.2188 0v-2.4726h6.2109v2.4726zm0-7.2305v-2.4609h5.625v2.4609zm0-7.3359v-2.4727h6.2109v2.4727zm8.9688 14.566v-12.164h2.5664v12.164zm4.9922 0v-8.5078q0-0.76172-0.30469-1.1367-0.30469-0.38672-0.91406-0.38672-0.60938 0-0.91406 0.38672-0.29297 0.38672-0.29297 1.1602l-0.2461-1.5938q0.39844-1.1602 1.1133-1.7227 0.71484-0.57422 1.5938-0.57422 1.2188 0 1.8633 0.83203 0.65625 0.82032 0.65625 2.3555v9.1875zm9.2383 0.0586q-1.582 0-2.2969-0.83203-0.71485-0.83204-0.71485-2.3906v-12.539h2.5547v12.305q0 0.45703 0.21094 0.71484 0.21093 0.25781 0.59765 0.25781h0.85547v2.4844zm-4.1602-9.8438v-2.3789h5.3672v2.3789zm8.1133-4.6289v-2.543h2.5547v2.543zm0 14.414v-12.164h2.5547v12.164zm9.1094 0.0586q-1.582 0-2.2969-0.83203-0.71485-0.83204-0.71485-2.3906v-12.539h2.5547v12.305q0 0.45703 0.21094 0.71484 0.21093 0.25781 0.59765 0.25781h0.85547v2.4844zm-4.1602-9.8438v-2.3789h5.3672v2.3789zm13.363-2.3789h2.4844l-3.457 15.012q-0.25781 1.1133-1.125 1.6641-0.85547 0.5625-2.3438 0.5625h-0.62109v-2.4961h0.65625q0.6914 0 1.0664-0.28125 0.38672-0.26953 0.52735-0.97266zm-2.25 13.324-3.6914-13.324h2.4844l2.4609 10.535z"/>
  <path d="m231.54 487.78q-1.6875 0-2.6367-0.89062-0.9375-0.90234-0.9375-2.5312v-5.7656q0-1.6172 0.9375-2.4844 0.94922-0.87891 2.6367-0.87891 1.6992 0 2.625 0.87891 0.92578 0.86719 0.92578 2.4844v5.8008q0 1.6172-0.92578 2.5078-0.92578 0.8789-2.625 0.8789zm-0.0117-2.3906q0.49219 0 0.75-0.30469 0.26953-0.30469 0.26953-0.86719v-5.4609q0-0.53907-0.26953-0.84375-0.25781-0.30469-0.75-0.30469-0.46875 0-0.75 0.30469-0.26953 0.30468-0.26953 0.84375v5.4609q0 0.5625 0.26953 0.86719 0.28125 0.30469 0.75 0.30469zm6.7774 2.2148v-12.164h2.5547v12.164zm5.6836-9.7266q-0.10547 0-0.24609 0-0.12891 0-0.32813 0-1.1953 0-1.875 0.64453-0.66797 0.64453-0.67969 1.7461l-0.24609-2.707q0.55078-1.0898 1.4297-1.7109 0.8789-0.6211 1.9453-0.6211zm13.816 9.9023q-1.3594 0-2.3203-0.49218-0.96093-0.49219-1.4648-1.418t-0.50391-2.2383v-9.0938q0-1.3242 0.50391-2.25t1.4648-1.4062q0.96094-0.49219 2.3203-0.49219 1.3594 0 2.3203 0.49219 0.96094 0.48047 1.4648 1.4062 0.50391 0.92578 0.50391 2.25v9.0938q0 1.3125-0.50391 2.2383-0.5039 0.92578-1.4648 1.418-0.96094 0.49218-2.3203 0.49218zm0-2.5312q0.82031 0 1.2656-0.45703 0.44531-0.46875 0.44531-1.3008v-8.8242q0-0.82031-0.44531-1.2773-0.44531-0.46875-1.2656-0.46875-0.82032 0-1.2656 0.46875-0.44531 0.45703-0.44531 1.2773v8.8242q0 0.83203 0.44531 1.3008 0.44531 0.45703 1.2656 0.45703zm12.402 2.5312q-0.83203 0-1.4648-0.53906-0.6211-0.55078-0.91407-1.5469l0.16407-1.8047q0 0.50391 0.14062 0.85547 0.15235 0.33984 0.41016 0.52734 0.25781 0.17578 0.63281 0.17578 0.5625 0 0.86719-0.42187 0.30469-0.42188 0.30469-1.1836v-4.7344q0-0.73828-0.30469-1.1367-0.30469-0.41016-0.86719-0.41016-0.375 0-0.63281 0.17579-0.25781 0.16406-0.41016 0.5039-0.14062 0.32813-0.14062 0.82031l-0.2461-1.6055q0.41016-1.0664 1.0781-1.6406 0.66797-0.58594 1.4648-0.58594 1.2422 0 1.9102 0.9375 0.67969 0.9375 0.67969 2.6719v5.2617q0 1.7461-0.70313 2.7188-0.69141 0.96093-1.9688 0.96093zm-4.7695-0.17578v-17.039h2.5547v17.039zm9.3672 4.9453v-2.4844h0.45703q0.38672 0 0.58594-0.25781 0.21093-0.25781 0.21093-0.71485v-13.652h2.5781v13.887q0 1.5352-0.79688 2.3789-0.78515 0.84375-2.2266 0.84375zm1.2539-19.348v-2.543h2.5781v2.543zm9.5664 14.578q-1.793 0-2.7891-1.0195-0.98438-1.0195-0.98438-2.8711v-4.5469q0-1.9688 0.96094-3.0352 0.97266-1.0781 2.7188-1.0781 1.7695 0 2.7422 1.0195 0.97265 1.0195 0.97265 2.8945v3.3164h-5.4492v-1.9688h2.9883v-1.3945q0-0.75-0.32813-1.1602-0.32812-0.41015-0.92578-0.41015-0.57422 0-0.89063 0.44531-0.3164 0.43359-0.3164 1.2422v4.7578q0 0.70313 0.33984 1.0898 0.33985 0.375 0.96094 0.375 0.57422 0 0.87891-0.29296 0.3164-0.29297 0.3164-0.84375v-0.2461l2.4609 0.0117v0.21094q0 1.6641-0.96094 2.5898-0.96094 0.91406-2.6953 0.91406zm10.375 0q-1.793 0-2.7773-0.90234-0.97266-0.91406-0.97266-2.5898v-5.3906q0-1.7578 0.97266-2.707 0.98437-0.96094 2.7773-0.96094t2.7773 0.97266q0.98438 0.96094 0.98438 2.7188v0.71484h-2.5195v-0.58593q0-0.71485-0.31641-1.1016t-0.89062-0.38672q-0.57422 0-0.90235 0.38672-0.3164 0.375-0.3164 1.0664v5.1562q0 0.60937 0.3164 0.94922 0.32813 0.32812 0.90235 0.32812 0.57421 0 0.8789-0.35156 0.31641-0.35156 0.32813-0.98437v-0.55079l2.543 0.0117v0.66797q0.0117 1.6758-0.98438 2.6133-0.99609 0.92578-2.8008 0.92578zm9.7656-0.11718q-1.582 0-2.2969-0.83203-0.71484-0.83204-0.71484-2.3906v-12.539h2.5547v12.305q0 0.45703 0.21094 0.71484t0.59766 0.25781h0.85547v2.4844zm-4.1602-9.8438v-2.3789h5.3672v2.3789z"/>
  <path d="m227.51 503v-2.4844h5.625v2.4844zm0 4.0781v-2.4844h5.625v2.4844zm15.094 4.5117v-17.027h2.1094l4.3359 12.223-0.33984 0.375v-12.598h2.3789v17.027h-2.1328l-4.3008-11.684 0.32813-0.38672v12.07zm15.156 0.1875q-1.6875 0-2.6367-0.89062-0.9375-0.90234-0.9375-2.5312v-5.7656q0-1.6172 0.9375-2.4844 0.94922-0.87891 2.6367-0.87891 1.6992 0 2.625 0.87891 0.92578 0.86719 0.92578 2.4844v5.8008q0 1.6172-0.92578 2.5078-0.92578 0.8789-2.625 0.8789zm-0.0117-2.3906q0.49219 0 0.75-0.30469 0.26953-0.30469 0.26953-0.86719v-5.4609q0-0.53907-0.26953-0.84375-0.25781-0.30469-0.75-0.30469-0.46875 0-0.75 0.30469-0.26953 0.30468-0.26953 0.84375v5.4609q0 0.5625 0.26953 0.86719 0.28125 0.30469 0.75 0.30469zm11.254 2.2148v-12.164h2.543v12.164zm-2.2266-12.164v8.9414q0 0.5625 0.28125 0.85547 0.28125 0.28125 0.84375 0.28125t0.83203-0.30469 0.26953-0.87891l0.16406 1.3477q-0.30469 1.0547-0.8789 1.582-0.5625 0.51562-1.4062 0.51562-1.3242 0-1.9922-0.84375-0.65625-0.84375-0.65625-2.5078v-8.9883zm8.2305 12.164v-12.164h2.5664v12.164zm4.9922 0v-8.5078q0-0.76172-0.30468-1.1367-0.30469-0.38672-0.91407-0.38672-0.60937 0-0.91406 0.38672-0.29297 0.38672-0.29297 1.1602l-0.24609-1.5938q0.39844-1.1602 1.1133-1.7227 0.71484-0.57422 1.5938-0.57422 1.2188 0 1.8633 0.83203 0.65625 0.82032 0.65625 2.3555v9.1875z"/>
 </g>
 <g fill="#666" stroke-linejoin="bevel" stroke-opacity=".44465" stroke-width="6.6667" style="font-variation-settings:'wdth' 75, 'wght' 600;paint-order:stroke fill markers;text-orientation:upright" aria-label="activized as Act,
Event or State
= Verb">
  <path d="m632.73 538.54v-8.8125q0-0.60937-0.32812-0.9375-0.32813-0.33984-0.92578-0.33984-0.50391 0-0.79688 0.33984-0.29297 0.32813-0.29297 0.9375h-2.4609q0-1.6992 0.9375-2.625 0.94922-0.9375 2.6602-0.9375 1.7344 0 2.6953 0.92578 0.96093 0.92578 0.96093 2.6367v8.8125zm-2.1562 0.17578q-1.4297 0-2.168-0.86719-0.72657-0.86718-0.72657-2.5781 0-2.0039 0.98438-3.0234 0.98437-1.0195 2.8945-1.0195h1.2422l0.16406 2.1445h-1.3242q-0.75 0-1.1484 0.48047-0.38672 0.48047-0.38672 1.418 0 0.60937 0.29297 0.92578t0.86719 0.31641q0.71484 0 1.0898-0.39844t0.375-1.1836l0.22266 1.0781q-0.0117 0.89063-0.29297 1.5-0.26953 0.59766-0.79687 0.90234-0.52735 0.30469-1.2891 0.30469zm11.57 0q-1.793 0-2.7774-0.90234-0.97265-0.91406-0.97265-2.5898v-5.3906q0-1.7578 0.97265-2.707 0.98438-0.96094 2.7774-0.96094t2.7773 0.97266q0.98438 0.96093 0.98438 2.7188v0.71484h-2.5195v-0.58594q0-0.71484-0.3164-1.1016-0.31641-0.38672-0.89063-0.38672t-0.90234 0.38672q-0.31641 0.375-0.31641 1.0664v5.1562q0 0.60937 0.31641 0.94922 0.32812 0.32812 0.90234 0.32812t0.87891-0.35156q0.31641-0.35156 0.32812-0.98438v-0.55078l2.543 0.0117v0.66797q0.0117 1.6758-0.98437 2.6133-0.9961 0.92578-2.8008 0.92578zm9.7656-0.11719q-1.582 0-2.2969-0.83203-0.71485-0.83203-0.71485-2.3906v-12.539h2.5547v12.305q0 0.45703 0.21094 0.71485 0.21094 0.25781 0.59765 0.25781h0.85547v2.4844zm-4.1602-9.8438v-2.3789h5.3672v2.3789zm8.1133-4.6289v-2.543h2.5547v2.543zm0 14.414v-12.164h2.5547v12.164zm9.3203-3.668 1.7109-8.4961h2.5195l-3.2344 12.164h-1.9922l-3.2578-12.164h2.5195zm6.7422-10.746v-2.543h2.5547v2.543zm0 14.414v-12.164h2.5547v12.164zm12.145-12.164v2.2148l-3.9024 7.5352h4.2188v2.4141h-6.9609v-2.2617l4.0547-7.4883h-3.8906v-2.4141zm6.7422 12.34q-1.793 0-2.7891-1.0195-0.98437-1.0195-0.98437-2.8711v-4.5469q0-1.9688 0.96094-3.0352 0.97265-1.0781 2.7188-1.0781 1.7695 0 2.7422 1.0195 0.97266 1.0195 0.97266 2.8945v3.3164h-5.4492v-1.9688h2.9883v-1.3945q0-0.75-0.32812-1.1602-0.32813-0.41015-0.92578-0.41015-0.57422 0-0.89063 0.44531-0.31641 0.43359-0.31641 1.2422v4.7578q0 0.70312 0.33985 1.0898 0.33984 0.375 0.96094 0.375 0.57421 0 0.8789-0.29297 0.31641-0.29297 0.31641-0.84375v-0.24609l2.4609 0.0117v0.21094q0 1.6641-0.96094 2.5898-0.96094 0.91406-2.6953 0.91406zm11.512-0.17578v-17.039h2.5547v17.039zm-2.3555 0.21094q-1.207 0-1.875-0.91406-0.65625-0.91407-0.65625-2.5664v-5.5664q0-1.6875 0.66796-2.6133 0.66797-0.92578 1.8633-0.92578 0.80859 0 1.4883 0.57422 0.6914 0.57422 1.1133 1.6055l-0.2461 1.6289q0-0.46875-0.14062-0.78515-0.14063-0.32813-0.39844-0.49219-0.25781-0.17578-0.63281-0.17578-0.5625 0-0.87891 0.38672-0.3164 0.375-0.3164 1.0898v5.0274q0 0.64453 0.3164 1.0078 0.31641 0.35156 0.87891 0.35156 0.375 0 0.63281-0.16406t0.39844-0.48047q0.14062-0.31641 0.14062-0.77344l0.16407 1.6641q-0.31641 0.9961-0.97266 1.5586t-1.5469 0.5625zm20.074-0.21094v-8.8125q0-0.60937-0.32812-0.9375-0.32813-0.33984-0.92578-0.33984-0.50391 0-0.79688 0.33984-0.29297 0.32813-0.29297 0.9375h-2.4609q0-1.6992 0.9375-2.625 0.94922-0.9375 2.6602-0.9375 1.7344 0 2.6953 0.92578 0.96093 0.92578 0.96093 2.6367v8.8125zm-2.1562 0.17578q-1.4297 0-2.168-0.86719-0.72657-0.86718-0.72657-2.5781 0-2.0039 0.98438-3.0234 0.98437-1.0195 2.8945-1.0195h1.2422l0.16406 2.1445h-1.3242q-0.75 0-1.1484 0.48047-0.38672 0.48047-0.38672 1.418 0 0.60937 0.29297 0.92578t0.86719 0.31641q0.71484 0 1.0898-0.39844t0.375-1.1836l0.22266 1.0781q-0.0117 0.89063-0.29297 1.5-0.26953 0.59766-0.79687 0.90234-0.52735 0.30469-1.2891 0.30469zm11.207 0q-1.6992 0-2.7188-0.99609-1.0195-1.0078-1.0195-2.6836v-0.14062l2.4375-0.0117v0.14063q0 0.64453 0.35157 1.0312 0.35156 0.375 0.94922 0.375 0.59765 0 0.9375-0.36329 0.35156-0.36328 0.35156-0.96093 0-0.52735-0.29297-0.82032-0.28125-0.30468-0.75-0.5039t-1.0078-0.39844q-0.49219-0.19922-0.9961-0.45703-0.5039-0.26953-0.92578-0.66797-0.41015-0.39844-0.65625-0.99609-0.24609-0.60938-0.24609-1.5 0-1.6524 0.94922-2.625 0.94922-0.97266 2.543-0.97266 1.6055 0 2.543 0.9375 0.94922 0.9375 0.96094 2.543v0.14062l-2.4492 0.0117v-0.16406q0-0.53906-0.28125-0.85547-0.28125-0.32812-0.77343-0.32812-0.48047 0-0.76172 0.35156-0.28125 0.33984-0.28125 0.9375 0 0.51562 0.25781 0.83203 0.26953 0.30469 0.69141 0.49219 0.42187 0.1875 0.91406 0.35156 0.52734 0.17578 1.0547 0.41016 0.53906 0.22265 0.97265 0.60937 0.44531 0.38672 0.71485 1.0312 0.26953 0.63281 0.26953 1.6406 0 1.6523-1.0195 2.6367-1.0078 0.97265-2.7188 0.97265zm12.398-0.17578 3.9961-17.039h2.0391l3.9961 17.039h-2.625l-2.3906-12.363-2.3906 12.363zm2.6367-3.1875v-2.4023h4.8516v2.4023zm13.422 3.3633q-1.793 0-2.7774-0.90234-0.97265-0.91406-0.97265-2.5898v-5.3906q0-1.7578 0.97265-2.707 0.98438-0.96094 2.7774-0.96094t2.7773 0.97266q0.98438 0.96093 0.98438 2.7188v0.71484h-2.5195v-0.58594q0-0.71484-0.3164-1.1016-0.31641-0.38672-0.89063-0.38672t-0.90234 0.38672q-0.31641 0.375-0.31641 1.0664v5.1562q0 0.60937 0.31641 0.94922 0.32812 0.32812 0.90234 0.32812t0.87891-0.35156q0.31641-0.35156 0.32812-0.98438v-0.55078l2.543 0.0117v0.66797q0.0117 1.6758-0.98437 2.6133-0.9961 0.92578-2.8008 0.92578zm9.7656-0.11719q-1.582 0-2.2969-0.83203-0.71485-0.83203-0.71485-2.3906v-12.539h2.5547v12.305q0 0.45703 0.21094 0.71485 0.21094 0.25781 0.59765 0.25781h0.85547v2.4844zm-4.1602-9.8438v-2.3789h5.3672v2.3789zm7.7266 13.816v-6.6562h2.625v3.8789z"/>
  <path d="m648.09 562.54v-17.039h2.5547v17.039zm1.2188 0v-2.4727h6.2109v2.4727zm0-7.2305v-2.4609h5.625v2.4609zm0-7.3359v-2.4726h6.2109v2.4726zm12.402 10.898 1.7109-8.4961h2.5195l-3.2344 12.164h-1.9922l-3.2578-12.164h2.5195zm10.164 3.8438q-1.793 0-2.7891-1.0195-0.98438-1.0195-0.98438-2.8711v-4.5469q0-1.9688 0.96094-3.0352 0.97266-1.0781 2.7188-1.0781 1.7695 0 2.7422 1.0195t0.97266 2.8945v3.3164h-5.4492v-1.9688h2.9883v-1.3945q0-0.75-0.32813-1.1602-0.32812-0.41015-0.92578-0.41015-0.57422 0-0.89062 0.44531-0.31641 0.43359-0.31641 1.2422v4.7578q0 0.70312 0.33984 1.0898 0.33985 0.375 0.96094 0.375 0.57422 0 0.87891-0.29297 0.3164-0.29297 0.3164-0.84375v-0.24609l2.4609 0.0117v0.21094q0 1.6641-0.96094 2.5898-0.96093 0.91406-2.6953 0.91406zm6.8711-0.17578v-12.164h2.5664v12.164zm4.9922 0v-8.5078q0-0.76172-0.30468-1.1367-0.30469-0.38672-0.91407-0.38672-0.60937 0-0.91406 0.38672-0.29297 0.38672-0.29297 1.1602l-0.24609-1.5938q0.39844-1.1602 1.1133-1.7227 0.71484-0.57422 1.5938-0.57422 1.2188 0 1.8633 0.83203 0.65625 0.82031 0.65625 2.3555v9.1875zm9.2383 0.0586q-1.582 0-2.2969-0.83203t-0.71484-2.3906v-12.539h2.5547v12.305q0 0.45703 0.21094 0.71485 0.21094 0.25781 0.59766 0.25781h0.85547v2.4844zm-4.1602-9.8438v-2.3789h5.3672v2.3789zm18.398 9.9609q-1.6875 0-2.6367-0.89062-0.9375-0.90235-0.9375-2.5312v-5.7656q0-1.6172 0.9375-2.4844 0.94922-0.87891 2.6367-0.87891 1.6992 0 2.625 0.87891 0.92578 0.86718 0.92578 2.4844v5.8008q0 1.6172-0.92578 2.5078-0.92579 0.8789-2.625 0.8789zm-0.0117-2.3906q0.49218 0 0.75-0.30469 0.26953-0.30469 0.26953-0.86719v-5.4609q0-0.53906-0.26953-0.84375-0.25782-0.30468-0.75-0.30468-0.46875 0-0.75 0.30468-0.26953 0.30469-0.26953 0.84375v5.4609q0 0.5625 0.26953 0.86719 0.28125 0.30469 0.75 0.30469zm6.7773 2.2148v-12.164h2.5547v12.164zm5.6836-9.7266q-0.10546 0-0.24609 0-0.12891 0-0.32812 0-1.1953 0-1.875 0.64453-0.66797 0.64453-0.67969 1.7461l-0.2461-2.707q0.55079-1.0898 1.4297-1.7109 0.87891-0.62109 1.9453-0.62109zm13.559 9.9023q-1.3359 0-2.2852-0.48047-0.9375-0.48047-1.4297-1.3945-0.49218-0.91406-0.49218-2.2266v-0.87891l2.5547-0.0117v0.83204q0 0.78515 0.42188 1.2188 0.43359 0.43359 1.2305 0.43359 0.76172 0 1.1719-0.42188 0.42188-0.43359 0.42188-1.2188v-1.4883q0-0.60937-0.32813-0.99609-0.32812-0.39844-0.86718-0.69141-0.52735-0.30468-1.1484-0.58593-0.59766-0.29297-1.207-0.64454-0.60938-0.35156-1.125-0.84375-0.50391-0.5039-0.8086-1.2305-0.30468-0.72657-0.30468-1.7812v-0.9375q0-1.9336 1.0781-2.9883 1.0898-1.0547 3.0938-1.0547 1.957 0 3.0117 1.0664 1.0664 1.0664 1.0664 3.0234v0.92578l-2.5547 0.0234v-0.89063q0-0.79687-0.39844-1.2188-0.38672-0.43359-1.125-0.43359-0.78516 0-1.207 0.39844-0.41016 0.39844-0.41016 1.125v1.1016q0 0.67969 0.36328 1.1016 0.375 0.41016 0.96094 0.70313t1.2305 0.62109q0.57422 0.26953 1.1367 0.58594 0.57422 0.31641 1.043 0.77344 0.48047 0.44531 0.76172 1.1484 0.29297 0.69141 0.29297 1.7461v1.4883q0 1.957-1.0781 3.0352-1.0781 1.0664-3.0703 1.0664zm10.656-0.11719q-1.582 0-2.2969-0.83203-0.71484-0.83203-0.71484-2.3906v-12.539h2.5547v12.305q0 0.45703 0.21093 0.71485 0.21094 0.25781 0.59766 0.25781h0.85547v2.4844zm-4.1602-9.8438v-2.3789h5.3672v2.3789zm13.117 9.7852v-8.8125q0-0.60937-0.32813-0.9375-0.32812-0.33984-0.92578-0.33984-0.5039 0-0.79687 0.33984-0.29297 0.32813-0.29297 0.9375h-2.4609q0-1.6992 0.9375-2.625 0.94922-0.9375 2.6602-0.9375 1.7344 0 2.6953 0.92578t0.96094 2.6367v8.8125zm-2.1562 0.17578q-1.4297 0-2.168-0.86719-0.72656-0.86718-0.72656-2.5781 0-2.0039 0.98437-3.0234 0.98438-1.0195 2.8945-1.0195h1.2422l0.16406 2.1445h-1.3242q-0.75 0-1.1484 0.48047-0.38672 0.48047-0.38672 1.418 0 0.60937 0.29297 0.92578t0.86719 0.31641q0.71484 0 1.0898-0.39844t0.375-1.1836l0.22266 1.0781q-0.0117 0.89063-0.29297 1.5-0.26953 0.59766-0.79688 0.90234-0.52734 0.30469-1.2891 0.30469zm11.289-0.11719q-1.582 0-2.2969-0.83203-0.71485-0.83203-0.71485-2.3906v-12.539h2.5547v12.305q0 0.45703 0.21094 0.71485 0.21094 0.25781 0.59765 0.25781h0.85547v2.4844zm-4.1602-9.8438v-2.3789h5.3672v2.3789zm11.77 9.9609q-1.793 0-2.7891-1.0195-0.98437-1.0195-0.98437-2.8711v-4.5469q0-1.9688 0.96094-3.0352 0.97265-1.0781 2.7188-1.0781 1.7695 0 2.7422 1.0195 0.97266 1.0195 0.97266 2.8945v3.3164h-5.4492v-1.9688h2.9883v-1.3945q0-0.75-0.32812-1.1602-0.32813-0.41015-0.92578-0.41015-0.57422 0-0.89063 0.44531-0.3164 0.43359-0.3164 1.2422v4.7578q0 0.70312 0.33984 1.0898 0.33984 0.375 0.96094 0.375 0.57422 0 0.8789-0.29297 0.31641-0.29297 0.31641-0.84375v-0.24609l2.4609 0.0117v0.21094q0 1.6641-0.96094 2.5898-0.96094 0.91406-2.6953 0.91406z"/>
  <path d="m723.34 577.93v-2.4844h5.625v2.4844zm0 4.0781v-2.4844h5.625v2.4844zm17.32 4.5234-3.2812-17.039h2.6953l1.9453 12.422 1.9453-12.422h2.6953l-3.2812 17.039zm10.762 0.17578q-1.793 0-2.7891-1.0195-0.98437-1.0195-0.98437-2.8711v-4.5469q0-1.9688 0.96094-3.0352 0.97265-1.0781 2.7188-1.0781 1.7695 0 2.7422 1.0195 0.97266 1.0195 0.97266 2.8945v3.3164h-5.4492v-1.9688h2.9883v-1.3945q0-0.75-0.32812-1.1602-0.32813-0.41015-0.92578-0.41015-0.57422 0-0.89063 0.44531-0.3164 0.43359-0.3164 1.2422v4.7578q0 0.70312 0.33984 1.0898 0.33984 0.375 0.96094 0.375 0.57422 0 0.8789-0.29297 0.31641-0.29297 0.31641-0.84375v-0.24609l2.4609 0.0117v0.21094q0 1.6641-0.96094 2.5898-0.96094 0.91406-2.6953 0.91406zm6.8711-0.17578v-12.164h2.5547v12.164zm5.6836-9.7266q-0.10546 0-0.24609 0-0.12891 0-0.32812 0-1.1953 0-1.875 0.64453-0.66797 0.64453-0.67969 1.7461l-0.2461-2.707q0.55079-1.0898 1.4297-1.7109 0.87891-0.62109 1.9453-0.62109zm7.5859 9.9023q-0.83203 0-1.4648-0.53906-0.6211-0.55078-0.91406-1.5469l0.16406-1.8047q0 0.5039 0.14062 0.85547 0.15235 0.33984 0.41016 0.52734 0.25781 0.17578 0.63281 0.17578 0.5625 0 0.86719-0.42187 0.30469-0.42188 0.30469-1.1836v-4.7344q0-0.73828-0.30469-1.1367-0.30469-0.41016-0.86719-0.41016-0.375 0-0.63281 0.17578-0.25781 0.16407-0.41016 0.50391-0.14062 0.32812-0.14062 0.82031l-0.2461-1.6055q0.41016-1.0664 1.0781-1.6406 0.66797-0.58594 1.4648-0.58594 1.2422 0 1.9102 0.9375 0.67969 0.9375 0.67969 2.6719v5.2617q0 1.7461-0.70313 2.7188-0.6914 0.96094-1.9688 0.96094zm-4.7695-0.17578v-17.039h2.5547v17.039z"/>
 </g>
 <path transform="translate(80.561 405.03)" d="m123.32 259.96q0.82134 1.344 0.82134 5.376 0 3.9573-1.6427 6.72-1.4933 2.1653-6.3467 6.048-4.8533 3.808-7.168 3.808-4.1067 0-9.408-4.256-5.3013-4.3307-6.72-9.4827l8.288-5.6747q1.1947 3.5093 3.808 6.4214 2.6133 2.912 3.6587 2.912 1.12 0 2.3147-0.672 1.2693-0.74667 1.9413-1.4933 0.97067-1.1947 0.97067-3.7333 0-2.5387-1.1947-3.136-1.4933-1.2693-5.824-3.36-4.256-2.0907-7.9147-4.48-3.6587-2.464-4.704-4.7787-0.97067-2.3147-0.97067-5.9733 0-3.7333 1.6427-6.496 1.4933-2.1653 6.3467-5.9734 4.8533-3.8827 7.168-3.8827 4.1067 0 9.408 4.3307 5.3013 4.256 6.72 9.408l-8.288 5.7493q-1.1947-3.5093-3.808-6.4213-2.6133-2.9867-3.7333-2.9867-1.0453 0-2.3147 0.672-1.2693 0.672-2.0907 1.7173-0.74667 0.97067-0.74667 3.4347 0 2.3893 1.4933 3.2107 1.1947 1.0453 5.4507 3.2853 10.901 5.9733 12.843 9.7067zm18.92 9.7067q0.52267 0.896 2.0907 1.9413 1.6427 0.97067 2.688 0.97067 1.12 0 2.7627-2.7627 0.97067-1.7173 0.97067-8.8854 0-7.2427-0.97067-8.96-0.448-0.82133-1.344-1.792-0.82134-0.97067-1.6427-0.97067-0.74667 0-2.3893 1.0453-1.6427 0.97067-2.1653 1.8667-0.52266 0.896-0.52266 8.736 0 7.84 0.52266 8.8107zm17.024 1.8667q-0.97066 2.464-5.0027 6.4213-3.9573 3.9573-5.9734 3.9573-2.016 0-6.5707-4.032v6.496q0 3.808 0.896 5.8987t2.8373 3.6587l-8.2134 5.7493q-5.376-4.256-5.376-12.096v-31.733q0-7.0934-3.7333-10.229l8.2134-5.7494q2.0907 1.7173 3.8827 5.376 5.824-5.376 8.288-5.376 1.792 0 5.7494 3.9573 4.032 3.9573 5.0027 6.4214 0.97067 2.464 0.97067 10.677 0 8.1387-0.97067 10.603zm34.824-30.763v30.613q0.448 2.6133 3.5093 4.6293l-6.72 5.7494q-0.97067-0.672-2.3893-2.3893t-2.3893-3.5093q-6.1974 6.048-8.6614 6.048-1.792 0-5.824-3.9573-3.9573-3.9573-4.928-6.4213-0.97067-2.464-0.97067-10.603 0-8.2134 0.97067-10.677 0.97067-2.464 4.928-6.4214 4.032-3.9573 5.824-3.9573 2.6133 0 8.4374 5.376l0.896-4.48zm-10.379 11.424q-0.52267-0.97066-2.1653-1.9413-1.568-1.0453-2.3893-1.0453-0.82133 0-1.792 0.97067-0.896 0.97067-1.1947 1.792-0.97067 1.344-0.97067 8.96 0 7.5414 0.97067 8.8854 0.29867 0.74667 1.1947 1.792 0.97067 0.97067 1.792 0.97067 0.82134 0 2.3893-0.97067 1.6427-1.0453 2.0907-1.8667 0.52267-0.82133 0.59734-8.736 0-7.9147-0.52267-8.8107zm19.816 20.608q-1.568-2.464-1.568-11.872t1.568-11.947q1.12-1.8667 5.5253-5.4507 4.4053-3.6587 6.7947-3.6587 2.464 0 6.5707 2.912 4.1813 2.8373 6.272 6.496l-7.6907 5.3013q-0.97067-1.792-2.688-3.9573-1.6427-2.1653-2.464-2.1653-1.4933 0-3.4347 3.136-0.97067 1.9413-0.97067 9.3334 0 7.3174 0.97067 9.2587 0.59733 0.97067 1.568 2.0907 0.97067 1.0453 1.9413 1.0453 0.97066 0 2.5387-1.7173 1.568-1.7173 2.5387-4.4053l7.6907 5.376q-2.016 3.7333-6.1974 6.5707-4.1067 2.7627-6.5707 2.7627-2.464 0-6.8694-3.584-4.4053-3.6587-5.5253-5.5254zm57.149-12.021v2.688h-18.069q0 4.48 1.12 7.0934 0.37334 0.896 1.344 1.8667 0.97067 0.896 2.016 0.896 1.0453 0 2.6133-1.792 1.568-1.792 2.464-4.3307l7.6907 5.4507q-2.016 3.7333-6.1973 6.496-4.1067 2.7627-6.6454 2.7627t-7.392-3.9573q-4.7787-3.9573-5.824-6.1227-1.0453-2.24-1.0453-10.901 0-8.736 1.0453-10.901 1.0453-2.24 5.824-6.1974 4.8533-3.9573 7.0933-3.9573 2.24 0 7.0187 3.9573 4.8534 3.9573 5.8987 6.1974 1.0453 2.1653 1.0453 10.752zm-10.379-9.3334q-0.52267-1.0453-1.7173-2.016-1.12-0.97067-2.1653-0.97067-0.97067 0-2.24 2.016-1.2693 1.9413-1.568 5.8987h8.512q-0.22401-3.9573-0.82134-4.928z" fill="#666" fill-opacity=".97255" style="paint-order:stroke fill markers;text-orientation:upright;white-space:pre" aria-label="Space"/>
 <path transform="translate(580.35 109.37)" d="m139.76 228.75v8.96h-9.7067v43.307h-10.304v-43.307h-9.7067v-8.96zm4.8827 12.021h9.856v25.835q0 3.808 0.896 5.8987 0.896 2.0907 2.8373 3.6587l-8.2134 5.7493q-5.376-4.256-5.376-12.096zm5.0773-15.605q0.82134 0 3.6587 2.464 2.8373 2.3893 2.8373 3.2853 0 0.82133-2.912 3.2853-2.8373 2.464-3.6587 2.464-0.74667 0-3.584-2.3893-2.8373-2.464-2.8373-3.2853 0-0.896 2.8373-3.36 2.912-2.464 3.6587-2.464zm40.723 55.851h-9.856v-27.776q0-1.2693-1.344-2.6133-1.344-1.4187-2.3147-1.4187-0.896 0-2.9867 1.792v30.016h-9.856v-25.76q0-3.808-0.896-5.8987-0.89601-2.0907-2.8373-3.6587l8.2134-5.7493q2.464 2.0907 3.6587 4.256 4.8533-4.3307 6.72-4.3307 1.12 0 3.6587 1.6427 2.5387 1.6427 4.6294 3.9573 5.8987-5.6 8.1387-5.6 2.3147 0 6.8693 4.1813 4.6293 4.1067 4.6293 8.1387v14.411q0 3.808 0.89601 5.8987 0.896 2.0907 2.8373 3.6587l-8.2134 5.7493q-5.376-4.256-5.376-12.096v-16.576q0-1.2693-1.344-2.6133-1.344-1.4187-2.24-1.4187-0.82133 0-3.136 1.8667 0.14933 0.74667 0.14933 1.12zm52.445-20.235v2.688h-18.069q0 4.48 1.12 7.0934 0.37334 0.896 1.344 1.8667 0.97067 0.896 2.016 0.896 1.0453 0 2.6133-1.792 1.568-1.792 2.464-4.3307l7.6907 5.4507q-2.016 3.7333-6.1973 6.496-4.1067 2.7627-6.6454 2.7627t-7.392-3.9573q-4.7787-3.9573-5.824-6.1227-1.0453-2.24-1.0453-10.901 0-8.736 1.0453-10.901 1.0453-2.24 5.824-6.1974 4.8533-3.9573 7.0933-3.9573 2.24 0 7.0187 3.9573 4.8534 3.9573 5.8987 6.1974 1.0453 2.1653 1.0453 10.752zm-10.379-9.3334q-0.52267-1.0453-1.7173-2.016-1.12-0.97067-2.1653-0.97067-0.97067 0-2.24 2.016-1.2693 1.9413-1.568 5.8987h8.512q-0.224-3.9573-0.82133-4.928z" fill="#666" style="paint-order:stroke fill markers;text-orientation:upright;white-space:pre" aria-label="Time"/>
 <path transform="translate(-37.639 -50.704)" d="m471.58 574.37v-12.768q0-3.936 0.64-5.056t2.72-3.04q2.112-1.92 3.136-1.92 1.408 0 3.488 1.12t3.104 2.528l-3.552 2.464q-1.792-1.792-2.88-1.792-0.416 0-0.96 0.544-0.544 0.512-0.928 1.12-0.352 0.576-0.352 2.976v0.736h5.728v3.872h-5.728v9.216zm20.168-3.776q0.512 0.48 0.8 0.48t0.768-0.48q0.512-0.48 0.736-0.864 0.416-0.704 0.416-3.968t-0.416-4q-0.224-0.384-0.736-0.864-0.48-0.48-0.768-0.48t-0.8 0.48q-0.48 0.48-0.704 0.864-0.416 0.704-0.416 3.968t0.416 4q0.224 0.384 0.704 0.864zm3.68 2.592q-1.952 1.568-2.88 1.568t-2.912-1.568q-1.952-1.568-2.4-2.336-0.672-1.184-0.672-5.12t0.672-5.088q0.448-0.768 2.4-2.336 1.984-1.568 2.912-1.568t2.88 1.568q1.984 1.568 2.432 2.336 0.672 1.152 0.672 5.088t-0.672 5.12q-0.448 0.768-2.432 2.336zm11.368 1.184h-4.224v-11.04q0-1.632-0.416-2.528-0.384-0.928-1.184-1.6l3.52-2.464q1.152 0.96 1.76 2.24 2.368-2.24 3.328-2.24 0.64 0 1.952 1.184t1.536 2.592l-3.424 2.464q-0.032-0.768-0.384-1.504-0.32-0.736-0.576-0.736-0.544 0-1.888 1.344zm20.328 0h-4.224v-11.904q0-0.544-0.576-1.12-0.576-0.608-0.992-0.608-0.384 0-1.28 0.768v12.864h-4.224v-11.04q0-1.632-0.384-2.528t-1.216-1.568l3.52-2.464q1.056 0.896 1.568 1.824 2.08-1.856 2.88-1.856 0.48 0 1.568 0.704t1.984 1.696q2.528-2.4 3.488-2.4 0.992 0 2.944 1.792 1.984 1.76 1.984 3.488v6.176q0 1.632 0.384 2.528t1.216 1.568l-3.52 2.464q-2.304-1.824-2.304-5.184v-7.104q0-0.544-0.576-1.12-0.576-0.608-0.96-0.608-0.352 0-1.344 0.8 0.064 0.32 0.064 0.48zm23.24-17.248v13.12q0.192 1.12 1.504 1.984l-2.88 2.464q-0.416-0.288-1.024-1.024t-1.024-1.504q-2.656 2.592-3.712 2.592-0.768 0-2.496-1.696-1.696-1.696-2.112-2.752t-0.416-4.544q0-3.52 0.416-4.576t2.112-2.752q1.728-1.696 2.496-1.696 1.12 0 3.616 2.304l0.384-1.92zm-4.448 4.896q-0.224-0.416-0.928-0.832-0.672-0.448-1.024-0.448t-0.768 0.416q-0.384 0.416-0.512 0.768-0.416 0.576-0.416 3.84 0 3.232 0.416 3.808 0.128 0.32 0.512 0.768 0.416 0.416 0.768 0.416t1.024-0.416q0.704-0.448 0.896-0.8 0.224-0.352 0.256-3.744 0-3.392-0.224-3.776zm13.736-1.536v7.072q0 1.504 1.024 2.752t2.816 1.984l-3.52 2.464q-1.92-0.896-3.232-2.464-1.312-1.6-1.312-3.36v-8.448h-1.6v-2.4l1.6-0.384q-0.064-1.568-0.384-2.464-0.32-0.928-1.216-1.792l3.52-2.464q2.304 1.824 2.304 5.184v0.96h3.584v3.36zm6.92-3.36h4.224v11.072q0 1.632 0.384 2.528t1.216 1.568l-3.52 2.464q-2.304-1.824-2.304-5.184zm2.176-6.688q0.352 0 1.568 1.056 1.216 1.024 1.216 1.408 0 0.352-1.248 1.408-1.216 1.056-1.568 1.056-0.32 0-1.536-1.024-1.216-1.056-1.216-1.408 0-0.384 1.216-1.44 1.248-1.056 1.568-1.056zm18.088 11.488v2.752q0 3.84-0.416 4.768t-2.592 3.136q-2.144 2.176-3.168 2.176t-3.2-2.176q-2.176-2.208-2.592-3.168-0.384-0.96-0.384-4.736v-7.552h4.224v7.552q0 3.36 0.224 3.968 0.256 0.576 0.8 1.184 0.576 0.608 0.928 0.608t0.896-0.608q0.576-0.608 0.8-1.184 0.256-0.608 0.256-3.968v-1.376q0-1.632-0.384-2.528t-1.216-1.568l3.52-2.464q2.304 1.824 2.304 5.184zm15.016 3.776v1.152h-7.744q0 1.92 0.48 3.04 0.16 0.384 0.576 0.8 0.416 0.384 0.864 0.384t1.12-0.768 1.056-1.856l3.296 2.336q-0.864 1.6-2.656 2.784-1.76 1.184-2.848 1.184t-3.168-1.696q-2.048-1.696-2.496-2.624-0.448-0.96-0.448-4.672 0-3.744 0.448-4.672 0.448-0.96 2.496-2.656 2.08-1.696 3.04-1.696t3.008 1.696q2.08 1.696 2.528 2.656 0.448 0.928 0.448 4.608zm-4.448-4q-0.224-0.448-0.736-0.864-0.48-0.416-0.928-0.416-0.416 0-0.96 0.864-0.544 0.832-0.672 2.528h3.648q-0.096-1.696-0.352-2.112z" style="paint-order:stroke fill markers;text-orientation:upright;white-space:pre" aria-label="Formative"/>
 <path transform="translate(-119.14 147.22)" d="m446.63 59.828q-3.8281 0-7.4375-0.80208t-6.7448-2.3333q-3.099-1.5677-5.5417-3.7552l4.9583-8.0208q2.9167 2.5885 6.7813 4.0104 3.901 1.3854 8.0573 1.3854 4.7396 0 7.3646-1.6406 2.6615-1.6406 2.6615-4.6667v-0.18229q0-2.2604-1.349-3.4635-1.349-1.2396-3.5365-1.8229-2.1875-0.58333-4.7396-1.0208-3.0625-0.47396-6.1979-1.2031-3.099-0.72917-5.724-2.2604-2.625-1.5677-4.2292-4.4115-1.6042-2.8802-1.6042-7.6563v-0.10938q0-7.7292 5.0313-11.922 5.0677-4.2292 14.292-4.2292 4.4115 0 8.8229 1.5313 4.4115 1.5313 8.0938 4.375l-4.5573 8.2031q-2.9167-2.224-6.1615-3.3906-3.2448-1.2031-6.2344-1.2031-4.4844 0-6.9636 1.4948-2.4427 1.4948-2.4427 4.2292v0.14583q0 2.5156 1.4583 3.8281 1.4948 1.3125 3.8646 1.9688 2.4062 0.61979 5.1771 1.2031 2.9896 0.58333 5.9792 1.4583 2.9896 0.83854 5.4688 2.4427 2.4792 1.6042 3.9375 4.4115 1.4948 2.7708 1.4948 7.2188v0.21875q0 7.5833-5.25 11.776-5.2136 4.1927-14.729 4.1927zm33.813-21.109v-9.5886h16.734q2.6615 0 4.3021-1.7865 1.6771-1.7865 1.6771-4.7031v-0.21875q0-2.9896-1.6406-4.776-1.6406-1.7865-4.3386-1.7865h-16.734v-9.5886h16.479q4.9948 0 8.7136 2.0052 3.7188 2.0052 5.7604 5.6146 2.0781 3.6094 2.0781 8.4948v0.29167q0 4.849-2.0781 8.4583-2.0781 3.6094-5.7969 5.6146-3.7188 1.9688-8.6771 1.9688zm-4.5208 20.563v-53.011h9.9532v53.011zm38.734 0 20.016-53.011h6.3438l20.052 53.011h-10.719l-12.505-36.167-12.505 36.167zm9.6979-8.4948v-9.5886h27.453v9.5886zm59.188 9.0417q-6.0156 0-10.281-2.2969-4.2292-2.2969-6.4531-6.6719-2.224-4.375-2.224-10.573v-14.984q0-6.2344 2.224-10.573 2.224-4.375 6.4531-6.6719 4.2656-2.3333 10.281-2.3333 5.0313 0 8.8958 2.151 3.901 2.1146 6.4167 6.1979 2.5521 4.0833 3.5 9.9531h-10.318q-0.58334-2.6979-1.7865-4.5208-1.1667-1.8594-2.8802-2.8438-1.7135-0.98438-3.8281-0.98438-4.1198 0-6.3802 2.5521-2.2604 2.5156-2.2604 7.0729v14.984q0 4.5573 2.2604 7.0729 2.2604 2.5156 6.3802 2.5156 3.2448 0 5.4323-2.151 2.224-2.1875 3.0625-6.1979h10.318q-0.98437 5.8333-3.5365 9.9531-2.5156 4.0833-6.3802 6.2344-3.8646 2.1146-8.8958 2.1146zm28.089-0.54688v-53.011h9.9531v53.011zm3.6094 0v-9.5886h31.5v9.5886zm0-21.51v-9.625h27.563v9.625zm0-21.911v-9.5886h31.5v9.5886zm50.037 43.422v-48.672h9.9532v48.672zm-14.255-43.422v-9.5886h38.464v9.5886zm54.849-9.5886v53.011h-10.318v-53.011zm34.833 35.51 10.063-35.51h13.016v53.011h-9.0781v-41.016l0.40104 2.3333-10.063 32.667h-8.6771l-10.063-31.938 0.36458-3.0625v41.016h-9.0417v-53.011h13.016zm35.563 17.5v-53.011h9.9532v53.011zm3.6094 0v-9.5886h31.5v9.5886zm0-21.51v-9.625h27.563v9.625zm0-21.911v-9.5886h31.5v9.5886z" style="font-variation-settings:'wdth' 99.2, 'wght' 700;paint-order:stroke fill markers;text-orientation:upright;white-space:pre" aria-label="SPACETIME"/>
</svg>
