<svg width="234.54mm" height="98.79mm" version="1.1" viewBox="0 0 234.54 98.79" xml:space="preserve" xmlns="http://www.w3.org/2000/svg"><defs><clipPath id="clipPath46967-3"><path d="m300 300v6e3h2250v-6e3z" clip-rule="evenodd"/></clipPath><clipPath id="clipPath47039-5"><path d="m300 300v6e3h2250v-6e3z" clip-rule="evenodd"/></clipPath><clipPath id="clipPath47095-1"><path d="m2550 300v6e3h2250v-6e3z" clip-rule="evenodd"/></clipPath><clipPath id="clipPath47207-5"><path d="m2550 300v6e3h2250v-6e3z" clip-rule="evenodd"/></clipPath></defs><g transform="translate(-246.43)"><g transform="translate(272.09 -34.43)"><path d="m78.611 55.208-1.3547 1.3547 2.794 2.7517-1.4393 1.397-1.3123-1.397 2.794-2.7517-1.4817-1.3547" fill-rule="evenodd"/><g transform="matrix(0 .042333 .042333 0 -37.764 -29.925)"><g clip-path="url(#clipPath46967-3)"><path d="m2549 2746 35-35 35 35 69-71 39 40-34 34-35-34-70 70-39-39" fill-rule="evenodd"/></g></g><g fill="#7f47dd"><path d="m87.035 56.732c0-0.29633 0.254-0.508 0.55033-0.508s0.508 0.21167 0.508 0.508-0.21167 0.55033-0.508 0.55033-0.55033-0.254-0.55033-0.55033" fill-rule="evenodd"/><path d="m86.866 56.774v-0.0423l0.0423-0.127v-0.0423-0.0847c0.0423 0 0.0423 0 0.0423-0.0423l0.0423-0.0847 0.0847-0.0847v-0.0423l0.0847-0.0423 0.0423-0.0423 0.0847-0.0423h0.0423l0.0847-0.0423h0.127 0.0423 0.127 0.0423l0.0847 0.0423h0.0423l0.0847 0.0423v0.0423l0.0847 0.0423c0.0423 0 0.0423 0.0423 0.0423 0.0423l0.0423 0.0847h0.0423l0.0423 0.0847v0.0423l0.0423 0.0847v0.0423 0.127c0.0423 0 0.0423 0 0 0.0423v0.127l-0.0423 0.0847v0.0423l-0.0423 0.0847s0 0.0423-0.0423 0.0423l-0.0423 0.0847h-0.0423l-0.0847 0.0847-0.0847 0.0423-0.0423 0.0423h-0.0847c-0.0423 0-0.0423 0.0423-0.0423 0.0423h-0.127-0.0423-0.0847l-0.0423-0.0423h-0.0847l-0.0423-0.0423-0.0847-0.0423h-0.0423l-0.1694-0.1694v-0.0423l-0.0423-0.0847-0.0423-0.0423v-0.127zm0.381 0.0423v-0.0423 0.127-0.0423l0.0423 0.0847 0.0423 0.0423 0.0847 0.0423h-0.0423l0.0847 0.0423h-0.0423 0.127-0.0423l0.0847 0.0423h-0.0423l0.127-0.0423h-0.0423 0.127-0.0423l0.0847-0.0423h-0.0423l0.0847-0.0423h-0.0423l0.0847-0.0423 0.0423-0.0847-0.0423 0.0423 0.0423-0.127v0.0423-0.0847 0.0423-0.127 0.0423l-0.0423-0.0847h0.0423l-0.0423-0.0847v0.0423l-0.0847-0.0847 0.0423 0.0423-0.0847-0.0847 0.0423 0.0423-0.0847-0.0847 0.0423 0.0423-0.127-0.0423h0.0423-0.127 0.0423-0.0847 0.0423l-0.127 0.0423 0.0423-0.0423-0.0847 0.0847 0.0423-0.0423-0.0847 0.0847v-0.0423l-0.0423 0.0847v-0.0423l-0.0423 0.0847v0.0847-0.0423 0.127-0.0423"/><path d="m87.035 59.102c0-0.29633 0.254-0.55033 0.55033-0.55033 0.254 0 0.508 0.254 0.508 0.55033 0 0.29634-0.254 0.508-0.508 0.508-0.29633 0-0.55033-0.21166-0.55033-0.508" fill-rule="evenodd"/><path d="m86.866 59.102v-0.0423-0.127l0.0423-0.0847v-0.0423l0.0847-0.0847v-0.0423l0.1694-0.1694h0.0423l0.0847-0.0423s0-0.0423 0.0423-0.0423h0.0847s0-0.0423 0.0423-0.0423h0.0847 0.0423 0.127v0.0423h0.127s0 0.0423 0.0423 0.0423l0.0847 0.0423 0.0847 0.0847h0.0423l0.0423 0.0847 0.0423 0.0423 0.0423 0.0847v0.0423l0.0423 0.0847v0.127 0.0423 0.127 0.0423l-0.0423 0.0847v0.0423l-0.0423 0.0847h-0.0423l-0.0423 0.0847-0.0423 0.0423-0.0847 0.0423v0.0423l-0.0847 0.0423h-0.0423l-0.127 0.0423h-0.127-0.0423-0.0847-0.0423l-0.0847-0.0423h-0.0423l-0.0847-0.0423c-0.0423 0-0.0423 0-0.0423-0.0423l-0.0847-0.0423v-0.0423l-0.1694-0.1694v-0.0423l-0.0423-0.0847v-0.0423zm0.381 0.0847-0.0423-0.0423 0.0846 0.1694v-0.0423l0.0423 0.0847-0.0423-0.0423 0.0847 0.0847v-0.0423l0.0847 0.0847-0.0423-0.0423 0.0847 0.0423h0.0847-0.0423 0.127-0.0423l0.0847-0.0423v0.0423l0.0847-0.0847-0.0423 0.0423 0.0847-0.0847-0.0423 0.0423 0.0847-0.0847-0.0423 0.0423 0.0846-0.1694v0.0423-0.127 0.0423-0.0847 0.0423l-0.0423-0.127v0.0423l-0.0423-0.0847h0.0423l-0.0847-0.0423h0.0423l-0.0847-0.0423h0.0423l-0.0847-0.0423h-0.0847 0.0423l-0.127-0.0423h0.0423l-0.0847 0.0423h-0.0847 0.0423l-0.1694 0.0846h0.0423l-0.0423 0.0423-0.0423 0.0847v-0.0423l-0.0423 0.127 0.0423-0.0423-0.0423 0.0847v-0.0423"/></g><path d="m119.38 57.113-1.397 1.397 2.794 2.7517-1.397 1.3547-1.3123-1.397 2.7517-2.7093-1.4393-1.397" fill-rule="evenodd"/><g fill="#7f47dd"><path d="m129.28 58.679c0-0.29633 0.254-0.55033 0.55033-0.55033 0.29634 0 0.508 0.254 0.508 0.55033 0 0.254-0.21166 0.508-0.508 0.508-0.29633 0-0.55033-0.254-0.55033-0.508" fill-rule="evenodd"/><path d="m129.11 58.679v-0.0423l0.0423-0.0847v-0.0423l0.0423-0.127 0.0423-0.0847v-0.0423l0.1693-0.1693h0.0423l0.0847-0.0847h0.0423l0.0847-0.0423h0.0423 0.2963l0.0847 0.0423h0.0423l0.0847 0.0847h0.0423l0.1693 0.1693v0.0423l0.0423 0.0847 0.0423 0.127v0.0423l0.0423 0.0847v0.0423l-0.0423 0.0847v0.0423l-0.0423 0.127-0.0423 0.0847v0.0423l-0.1693 0.1693c-0.0423 0-0.0423 0-0.0423 0.0423l-0.0847 0.0423h-0.0423l-0.0847 0.0423h-0.2963-0.0423l-0.0847-0.0423h-0.0423l-0.0847-0.0423c0-0.0423 0-0.0423-0.0423-0.0423l-0.1693-0.1693v-0.0423l-0.0423-0.0847-0.0423-0.127v-0.0423zm0.381 0.0847v-0.0423l0.0423 0.0847-0.0423-0.0423 0.0423 0.127v-0.0423l0.0423 0.0847v-0.0423l0.0847 0.0847-0.0423-0.0423 0.0847 0.0423h-0.0423l0.127 0.0423h-0.0423 0.16933-0.0423l0.127-0.0423h-0.0423l0.0847-0.0423-0.0423 0.0423 0.0847-0.0847v0.0423l0.0423-0.0847v0.0423l0.0423-0.127-0.0423 0.0423 0.0423-0.0847v0.0423-0.127 0.0423-0.127 0.0423-0.0847 0.0423l-0.0846-0.1694v0.0423l-0.0847-0.0847 0.0423 0.0423-0.0847-0.0423h0.0423l-0.127-0.0423h0.0423-0.16933 0.0423l-0.127 0.0423h0.0423l-0.0847 0.0423 0.0423-0.0423-0.0847 0.0847v-0.0423l-0.0846 0.1694v-0.0423 0.0847-0.0423 0.127-0.0423"/><path d="m129.28 61.007c0-0.29633 0.254-0.508 0.55033-0.508 0.29634 0 0.508 0.21167 0.508 0.508 0 0.29634-0.21166 0.55034-0.508 0.55034-0.29633 0-0.55033-0.254-0.55033-0.55034" fill-rule="evenodd"/><path d="m129.11 61.05v-0.0423-0.127l0.0423-0.0423v-0.0847l0.0423-0.0423 0.0423-0.0847 0.0847-0.0847v-0.0423l0.0847-0.0423c0-0.0423 0.0423-0.0423 0.0423-0.0423l0.0847-0.0423h0.0423l0.0847-0.0423h0.127 0.0423 0.127l0.127 0.0423h0.0423l0.0847 0.0423v0.0423l0.0847 0.0423 0.0423 0.0423 0.0423 0.0847h0.0423l0.0423 0.0847v0.0423l0.0423 0.0847v0.0423 0.127 0.0423 0.127l-0.0423 0.0847v0.0423l-0.0423 0.0847s0 0.0423-0.0423 0.0423l-0.0423 0.0847h-0.0423l-0.0847 0.0847-0.0847 0.0423c-0.0423 0-0.0423 0.0423-0.0423 0.0423h-0.127v0.0423h-0.127-0.0423-0.0847l-0.0423-0.0423h-0.0847c-0.0423 0-0.0423-0.0423-0.0423-0.0423l-0.0847-0.0423h-0.0423l-0.1694-0.1694v-0.0423l-0.0423-0.0847c-0.0423 0-0.0423 0-0.0423-0.0423v-0.0847c-0.0423 0-0.0423-0.0423-0.0423-0.0423zm0.381 0.0423v-0.0423 0.127-0.0423l0.0423 0.0847 0.0846 0.0846 0.0847 0.0423h-0.0423 0.127-0.0423l0.0847 0.0423h-0.0423l0.127-0.0423h-0.0423 0.0847l0.0847-0.0423h-0.0423l0.0847-0.0423h-0.0423l0.0847-0.0423h-0.0423l0.0847-0.0847-0.0423 0.0423 0.0423-0.127v0.0423-0.0847 0.0423-0.127 0.0423l-0.0423-0.0847h0.0423l-0.0847-0.0847 0.0423 0.0423-0.0847-0.0847 0.0423 0.0423-0.0847-0.0847 0.0423 0.0423-0.0847-0.0847v0.0423l-0.0847-0.0423h0.0423-0.127 0.0423-0.0847 0.0423l-0.127 0.0423 0.0423-0.0423-0.0847 0.0847v-0.0423l-0.0423 0.0847v-0.0423l-0.0423 0.0847v-0.0423l-0.0846 0.1694 0.0423-0.0423-0.0423 0.127v-0.0423"/></g><g fill-rule="evenodd"><path d="m165.9 55.208-1.397 1.3547 2.794 2.7517-1.397 1.397-1.3547-1.397 2.794-2.7517-1.4393-1.3547"/><path d="m119.34 54.446-1.3547 1.3547 1.4393 1.4393 1.3547-1.4393-1.4393-1.3547"/><path d="m168.32 56.52-1.397 1.397 1.4817 1.397 1.3547-1.397-1.4393-1.397"/></g><g fill="#7f47dd"><path d="m129.33 56.181c0-0.29634 0.254-0.55034 0.55034-0.55034 0.29633 0 0.508 0.254 0.508 0.55034 0 0.29633-0.21167 0.508-0.508 0.508-0.29634 0-0.55034-0.21167-0.55034-0.508" fill-rule="evenodd"/><path d="m129.16 56.181v-0.0423l0.0423-0.0847v-0.12697c0.0423-0.04233 0.0423-0.04233 0.0423-0.04233l0.0423-0.08467v-0.04233l0.1694-0.16934h0.0423l0.0847-0.04233 0.0423-0.04233h0.0847l0.0423-0.04233h0.0847 0.0423 0.127s0 0.04233 0.0423 0.04233h0.0847s0 0.04233 0.0423 0.04233l0.0847 0.04233 0.0847 0.08467h0.0423l0.0423 0.08467c0.0423 0 0.0423 0.04233 0.0423 0.04233l0.0423 0.08467v0.04233l0.0423 0.08467v0.127c0.0423 0.0423 0.0423 0.0423 0 0.0423v0.127 0.0423l-0.0423 0.0847v0.0423l-0.0423 0.0847h-0.0423l-0.0423 0.0847s0 0.0423-0.0423 0.0423l-0.0847 0.0423v0.0423l-0.0847 0.0423h-0.0423l-0.0847 0.0423h-0.0423-0.127-0.0423-0.127l-0.0847-0.0423h-0.0423l-0.0847-0.0423-0.0423-0.0423-0.0847-0.0423v-0.0423l-0.0847-0.0847-0.0423-0.0847c0-0.0423 0-0.0423-0.0423-0.0423v-0.0847-0.0423zm0.381 0.0847v-0.0423 0.0847l0.0423 0.0847v-0.0423l0.0423 0.0847v-0.0423l0.0847 0.0847-0.0423-0.0423 0.0847 0.0847-0.0423-0.0423 0.127 0.0423h-0.0423 0.0847-0.0423 0.127-0.0423l0.0847-0.0423v0.0423l0.0847-0.0847-0.0423 0.0423 0.0847-0.0847-0.0423 0.0423 0.0847-0.0847v0.0423l0.0423-0.0847h-0.0423l0.0423-0.0847v0.0423-0.127 0.0423-0.0847 0.0423l-0.0423-0.127 0.0423 0.0423-0.0423-0.0847-0.0847-0.04233h0.0423l-0.0847-0.04233h0.0423l-0.0847-0.04233h-0.0847 0.0423l-0.127-0.04233h0.0423l-0.0847 0.04233h0.0423-0.127 0.0423l-0.0847 0.04233h0.0423l-0.0847 0.04233-0.0423 0.04233-0.0423 0.0847v-0.0423 0.127-0.0423 0.0847-0.0423"/><path d="m175.81 56.689 3.0057 1.524c0.16933 0.0847 0.254 0.21166 0.21166 0.381 0 0.127-0.0847 0.254-0.21166 0.33866l-3.0903 1.3123-0.29633-0.71966 3.048-1.3123v0.71966l-3.048-1.5663"/></g><path d="m75.69 70.151 1.397 1.397 2.7093-2.794 1.397 1.397-1.397 1.3123-2.7093-2.7517-1.397 1.4393" fill-rule="evenodd"/><g fill="#7f47dd"><path d="m86.273 70.194c0-0.29634 0.254-0.55034 0.508-0.55034 0.29633 0 0.55033 0.254 0.55033 0.55034 0 0.254-0.254 0.508-0.55033 0.508-0.254 0-0.508-0.254-0.508-0.508" fill-rule="evenodd"/><path d="m86.104 70.194v-0.127-0.0423l0.0423-0.127 0.0423-0.0847 0.0423-0.0423 0.0423-0.0847h0.0423l0.0847-0.0847h0.0423l0.0847-0.0847 0.127-0.0423h0.0423 0.2117 0.0423l0.127 0.0423 0.0847 0.0847h0.0423l0.2117 0.2117 0.0423 0.0847 0.0423 0.127v0.0423 0.254l-0.0846 0.254h-0.0423l-0.0847 0.0847v0.0423l-0.0847 0.0423s0 0.0423-0.0423 0.0423l-0.0847 0.0423-0.127 0.0423h-0.0423-0.2117-0.0423l-0.127-0.0423-0.0847-0.0423c-0.0423 0-0.0423-0.0423-0.0423-0.0423l-0.0847-0.0423s0-0.0423-0.0423-0.0423l-0.0423-0.0847h-0.0423l-0.0846-0.254zm0.33867 0.0847v-0.0423l0.0846 0.1694-0.0423-0.0423 0.0847 0.0847-0.0423-0.0423 0.0847 0.0847-0.0423-0.0423 0.127 0.0423h-0.0423l0.0847 0.0423h-0.0423 0.127-0.0423 0.127-0.0423l0.0847-0.0423h-0.0423l0.127-0.0423-0.0423 0.0423 0.0847-0.0847-0.0423 0.0423 0.0847-0.0847-0.0423 0.0423 0.0846-0.1694v0.0423-0.127 0.0423-0.0847l-0.0423-0.0847v0.0423l-0.0423-0.0847h0.0423l-0.0847-0.0847 0.0423 0.0423-0.0847-0.0847 0.0423 0.0423-0.127-0.0423h0.0423l-0.0847-0.0423 0.0423 0.0423-0.127-0.0423h0.0423l-0.127 0.0423 0.0423-0.0423-0.0847 0.0423h0.0423l-0.127 0.0423 0.0423-0.0423-0.0847 0.0847 0.0423-0.0423-0.0847 0.0847h0.0423l-0.0423 0.0847v-0.0423l-0.0423 0.0847v0.0847-0.0423"/><path d="m88.517 70.151c0-0.254 0.254-0.508 0.55034-0.508 0.29633 0 0.508 0.254 0.508 0.508 0 0.29634-0.21167 0.55034-0.508 0.55034-0.29634 0-0.55034-0.254-0.55034-0.55034" fill-rule="evenodd"/><path d="m88.347 70.194v-0.127c0-0.0423 0-0.0423 0.0423-0.0423v-0.127h0.0423l0.0423-0.0847v-0.0423l0.0847-0.0847v-0.0423l0.0847-0.0423s0.0423 0 0.0423-0.0423l0.0847-0.0423h0.0423l0.0847-0.0423h0.127 0.0423 0.127l0.127 0.0423h0.0423l0.0847 0.0423v0.0423l0.0847 0.0423c0 0.0423 0.0423 0.0423 0.0423 0.0423l0.0423 0.0847s0.0423 0 0.0423 0.0423l0.0423 0.0847 0.0423 0.127v0.0423 0.2117 0.0423l-0.0423 0.127-0.0423 0.0847c0 0.0423-0.0423 0.0423-0.0423 0.0423l-0.0423 0.0847h-0.0423l-0.0847 0.0847v0.0423l-0.0847 0.0423h-0.0423l-0.127 0.0423h-0.127-0.0423-0.127l-0.0847-0.0423h-0.0423l-0.0847-0.0423c0-0.0423-0.0423-0.0423-0.0423-0.0423l-0.1694-0.1694v-0.0423l-0.0423-0.0847h-0.0423v-0.127c-0.0423 0-0.0423 0-0.0423-0.0423zm0.381 0.0847v-0.0423 0.0847-0.0423l0.0423 0.127v-0.0423l0.0423 0.0847v-0.0423l0.0423 0.0847v-0.0423l0.0847 0.0423h-0.0423l0.127 0.0423h-0.0423 0.0847-0.0423 0.127-0.0423l0.1694-0.0846-0.0423 0.0423 0.0847-0.0847-0.0423 0.0423 0.0847-0.0847-0.0423 0.0423 0.0847-0.127-0.0423 0.0423 0.0423-0.0847v0.0423-0.127 0.0423-0.127 0.0423l-0.0423-0.0847 0.0423 0.0423-0.0847-0.127 0.0423 0.0423-0.0847-0.0847 0.0423 0.0423-0.0847-0.0847 0.0423 0.0423-0.1694-0.0846h0.0423-0.127 0.0423-0.0847 0.0423l-0.127 0.0423h0.0423l-0.0847 0.0423v-0.0423l-0.0423 0.0847v-0.0423l-0.0423 0.0847v-0.0423l-0.0423 0.127v-0.0423 0.0847-0.0423l-0.0423 0.127v-0.0423"/><path d="m127.55 70.575c0-0.29634 0.254-0.55034 0.508-0.55034 0.29634 0 0.55034 0.254 0.55034 0.55034 0 0.29633-0.254 0.508-0.55034 0.508-0.254 0-0.508-0.21167-0.508-0.508" fill-rule="evenodd"/><path d="m127.38 70.575v-0.0423-0.127l0.0423-0.0847v-0.0423l0.0423-0.0847c0.0423 0 0.0423 0 0.0423-0.0423l0.0423-0.0847h0.0423l0.0847-0.0847h0.0423l0.0847-0.0423v-0.0423h0.127 0.0423l0.0847-0.0423h0.0423l0.0847 0.0423h0.0423 0.127v0.0423l0.0847 0.0423h0.0423l0.1694 0.1694s0 0.0423 0.0423 0.0423l0.0423 0.0847v0.0423l0.0423 0.0847v0.127 0.0423 0.127 0.0423l-0.0423 0.0847v0.0423l-0.0423 0.0847c-0.0423 0-0.0423 0-0.0423 0.0423l-0.0847 0.0423v0.0423l-0.0847 0.0423c0 0.0423 0 0.0423-0.0423 0.0423l-0.0847 0.0423-0.127 0.0423h-0.0423-0.0847c0 0.0423-0.0423 0.0423-0.0423 0h-0.0847-0.0423l-0.127-0.0423-0.0847-0.0423c-0.0423 0-0.0423 0-0.0423-0.0423l-0.0847-0.0423-0.0423-0.0423-0.0423-0.0847h-0.0423l-0.0423-0.0847v-0.0423l-0.0423-0.0847v-0.0423zm0.33867 0.0847v-0.0423l0.0846 0.1694-0.0423-0.0423 0.0847 0.0847-0.0423-0.0423 0.0847 0.0847h-0.0423l0.127 0.0423-0.0423-0.0423 0.0847 0.0423h-0.0423 0.127-0.0423 0.127-0.0423l0.0847-0.0423-0.0423 0.0423 0.127-0.0423h-0.0423l0.0847-0.0423h-0.0423l0.0847-0.0847-0.0423 0.0423 0.0846-0.1694v0.0423-0.127 0.0423-0.0847 0.0423l-0.0423-0.127v0.0423l-0.0423-0.0847 0.0423 0.0423-0.0847-0.0847h0.0423l-0.0847-0.0423h0.0423l-0.127-0.0423h0.0423-0.0847 0.0423-0.127 0.0423-0.127 0.0423-0.0847 0.0423l-0.127 0.0423h0.0423l-0.0847 0.0423h0.0423l-0.0847 0.0847 0.0423-0.0423-0.0423 0.0847v-0.0423l-0.0423 0.127v-0.0423 0.0847-0.0423"/><path d="m129.79 70.575c0-0.29634 0.254-0.55034 0.55033-0.55034 0.29634 0 0.508 0.254 0.508 0.55034 0 0.29633-0.21166 0.508-0.508 0.508-0.29633 0-0.55033-0.21167-0.55033-0.508" fill-rule="evenodd"/><path d="m129.62 70.575v-0.0423-0.0847s0-0.0423 0.0423-0.0423v-0.0847c0-0.0423 0-0.0423 0.0423-0.0423l0.0423-0.0847v-0.0423l0.1694-0.1694h0.0423l0.0847-0.0423c0-0.0423 0-0.0423 0.0423-0.0423l0.0847-0.0423h0.127 0.0423 0.127 0.0423l0.0847 0.0423 0.0423 0.0423 0.0847 0.0423 0.0847 0.0847h0.0423l0.0423 0.0847 0.0423 0.0423 0.0423 0.0847v0.0423l0.0423 0.0847v0.127 0.0423 0.127l-0.0423 0.127v0.0423l-0.0423 0.0847h-0.0423l-0.0423 0.0847-0.0423 0.0423-0.0847 0.0423v0.0423l-0.0847 0.0423h-0.0423l-0.0847 0.0423h-0.0423-0.127-0.0423-0.127l-0.0847-0.0423h-0.0423l-0.0847-0.0423-0.0423-0.0423-0.0847-0.0423v-0.0423l-0.0847-0.0847-0.0423-0.0847-0.0423-0.0423v-0.127h-0.0423zm0.381 0.0847v-0.0423 0.0847l0.0423 0.0847v-0.0423l0.0423 0.0847v-0.0423l0.0423 0.0847v-0.0423l0.0847 0.0847-0.0423-0.0423 0.127 0.0423h-0.0423 0.0847-0.0423 0.127-0.0423l0.0847-0.0423v0.0423l0.0847-0.0847-0.0423 0.0423 0.0847-0.0847-0.0423 0.0423 0.0847-0.0847-0.0423 0.0423 0.0847-0.0847h-0.0423l0.0423-0.0847v0.0423-0.127 0.0423-0.0847l-0.0423-0.0847 0.0423 0.0423-0.0847-0.0847h0.0423l-0.0847-0.0423h0.0423l-0.0847-0.0423h0.0423l-0.1694-0.0846 0.0423 0.0423-0.127-0.0423h0.0423l-0.0847 0.0423 0.0423-0.0423-0.127 0.0423h0.0423l-0.0847 0.0423-0.0846 0.0846-0.0423 0.0847v-0.0423 0.0847l-0.0423 0.0847v-0.0423"/></g><g><path d="m168.4 67.315 1.3547 1.397-2.794 2.7517 1.4393 1.397 1.3123-1.4393-2.794-2.7093 1.4817-1.397" fill-rule="evenodd"/><path d="m165.94 68.67 1.397 1.3547-1.4817 1.4393-1.3547-1.4393 1.4393-1.3547" fill-rule="evenodd"/><path d="m178.77 69.516-3.048 1.524v-0.71966l3.0903 1.3123-0.33867 0.762-3.048-1.3547c-0.16933-0.0423-0.254-0.16933-0.254-0.33866 0-0.16934 0.0847-0.29634 0.21167-0.381l3.0057-1.524" fill="#7f47dd"/><g fill-rule="evenodd"><path d="m118.02 70.532 1.3547 1.397 2.7517-2.794 1.397 1.397-1.397 1.3547-2.7517-2.794-1.3547 1.4393"/><path d="m116.71 69.178-1.397 1.3547 1.4817 1.4393 1.3547-1.4393-1.4393-1.3547"/><path d="m132.16 70.575c0-0.29634 0.254-0.55034 0.55033-0.55034s0.508 0.254 0.508 0.55034c0 0.29633-0.21167 0.508-0.508 0.508s-0.55033-0.21167-0.55033-0.508" fill="#7f47dd"/></g><path d="m131.99 70.575v-0.0423-0.127l0.0423-0.0847v-0.0423l0.0847-0.0847v-0.0423l0.1694-0.1694h0.0423l0.0847-0.0423 0.0423-0.0423h0.0847 0.0423l0.0847-0.0423h0.0423l0.127 0.0423h0.127c0 0.0423 0 0.0423 0.0423 0.0423l0.0847 0.0423 0.0847 0.0847h0.0423l0.0423 0.0847c0 0.0423 0.0423 0.0423 0.0423 0.0423l0.0423 0.0847v0.0423l0.0423 0.0847v0.127 0.0423 0.127 0.0423l-0.0423 0.0847v0.0423l-0.0423 0.0847h-0.0423l-0.0423 0.0847c0 0.0423-0.0423 0.0423-0.0423 0.0423l-0.0847 0.0423v0.0423l-0.0847 0.0423h-0.0423l-0.127 0.0423h-0.127c0 0.0423 0 0.0423-0.0423 0h-0.0847-0.0423l-0.0847-0.0423h-0.0423l-0.0847-0.0423c-0.0423 0-0.0423 0-0.0423-0.0423l-0.0847-0.0423v-0.0423l-0.0847-0.0423v-0.0423l-0.0847-0.0847v-0.0423l-0.0423-0.0847v-0.0423zm0.381 0.0847-0.0423-0.0423 0.0846 0.1694-0.0423-0.0423 0.127 0.127 0.0847 0.0423-0.0423-0.0423 0.0847 0.0423h0.0847-0.0423 0.127-0.0423l0.0847-0.0423v0.0423l0.0847-0.0423h-0.0423l0.0847-0.0847-0.0423 0.0423 0.0847-0.0847-0.0423 0.0423 0.0846-0.1694v0.0423-0.127 0.0423-0.0847 0.0423l-0.0423-0.127v0.0423l-0.0423-0.0847 0.0423 0.0423-0.0847-0.0847h0.0423l-0.0847-0.0423h0.0423l-0.0847-0.0423h-0.0847 0.0423-0.127 0.0423-0.16933 0.0423l-0.1694 0.0846h0.0423l-0.0847 0.0847 0.0423-0.0423-0.0423 0.0847v-0.0423l-0.0423 0.127 0.0423-0.0423-0.0423 0.0847v-0.0423" fill="#7f47dd"/></g><g transform="matrix(0 .042333 .042333 0 -37.764 -29.925)"><g clip-path="url(#clipPath47039-5)"><path d="m1734 696c-3 0-4 2-4 4v4712c0 2 1 4 4 4h1905c3 0 5-2 5-4v-4712c0-2-2-4-5-4zm1905 9-4-5v4712l4-5h-1905l4 5v-4712l-4 5"/></g></g><g fill-rule="evenodd"><path d="m78.738 113.67 2.0743-2.1167-0.127-0.21167-3.429 3.429 3.1327 3.175-2.794 2.5823-0.0847-0.16934 1.2277-1.2277-1.3123-1.397 2.7517-2.7093-1.4393-1.3547"/><path d="m79.33 106.47-2.0743 2.1167 0.127 0.21166 3.4713-3.429-2.9633-3.0057 1.4393-1.397 1.3123 1.397-2.794 2.7517 1.4817 1.3547"/><path d="m78.78 90.979 2.0743-2.1167-0.127-0.21167-3.4713 3.4713 2.921 3.0057-1.397 1.3547-1.3547-1.397 2.794-2.7093-1.4393-1.397"/></g><g transform="matrix(0 .042333 .042333 0 -37.764 -29.925)"><g clip-path="url(#clipPath47095-1)"><path d="m2549 2746 35-35 35 35 69-71 39 40-34 34-35-34-70 70-39-39" fill-rule="evenodd"/></g></g><g fill-rule="evenodd"><path d="m40.638 90.81-2.8787 2.8363 1.5663 1.651-1.4393 1.397 0.16933 0.0847 2.8787-2.7517-1.6087-1.651 1.4393-1.4393-0.127-0.127"/><path d="m36.531 118.12-2.0743 2.0743-0.254-0.127 3.429-3.429 3.175 3.1327 2.6247-2.794-0.21167-0.0847-1.2277 1.2277-1.3547-1.3123-2.7093 2.7517-1.397-1.4393"/><path d="m41.992 104.78-2.8363 2.921-1.651-1.6087-1.397 1.4393-0.127-0.127 2.794-2.921 1.6087 1.6087 1.4393-1.4393 0.16933 0.127"/></g><g fill="#7f47dd"><path d="m50.544 91.784-0.29634 0.127-0.254 0.127-0.254 0.0847-0.21166 0.127-0.33867 0.254-0.0847 0.127-0.0847 0.0847 0.0423-0.0423-0.0847 0.127 0.0423-0.0847-0.0423 0.16933v-0.0847 0.127-0.0847l0.0423 0.127-0.0423-0.0847 0.0847 0.16934-0.0423-0.0847 0.127 0.16933-0.0423-0.0423 0.127 0.127 0.16934 0.127 0.16933 0.0423 0.16933 0.127 0.16934 0.0847 0.127 0.127 0.16933 0.127 0.2541 0.381 0.0423 0.0423v0.127c0.0423 0 0.0423 0.0423 0.0423 0.0423v0.0847 0.127 0.16934c0 0.0423 0 0.0847-0.0423 0.0847l-0.0423 0.21167c-0.0423 0-0.0423 0.0423-0.0423 0.0847l-0.127 0.16933-0.0423 0.0423-0.16933 0.16934-0.21167 0.21166-0.254 0.16934-0.29633 0.16933-0.29633 0.127-0.29634 0.16933-0.59266 0.21167-0.29634-0.71967 0.55034-0.21166 0.29633-0.127 0.254-0.127 0.21167-0.16934 0.21166-0.127 0.127-0.127 0.16934-0.16933-0.0423 0.0423 0.127-0.16933-0.0423 0.0847 0.0847-0.16934-0.0423 0.0847 0.0423-0.16933v0.0847l-0.0423-0.0847 0.0423 0.0847-0.0423-0.127v0.0847-0.0423l-0.0423-0.0847-0.2117-0.2117-0.127-0.0847-0.16933-0.0847-0.21167-0.127-0.254-0.16933-0.16933-0.127c0-0.0423-0.0423-0.0423-0.0423-0.0423l-0.127-0.16933-0.0423-0.0423-0.0847-0.16934c0-0.0423 0-0.0423-0.0423-0.0847v-0.16934c-0.0423 0-0.0423-0.0423-0.0423-0.0847v-0.16934s0.0423-0.0423 0.0423-0.0847l0.0423-0.127v-0.0847l0.0847-0.16933 0.0423-0.0423 0.127-0.21166 0.21166-0.16934 0.16934-0.16933 0.254-0.127 0.254-0.16933 0.254-0.127 0.33866-0.127 0.29634-0.0847"/><path d="m88.517 79.168 0.21167 0.254 0.16933 0.254 0.16934 0.254 0.16933 0.254 0.127 0.21167 0.1694 0.508v0.21167 0.0847 0.16934 0.0847l-0.0423 0.127c0 0.0423-0.0423 0.0847-0.0423 0.127l-0.0847 0.127s-0.0423 0.0423-0.0423 0.0847l-0.127 0.0847c0 0.0423-0.0423 0.0423-0.0423 0.0847l-0.16933 0.0847s-0.0423 0-0.0423 0.0423l-0.21167 0.0423c0 0.0423-0.0423 0.0423-0.0423 0.0423l-0.21167 0.0423h-0.889l-0.127 0.0423h-0.0847l-0.1694 0.0846-0.0423 0.0423 0.0847-0.0847-0.127 0.127 0.0847-0.0847-0.0847 0.16934 0.0423-0.127-0.0423 0.21166v-0.0847 0.21166-0.0847l0.0423 0.254 0.0847 0.16933 0.127 0.21167 0.127 0.254 0.127 0.21166 0.16934 0.254 0.381 0.46567-0.635 0.508-0.381-0.508-0.21167-0.29633-0.16933-0.254-0.127-0.29634-0.16934-0.254-0.0847-0.29633-0.0423-0.254v-0.0423l-0.0423-0.21167v-0.0847l0.0423-0.21166s0-0.0423 0.0423-0.0847l0.0847-0.16933c0-0.0423 0.0423-0.0847 0.0423-0.127l0.16933-0.127 0.0423-0.0423 0.127-0.0847 0.16934-0.0847 0.33866-0.0846h0.16934l0.21166-0.0423h0.21167l0.127 0.0423 0.42333-0.0846-0.0423 0.0423 0.16933-0.0847-0.0847 0.0423 0.16933-0.0847-0.0847 0.0423 0.0847-0.0847-0.0423 0.0847 0.0847-0.16933-0.0423 0.127 0.0423-0.16933-0.0423 0.0847 0.0423-0.16933v0.0847l-0.0423-0.127v-0.16934l-0.0847-0.16933-0.0847-0.21167-0.127-0.21166-0.16934-0.21167-0.16933-0.21167-0.21167-0.254"/><path d="m87.204 95.467c0-0.29634 0.254-0.508 0.508-0.508 0.29633 0 0.55033 0.21166 0.55033 0.508 0 0.29633-0.254 0.55033-0.55033 0.55033-0.254 0-0.508-0.254-0.508-0.55033" fill-rule="evenodd"/><path d="m87.035 95.509v-0.0423-0.127-0.0423l0.0423-0.0847v-0.0423l0.0423-0.0847h0.0423l0.0423-0.0847 0.0423-0.0423 0.0847-0.0423c0-0.0423 0-0.0423 0.0423-0.0423l0.0847-0.0423 0.127-0.0423h0.0423 0.0847c0-0.0423 0.0423-0.0423 0.0423 0h0.0847 0.0423l0.127 0.0423 0.0847 0.0423c0.0423 0 0.0423 0 0.0423 0.0423l0.0847 0.0423 0.0423 0.0423 0.0423 0.0847 0.0847 0.0847v0.0423l0.0423 0.0847v0.0423 0.127 0.0423 0.127l-0.0423 0.0847v0.0423l-0.0847 0.0847v0.0423l-0.0423 0.0847h-0.0423l-0.0847 0.0847h-0.0423l-0.0847 0.0423v0.0423h-0.127-0.0423l-0.0847 0.0423h-0.0423l-0.0847-0.0423h-0.0423-0.127v-0.0423l-0.0847-0.0423h-0.0423l-0.0847-0.0847h-0.0423l-0.0423-0.0847s0-0.0423-0.0423-0.0423l-0.0423-0.0847v-0.0423l-0.0423-0.0847v-0.0423zm0.33866 0.0423v-0.0423l0.0423 0.127v-0.0423l0.0423 0.0847-0.0423-0.0423 0.0847 0.0847h-0.0423l0.0847 0.0423h-0.0423l0.127 0.0423h-0.0423 0.0847-0.0423 0.127-0.0423 0.127-0.0423 0.0847-0.0423l0.1694-0.0846h-0.0423l0.0847-0.0847-0.0423 0.0423 0.0423-0.0847v0.0423l0.0423-0.127v0.0423-0.0847 0.0423-0.127 0.0423l-0.0846-0.1694 0.0423 0.0423-0.0847-0.0847 0.0423 0.0423-0.0847-0.0847-0.0847-0.0423 0.0423 0.0423-0.0847-0.0423h0.0423-0.127 0.0423-0.127 0.0423l-0.0847 0.0423 0.0423-0.0423-0.127 0.0423h0.0423l-0.0847 0.0847 0.0423-0.0423-0.0847 0.0847 0.0423-0.0423-0.0846 0.1694v-0.0423 0.127-0.0423"/><path d="m88.94 90.683-0.29634 0.127-0.59266 0.33867-0.254 0.21166-0.21167 0.21167-0.21167 0.254-0.16933 0.21167 0.0423-0.0423-0.127 0.254v0.0847l-0.0423 0.0847 0.0423-0.0423-0.0423 0.0847v-0.0423l0.0423 0.127-0.0423-0.0847 0.0423 0.127-0.0423-0.0847 0.0847 0.0847-0.0423-0.0423 0.0847 0.0847-0.0847-0.0423 0.127 0.0847-0.0847-0.0423 0.127 0.0847-0.0423-0.0423 0.16934 0.0847h0.127l0.33866 0.0846h0.508l0.29634-0.0423 0.0847 0.80433-0.381 0.0423h-0.29633l-0.29633-0.0423h-0.254l-0.254-0.0847-0.21167-0.0423-0.127-0.0847h-0.0423l-0.127-0.0847c-0.0423 0-0.0423-0.0423-0.0423-0.0423l-0.127-0.0847-0.0423-0.0423-0.0847-0.127s-0.0423 0-0.0423-0.0423l-0.0423-0.0847c0-0.0423-0.0423-0.0423-0.0423-0.0847l-0.0423-0.127v-0.3386-0.0847l0.0846-0.33866 0.127-0.254 0.0423-0.0423 0.21167-0.29633 0.254-0.29633 0.29633-0.29634 0.29633-0.254 0.33867-0.21166 0.33867-0.16934 0.33866-0.127"/><path d="m88.347 102.07c0 0.29634-0.21167 0.508-0.508 0.508s-0.55033-0.21166-0.55033-0.508c0-0.29633 0.254-0.55033 0.55033-0.55033s0.508 0.254 0.508 0.55033" fill-rule="evenodd"/><g><path d="m88.517 102.03c0.0423 0.0423 0.0423 0.0423 0 0.0423v0.127 0.0423l-0.0423 0.0847v0.0423l-0.0423 0.0847-0.0846 0.0846c0 0.0423 0 0.0423-0.0423 0.0423l-0.0846 0.0846-0.0847 0.0423h-0.0423l-0.0847 0.0423h-0.0423l-0.127 0.0423h-0.0423l-0.0847-0.0423h-0.0423l-0.0847-0.0423h-0.0423l-0.0847-0.0423s-0.0423 0-0.0423-0.0423l-0.0847-0.0423v-0.0423l-0.0847-0.0423v-0.0423l-0.0423-0.0847-0.0423-0.0423v-0.0847c0-0.0423-0.0423-0.0423-0.0423-0.0423v-0.127-0.0423-0.0847l0.0423-0.0423v-0.0847l0.0423-0.0423 0.0423-0.0847v-0.0423l0.1694-0.1694h0.0423l0.0847-0.0423 0.0423-0.0423h0.127l0.0847-0.0423h0.0423l0.127 0.0423h0.0423 0.0847c0 0.0423 0 0.0423 0.0423 0.0423l0.0847 0.0423h0.0423l0.0423 0.0847h0.0423l0.0423 0.0847c0.0423 0 0.0423 0.0423 0.0423 0.0423l0.0423 0.0847v0.0423l0.0423 0.0847v0.0423zm-0.33866-0.0423v0.0423l-0.0423-0.127 0.0423 0.0423-0.0423-0.0847v0.0423l-0.0423-0.0847-0.0847-0.0423h0.0423l-0.0847-0.0423h-0.0847 0.0423-0.127 0.0423-0.0847 0.0423-0.127 0.0423l-0.0847 0.0423h0.0423l-0.0847 0.0423-0.0423 0.0847v-0.0423l-0.0423 0.0847v-0.0423 0.127-0.0423l-0.0423 0.0847v-0.0423l0.0423 0.127v-0.0423 0.127-0.0423l0.0423 0.0847v-0.0423l0.0423 0.0847 0.0847 0.0423h-0.0423l0.0847 0.0423-0.0423-0.0423 0.127 0.0423h-0.0423 0.0847-0.0423 0.127-0.0423l0.0847-0.0423v0.0423l0.0847-0.0423h-0.0423l0.0847-0.0423h-0.0423l0.0847-0.0847v0.0423l0.0423-0.0847-0.0423 0.0423 0.0423-0.127v0.0423-0.127 0.0423"/><path d="m86.612 106.85 0.33867-0.127 0.254-0.16933 0.29633-0.16934 0.254-0.21166 0.21167-0.21167 0.21167-0.254 0.16933-0.21167 0.0847-0.21166v0.0423l0.0423-0.127v-0.0847 0.0423-0.0847 0.0423-0.127 0.0847l-0.0423-0.127 0.0423 0.0847-0.0423-0.0847 0.0423 0.0423-0.0847-0.0847 0.0423 0.0423-0.0847-0.0847 0.0423 0.0423-0.127-0.0847-0.0847-0.0423h-0.16934l-0.127-0.0423-0.21166-0.0423h-0.508l-0.29634 0.0423-0.0423-0.80433 0.33867-0.0423h0.29633l0.29633 0.0423h0.254l0.254 0.0847 0.21167 0.0423 0.21167 0.0847 0.127 0.0847s0 0.0423 0.0423 0.0423l0.0847 0.0847c0.0423 0 0.0423 0.0423 0.0423 0.0423l0.0847 0.0847c0.0423 0.0423 0.0423 0.0423 0.0423 0.0847l0.0423 0.0847c0.0423 0.0423 0.0423 0.0423 0.0423 0.0847l0.0423 0.127v0.1693c0.0423 0 0.0423 0.0423 0.0423 0.0423l-0.0423 0.127v0.0847l-0.0423 0.16933-0.0423 0.127v0.0423l-0.16933 0.29634-0.21167 0.29633-0.508 0.59267-0.33866 0.254-0.33867 0.21166-0.33867 0.16934-0.33866 0.127"/><path d="m47.369 107.45 0.127-0.29634 0.127-0.29633 0.127-0.254 0.33866-0.508 0.16934-0.16933 0.16933-0.16934 0.21167-0.16933h0.0423l0.16933-0.0847s0.0423-0.0423 0.0847-0.0423l0.127-0.0423h0.0847 0.16933c0.0423 0 0.0423 0 0.0847 0.0423l0.16933 0.0423h0.0847l0.127 0.0847c0.0423 0.0423 0.0423 0.0423 0.0847 0.0423l0.127 0.127c0.0423 0.0423 0.0423 0.0423 0.0423 0.0847l0.16933 0.16933 0.16933 0.254 0.0847 0.21167 0.0847 0.16933 0.0847 0.127 0.0847 0.0847 0.0423 0.0847 0.0847 0.0423 0.0846 0.0846-0.0423-0.0423 0.0847 0.0423-0.0423-0.0423 0.0847 0.0423h-0.0847l0.16933-0.0423-0.127 0.0423 0.21167-0.0847-0.0847 0.0423 0.16933-0.0847-0.0423 0.0423 0.16933-0.16933 0.127-0.16934 0.127-0.16933 0.16934-0.254 0.127-0.21167 0.127-0.254 0.254-0.55033 0.71966 0.29633-0.254 0.59267-0.16933 0.29633-0.127 0.254-0.16933 0.29634-0.21167 0.254-0.21167 0.21166-0.16933 0.16934s-0.0423 0-0.0423 0.0423l-0.16934 0.0847c-0.0423 0.0423-0.0423 0.0423-0.0847 0.0423l-0.16934 0.0847h-0.127-0.16933-0.127-0.0847s-0.0423 0-0.0423-0.0423h-0.0847c-0.0423-0.0423-0.0423-0.0423-0.0847-0.0423l-0.254-0.1694-0.127-0.127-0.0847-0.127-0.127-0.16934-0.0847-0.16933-0.127-0.16933-0.0423-0.127-0.127-0.21167-0.127-0.16933 0.0423 0.0847-0.127-0.127 0.0423 0.0423-0.127-0.0847 0.0847 0.0423-0.16933-0.0423h0.127-0.16933 0.0847l-0.127 0.0423 0.0847-0.0423-0.16933 0.0847 0.0423-0.0423-0.0847 0.0423-0.254 0.254-0.127 0.16933-0.127 0.21167-0.254 0.508-0.0847 0.29633"/><path d="m46.183 119.3 0.127-0.254 0.127-0.33867 0.16934-0.29633 0.16933-0.29633 0.16933-0.254 0.21167-0.29634 0.25397-0.25396 0.21167-0.127c0-0.0423 0-0.0423 0.0423-0.0423l0.0847-0.0423 0.16933-0.0847h0.0423l0.0847-0.0423h0.0847 0.0847 0.0847 0.0847c0.0423 0 0.0423 0 0.0847 0.0423h0.0847c0.0423 0.0423 0.0423 0.0423 0.0847 0.0423l0.0847 0.0423c0.0423 0.0423 0.0423 0.0423 0.0847 0.0423l0.2117 0.2117 0.254 0.33866 0.0847 0.21167 0.127 0.21167 0.0847 0.254 0.1694 0.59266-0.71966-0.0847 0.0847-0.127 0.1694-0.42334 0.127-0.21166 0.127-0.21167 0.127-0.254 0.127-0.21167 0.16933-0.16933v-0.0423l0.16933-0.127c0-0.0423 0.0423-0.0423 0.0847-0.0847l0.127-0.0847h0.0847l0.0847-0.0423h0.0847 0.2117c0.0423 0 0.0847 0 0.0847 0.0423h0.0847c0.0423 0.0423 0.0423 0.0423 0.0847 0.0423l0.0423 0.0423c0.0423 0 0.0423 0.0423 0.0847 0.0423l0.0847 0.0847 0.0847 0.127 0.127 0.127 0.0847 0.16933 0.127 0.16934 0.0847 0.21166 0.0847 0.21167 0.0847 0.16933 0.1694 0.254 0.0423 0.0847 0.127 0.127-0.0423-0.0423 0.16933 0.127-0.0847-0.0423 0.16933 0.0423h-0.16933 0.16933-0.127l0.127-0.0423-0.0847 0.0423 0.16934-0.0847-0.0847 0.0423 0.16933-0.127 0.0847-0.127 0.127-0.16933 0.16933-0.21167 0.127-0.254 0.16934-0.254 0.29633-0.59266 0.71967 0.42333-0.33867 0.55033-0.16933 0.29634-0.16934 0.254-0.16933 0.254-0.16933 0.21166-0.16934 0.21167-0.127 0.127c-0.0423 0-0.0423 0.0423-0.0847 0.0423l-0.127 0.0847c-0.0423 0-0.0423 0.0423-0.0847 0.0423l-0.16933 0.0423h-0.127-0.127-0.127l-0.16934-0.0847c-0.0423 0-0.0423-0.0423-0.0847-0.0423l-0.16934-0.127s-0.0423 0-0.0423-0.0423l-0.2117-0.2117-0.0847-0.127-0.0847-0.16934-0.0847-0.16933-0.127-0.16933-0.0847-0.21167-0.0847-0.16933-0.0423-0.127-0.0847-0.127-0.0423-0.0847-0.127-0.127 0.0423 0.0423-0.0847-0.0423 0.0423 0.0423-0.0847-0.0423 0.127 0.0423-0.0847-0.0423h0.0423-0.0423 0.0847l-0.0847 0.0423 0.0847-0.0423-0.127 0.0847 0.0423-0.0847-0.127 0.127 0.0423-0.0423-0.0847 0.127-0.127 0.21166-0.127 0.16934-0.0847 0.21166-0.127 0.21167-0.0847 0.21167-0.127 0.21166-0.0847 0.16934c-0.0423 0.16933-0.21167 0.254-0.381 0.21166-0.16933 0-0.29633-0.127-0.33867-0.29633l-0.1694-0.508-0.0423-0.21167-0.1694-0.33866-0.0847-0.127-0.0423-0.0847-0.127-0.0847 0.0847 0.0423-0.127-0.0847 0.0423 0.0423-0.0847-0.0423h0.0847-0.127 0.0847-0.0847 0.0423-0.0847 0.0423-0.0847 0.0423-0.0423l-0.0847 0.0423h0.0423l-0.21166 0.127 0.0423-0.0423-0.16933 0.16933-0.127 0.21167-0.16934 0.254-0.16933 0.254-0.254 0.508-0.0847 0.29633"/><path d="m86.654 119.98 0.508-0.1694 0.508-0.254 0.21166-0.16933 0.21167-0.127 0.127-0.16934-0.0423 0.0423 0.16933-0.16934-0.0423 0.0847 0.0847-0.21167-0.0423 0.0847 0.0423-0.0847v0.0847-0.127 0.0847l-0.0423-0.127 0.0423 0.0847-0.0423-0.127 0.0423 0.0847-0.2117-0.2117-0.127-0.0847-0.127-0.0423-0.16934-0.0847-0.42333-0.1694-0.254-0.0847c-0.16933-0.0423-0.254-0.16934-0.29633-0.33867 0-0.16933 0.0847-0.29633 0.254-0.381l0.127-0.0847 0.21166-0.0847 0.42334-0.1694 0.16933-0.127 0.21167-0.0847 0.16933-0.0847 0.127-0.127-0.0423 0.0423 0.0847-0.127-0.0423 0.0847 0.0847-0.127-0.0423 0.127v-0.127 0.127-0.0847l0.0423 0.0847-0.0423-0.0847 0.0423 0.0847-0.0423-0.0847v0.0423l-0.0423-0.0847-0.0423-0.0423-0.0847-0.0423-0.0847-0.0847-0.127-0.0423-0.33866-0.1694-0.21167-0.127-0.381-0.2541-0.21167-0.21167s-0.0423 0-0.0423-0.0423l-0.127-0.127c0-0.0423-0.0423-0.0847-0.0423-0.127l-0.0423-0.127c0-0.0423-0.0423-0.0847-0.0423-0.127v-0.16933c0-0.0423 0-0.0847 0.0423-0.0847l0.0423-0.16933s0-0.0423 0.0423-0.0847l0.0847-0.127c0-0.0423 0.0423-0.0423 0.0423-0.0847l0.127-0.127 0.21167-0.16933 0.21166-0.127 0.21167-0.16933 0.508-0.254 0.55033-0.29634 0.381 0.67734-0.55033 0.29633-0.254 0.127-0.42333 0.254-0.16934 0.127-0.2117 0.2117 0.0423-0.0423-0.0847 0.127 0.0423-0.0847-0.0423 0.127v-0.127 0.16933-0.16933l0.0423 0.16933-0.0423-0.0847 0.0847 0.127-0.0423-0.0423 0.2117 0.2117 0.127 0.0423 0.254 0.1694 0.21167 0.0847 0.16933 0.0847 0.16934 0.127 0.16933 0.0847 0.127 0.127 0.127 0.0847 0.0423 0.0847c0 0.0423 0.0423 0.0423 0.0423 0.0847l0.0423 0.0847 0.0423 0.0423v0.0847l0.0423 0.0423v0.0847 0.127l-0.0423 0.16933c0 0.0423 0 0.0847-0.0423 0.127l-0.0847 0.127-0.1693 0.1693c0 0.0423-0.0423 0.0423-0.0423 0.0423l-0.21167 0.16933-0.16933 0.127-0.21167 0.0847-0.254 0.127-0.21167 0.0847-0.33866 0.1694-0.16934 0.0847-0.0847-0.762 0.29633 0.0847 0.29633 0.127 0.42334 0.1694 0.21166 0.127 0.16934 0.0847 0.127 0.127 0.127 0.16934 0.0847 0.0847v0.0423l0.0847 0.0847v0.0847l0.0423 0.0847v0.0847 0.254 0.0847l-0.0423 0.0847v0.0847l-0.127 0.16934c0 0.0423 0 0.0423-0.0423 0.0847l-0.127 0.16934-0.25396 0.25397-0.508 0.33866-0.29634 0.16934-0.59266 0.254-0.254 0.0847"/></g></g><g fill-rule="evenodd"><path d="m121.11 90.81-2.8787 2.8363 1.5663 1.651-1.4393 1.397 0.16933 0.0847 2.8787-2.7517-1.6087-1.651 1.4393-1.4393-0.127-0.127"/><path d="m116.46 83.359 1.397 1.397 2.7093-2.794 1.397 1.397-1.397 1.3123-2.7093-2.7517-1.397 1.4393"/><path d="m117.01 118.12-2.0743 2.0743-0.254-0.127 3.429-3.429 3.175 3.1327 2.6247-2.794-0.21167-0.0847-1.2277 1.2277-1.3547-1.3123-2.7093 2.7517-1.397-1.4393"/><path d="m122.47 104.78-2.8363 2.921-1.651-1.6087-1.397 1.4393-0.127-0.127 2.794-2.921 1.6087 1.6087 1.4393-1.4393 0.16933 0.127"/></g><g fill="#7f47dd"><path d="m131.02 91.784-0.29634 0.127-0.254 0.127-0.254 0.0847-0.21166 0.127-0.33867 0.254-0.0847 0.127-0.0847 0.0847 0.0423-0.0423-0.0847 0.127 0.0423-0.0847-0.0423 0.16933v-0.0847 0.127-0.0847l0.0423 0.127-0.0423-0.0847 0.0847 0.16934-0.0423-0.0847 0.127 0.16933-0.0847-0.0423 0.33867 0.254 0.16933 0.0423 0.16933 0.127 0.16934 0.0847 0.381 0.381 0.1694 0.254s0 0.0423 0.0423 0.0423v0.127c0.0423 0 0.0423 0.0423 0.0423 0.0423v0.0847 0.127 0.16934c0 0.0423 0 0.0847-0.0423 0.0847l-0.0423 0.21167c-0.0423 0-0.0423 0.0423-0.0423 0.0847l-0.127 0.16933-0.0423 0.0423-0.16933 0.16934-0.21167 0.21166-0.254 0.16934-0.29633 0.16933-0.29633 0.127-0.29634 0.16933-0.59266 0.21167-0.29634-0.71967 0.55034-0.21166 0.29633-0.127 0.254-0.127 0.21167-0.16934 0.21166-0.127 0.127-0.127 0.16934-0.16933-0.0423 0.0423 0.127-0.16933-0.0423 0.0847 0.0847-0.16934-0.0423 0.0847 0.0423-0.16933v0.0847l-0.0423-0.0847 0.0423 0.0847-0.0423-0.127v0.0847-0.0423l-0.0423-0.0847-0.2117-0.2117-0.127-0.0847-0.16933-0.0847-0.21167-0.127-0.254-0.16933-0.16933-0.127c0-0.0423-0.0423-0.0423-0.0423-0.0423l-0.127-0.16933-0.0423-0.0423-0.0847-0.16934c0-0.0423 0-0.0423-0.0423-0.0847v-0.16934c-0.0423 0-0.0423-0.0423-0.0423-0.0847v-0.16934s0-0.0423 0.0423-0.0847l0.0423-0.127v-0.0847l0.0847-0.16933 0.0423-0.0423 0.127-0.21166 0.21166-0.16934 0.16934-0.16933 0.254-0.127 0.254-0.16933 0.254-0.127 0.33866-0.127 0.29634-0.0847"/><path d="m127.84 107.45 0.127-0.29634 0.127-0.29633 0.127-0.254 0.33866-0.508 0.16934-0.16933 0.16933-0.16934 0.21167-0.16933h0.0423l0.16933-0.0847 0.0423-0.0423 0.16933-0.0423h0.0847 0.16933c0.0423 0 0.0423 0 0.0847 0.0423l0.16933 0.0423h0.0847l0.127 0.0847c0.0423 0.0423 0.0423 0.0423 0.0847 0.0423l0.127 0.127c0.0423 0.0423 0.0423 0.0423 0.0423 0.0847l0.16933 0.16933 0.127 0.254 0.127 0.21167 0.0847 0.16933 0.0847 0.127 0.0847 0.0847 0.0423 0.0847 0.0847 0.0423 0.0423 0.0423-0.0423-0.0423 0.0847 0.0847-0.0423-0.0423 0.0847 0.0423-0.0423-0.0423 0.0847 0.0423h-0.0847l0.16933-0.0423-0.127 0.0423 0.21167-0.0847-0.0847 0.0423 0.16933-0.0847-0.0423 0.0423 0.16933-0.16933 0.127-0.16934 0.127-0.16933 0.16934-0.254 0.127-0.21167 0.127-0.29633 0.254-0.508 0.71966 0.29633-0.254 0.59267-0.16933 0.29633-0.127 0.254-0.16933 0.29634-0.21167 0.254-0.21167 0.21166-0.16933 0.16934s-0.0423 0-0.0423 0.0423l-0.16934 0.0847c-0.0423 0.0423-0.0423 0.0423-0.0847 0.0423l-0.16934 0.0847h-0.127-0.16933-0.127-0.0847s-0.0423 0-0.0423-0.0423h-0.127c0-0.0423 0-0.0423-0.0423-0.0423l-0.0847-0.0423-0.0423-0.0423-0.127-0.0847-0.254-0.254-0.0847-0.16934-0.127-0.16933-0.0847-0.16933-0.0423-0.127-0.127-0.21167-0.127-0.16933 0.0423 0.0847-0.127-0.127 0.0423 0.0423-0.127-0.0847 0.0847 0.0423-0.16933-0.0423h0.0847-0.127 0.0847l-0.127 0.0423 0.0423-0.0423-0.127 0.0847 0.0423-0.0423-0.0847 0.0423-0.254 0.254-0.127 0.16933-0.127 0.21167-0.254 0.508-0.0847 0.29633"/><path d="m126.66 119.3 0.127-0.254 0.127-0.33867 0.16934-0.29633 0.16933-0.29633 0.16933-0.254 0.21167-0.29634 0.25397-0.25396 0.21167-0.127 0.127-0.0847 0.16933-0.0847h0.0423l0.0847-0.0423h0.0847 0.0847 0.0847 0.0847c0.0423 0 0.0423 0 0.0847 0.0423h0.0847c0.0423 0.0423 0.0423 0.0423 0.0847 0.0423l0.0847 0.0423c0.0423 0.0423 0.0423 0.0423 0.0847 0.0423l0.2117 0.2117 0.254 0.33866 0.0847 0.21167 0.127 0.21167 0.0847 0.254 0.1694 0.59266-0.71966-0.0847 0.0847-0.127 0.1694-0.42334 0.127-0.21166 0.127-0.21167 0.127-0.254 0.127-0.21167 0.127-0.16933 0.0423-0.0423 0.16933-0.127c0-0.0423 0.0423-0.0423 0.0847-0.0847l0.127-0.0847h0.0847l0.0847-0.0423h0.0847 0.2117c0.0423 0 0.0847 0 0.0847 0.0423h0.0847l0.0423 0.0423 0.0847 0.0423c0.0423 0 0.0423 0.0423 0.0847 0.0423l0.0423 0.0847 0.254 0.254 0.0847 0.16933 0.127 0.16934 0.0847 0.21166 0.0847 0.21167 0.0847 0.16933 0.1694 0.254 0.0423 0.0847 0.127 0.127-0.0423-0.0423 0.16933 0.127-0.0847-0.0423 0.127 0.0423h-0.127 0.16933-0.127l0.16933-0.0423-0.127 0.0423 0.16934-0.0847-0.0847 0.0423 0.16933-0.127 0.0847-0.127 0.127-0.16933 0.16933-0.21167 0.127-0.254 0.16934-0.254 0.29633-0.59266 0.71967 0.42333-0.33867 0.55033-0.16933 0.29634-0.16934 0.254-0.16933 0.254-0.16933 0.21166-0.16934 0.21167-0.127 0.127c-0.0423 0-0.0423 0.0423-0.0847 0.0423l-0.127 0.0847c-0.0423 0-0.0847 0.0423-0.0847 0.0423l-0.16933 0.0423h-0.127-0.127-0.127l-0.16934-0.0847c-0.0423 0-0.0847-0.0423-0.0847-0.0423l-0.16934-0.127s-0.0423 0-0.0423-0.0423l-0.2117-0.2117-0.0847-0.127-0.0847-0.16934-0.127-0.16933-0.0847-0.16933-0.0847-0.21167-0.0847-0.16933-0.0423-0.127-0.0847-0.127-0.127-0.127-0.0423-0.0847 0.0423 0.0423-0.0847-0.0423 0.0423 0.0423-0.0847-0.0423 0.127 0.0423-0.0847-0.0423h0.0423-0.0423 0.0847l-0.0847 0.0423 0.0847-0.0423-0.127 0.0847 0.0423-0.0847-0.127 0.127 0.0423-0.0423-0.0847 0.127-0.127 0.21166-0.127 0.16934-0.0847 0.21166-0.127 0.21167-0.0847 0.21167-0.127 0.21166-0.0847 0.16934c-0.0423 0.16933-0.21167 0.254-0.381 0.21166-0.16933 0-0.29633-0.127-0.33867-0.29633l-0.1694-0.508-0.0423-0.21167-0.1694-0.33866-0.0847-0.127-0.0423-0.0847-0.0847-0.0423-0.0847-0.0847 0.0423 0.0423-0.0847-0.0423h0.0847-0.127 0.0847-0.0847 0.0423-0.0847 0.0423-0.0847 0.0423-0.0423l-0.0423 0.0423-0.21166 0.127 0.0423-0.0423-0.16933 0.16933-0.127 0.21167-0.16934 0.254-0.16933 0.254-0.254 0.508-0.0847 0.29633"/></g><g fill-rule="evenodd"><path d="m167.43 90.81-2.921 2.8363 1.6087 1.651-1.4393 1.397 0.127 0.0847 2.921-2.7517-1.6087-1.651 1.4393-1.4393-0.127-0.127"/><path d="m162.73 80.904 1.397 1.397 2.7517-2.794 1.397 1.397-1.4393 1.3547-2.7093-2.794-1.397 1.4393"/><path d="m163.32 118.12-2.1167 2.0743-0.21167-0.127 3.429-3.429 3.175 3.1327 2.5823-2.794-0.16934-0.0847-1.2277 1.2277-1.397-1.3123-2.7093 2.7517-1.3547-1.4393"/><path d="m168.74 104.78-2.8363 2.921-1.651-1.6087-1.397 1.4393-0.127-0.127 2.794-2.921 1.651 1.6087 1.4393-1.4393 0.127 0.127"/></g><g fill="#7f47dd"><path d="m178.56 91.784-0.29634 0.127-0.254 0.127-0.254 0.0847-0.21166 0.127-0.33867 0.254-0.0847 0.127 0.0423-0.0423-0.127 0.127 0.0423-0.0423-0.0847 0.127 0.0423-0.0847-0.0423 0.16933v-0.0847 0.127-0.0847l0.0423 0.127-0.0423-0.0847 0.0847 0.16934-0.0423-0.0847 0.0847 0.16933-0.0423-0.0423 0.33867 0.254 0.16933 0.0423 0.16933 0.127 0.16934 0.0847 0.381 0.381 0.1694 0.254v0.0423l0.0423 0.127 0.0423 0.0423v0.0847 0.127 0.16934c0 0.0423-0.0423 0.0847-0.0423 0.0847l-0.0847 0.21167v0.0847l-0.127 0.16933c-0.0423 0-0.0423 0.0423-0.0423 0.0423l-0.16933 0.16934-0.254 0.21166-0.254 0.16934-0.254 0.16933-0.29633 0.127-0.29634 0.16933-0.59266 0.21167-0.29634-0.71967 0.55034-0.21166 0.29633-0.127 0.21167-0.127 0.254-0.16934 0.33866-0.254 0.16934-0.16933-0.0423 0.0423 0.127-0.16933-0.0423 0.0847 0.0847-0.16934-0.0423 0.0847v-0.16933 0.0847-0.0847 0.0847-0.127 0.0847-0.0423l-0.0423-0.0847-0.127-0.127-0.127-0.0847-0.0847-0.0847-0.16933-0.0847-0.21167-0.127-0.254-0.16933-0.16933-0.127c0-0.0423-0.0423-0.0423-0.0423-0.0423l-0.127-0.16933-0.0423-0.0423-0.0847-0.16934c0-0.0423 0-0.0423-0.0423-0.0847l-0.0423-0.16934v-0.0847-0.16934s0-0.0423 0.0423-0.0847l0.0423-0.127v-0.0847l0.0847-0.16933 0.0423-0.0423 0.0847-0.16933c0.0423 0 0.0423 0 0.0423-0.0423l0.21166-0.16934 0.16934-0.16933 0.254-0.127 0.254-0.16933 0.254-0.127 0.29633-0.127 0.33867-0.0847"/><path d="m175.38 107.45 0.127-0.29634 0.127-0.29633 0.127-0.254 0.33866-0.508 0.16934-0.16933 0.16933-0.16934c0-0.0423 0-0.0423 0.0423-0.0423l0.127-0.127h0.0847l0.127-0.0847c0.0423 0 0.0847-0.0423 0.0847-0.0423l0.16933-0.0423h0.0847 0.16933s0.0423 0 0.0847 0.0423l0.16933 0.0423h0.0847l0.127 0.0847 0.0847 0.0847 0.127 0.0847c0.0423 0.0423 0.0423 0.0423 0.0423 0.0847l0.127 0.16933 0.16933 0.254 0.127 0.21167 0.0847 0.16933 0.0847 0.127 0.0423 0.0847 0.0847 0.0847 0.0847 0.0423 0.0846 0.0846-0.0423-0.0423 0.0847 0.0423-0.0423-0.0423 0.0847 0.0423h-0.127l0.21167-0.0423-0.127 0.0423 0.21167-0.0847-0.0847 0.0423 0.16933-0.0847-0.0423 0.0423 0.16933-0.16933 0.127-0.16934 0.127-0.16933 0.16934-0.254 0.127-0.21167 0.127-0.29633 0.254-0.508 0.71966 0.29633-0.254 0.59267-0.16933 0.29633-0.127 0.254-0.21167 0.29634-0.16933 0.254-0.21167 0.21166-0.16933 0.16934s-0.0423 0-0.0423 0.0423l-0.16934 0.0847c-0.0423 0.0423-0.0847 0.0423-0.0847 0.0423l-0.21167 0.0847h-0.0847-0.16933-0.127-0.0847c-0.0423 0-0.0423 0-0.0423-0.0423h-0.127c0-0.0423 0-0.0423-0.0423-0.0423l-0.254-0.1694-0.254-0.254-0.0847-0.16934-0.127-0.16933-0.0847-0.16933-0.0847-0.127-0.0847-0.21167-0.127-0.16933 0.0423 0.0847-0.16933-0.127 0.0847 0.0423-0.127-0.0847 0.0847 0.0423-0.16933-0.0423h0.0847-0.127 0.0847l-0.16933 0.0423 0.0847-0.0423-0.127 0.0847 0.0423-0.0423-0.127 0.0847 0.0423-0.0423-0.254 0.254-0.127 0.16933-0.127 0.21167-0.254 0.508-0.127 0.29633"/><path d="m174.2 119.3 0.127-0.254 0.127-0.33867 0.127-0.29633 0.16934-0.29633 0.21166-0.254 0.21167-0.29634 0.21167-0.21166s0-0.0423 0.0423-0.0423l0.21167-0.127 0.254-0.1694h0.0847l0.0847-0.0423h0.0847 0.0847 0.0847 0.0847c0.0423 0 0.0423 0 0.0847 0.0423h0.0847c0.0423 0.0423 0.0423 0.0423 0.0847 0.0423l0.0847 0.0423c0.0423 0.0423 0.0423 0.0423 0.0847 0.0423l0.2117 0.2117 0.254 0.33866 0.0847 0.21167 0.127 0.21167 0.0847 0.254 0.1694 0.59266-0.71966-0.0847 0.0847-0.127 0.1694-0.42334 0.127-0.21166 0.0847-0.21167 0.127-0.254 0.16934-0.21167 0.127-0.16933 0.0423-0.0423 0.16933-0.127c0-0.0423 0.0423-0.0423 0.0423-0.0847l0.16933-0.0847h0.0847l0.0847-0.0423h0.0847 0.2117c0.0423 0 0.0847 0 0.0847 0.0423h0.0847l0.0423 0.0423 0.0847 0.0423c0.0423 0 0.0423 0.0423 0.0423 0.0423l0.3387 0.3387 0.0847 0.16933 0.127 0.16934 0.0847 0.21166 0.0847 0.21167 0.0847 0.16933 0.1694 0.254 0.0423 0.0847 0.127 0.127-0.0423-0.0423 0.16933 0.127-0.0847-0.0423 0.127 0.0423h-0.127 0.16933-0.127l0.127-0.0423-0.0847 0.0423 0.127-0.0847-0.0423 0.0423 0.16933-0.127 0.0847-0.127 0.127-0.16933 0.127-0.21167 0.16933-0.254 0.127-0.254 0.33867-0.59266 0.71967 0.42333-0.33867 0.55033-0.16933 0.29634-0.16934 0.254-0.16933 0.254-0.16933 0.21166-0.16934 0.21167-0.127 0.127c-0.0423 0-0.0423 0.0423-0.0847 0.0423l-0.127 0.0847c-0.0423 0-0.0847 0.0423-0.0847 0.0423l-0.16933 0.0423h-0.127-0.127-0.16934l-0.127-0.0847c-0.0423 0-0.0847-0.0423-0.0847-0.0423l-0.16934-0.127s-0.0423 0-0.0423-0.0423l-0.127-0.0847-0.1694-0.254-0.0847-0.16934-0.127-0.16933-0.0847-0.16933-0.0847-0.21167-0.0847-0.16933-0.0847-0.127-0.0423-0.127-0.2117-0.2117 0.0847 0.0423-0.0847-0.0423 0.0423 0.0423-0.0847-0.0423 0.0847 0.0423-0.0423-0.0423h0.0423-0.0847 0.127l-0.0847 0.0423 0.0847-0.0423-0.127 0.0847 0.0423-0.0847-0.127 0.127 0.0423-0.0423-0.127 0.127-0.0847 0.21166-0.127 0.16934-0.0847 0.21166-0.127 0.21167-0.0847 0.21167-0.127 0.21166-0.0847 0.16934c-0.0847 0.16933-0.21167 0.254-0.381 0.21166-0.16933 0-0.29633-0.127-0.33867-0.29633l-0.1694-0.508-0.0423-0.21167-0.1694-0.33866-0.0847-0.127-0.0423-0.0847-0.0847-0.0423-0.0847-0.0847 0.0423 0.0423-0.0847-0.0423h0.0423-0.0847 0.0847-0.127 0.0847-0.0847 0.0423-0.0847 0.0423-0.0423l-0.0423 0.0423-0.21166 0.127 0.0423-0.0423-0.16933 0.16933-0.16934 0.21167-0.127 0.254-0.16933 0.254-0.254 0.508-0.127 0.29633"/></g><g fill-rule="evenodd"><path d="m119.29 79.041-1.397 1.397 1.4817 1.397 1.3547-1.397-1.4393-1.397"/><path d="m165.48 81.92-1.3547 1.397 1.4817 1.4393 1.3547-1.4393-1.4817-1.397"/><path d="m122.6 91.022-1.397 1.397 1.4817 1.397 1.3547-1.397-1.4393-1.397"/><path d="m163.4 93.9-1.3547 1.3547 1.4393 1.4393 1.3547-1.4393-1.4393-1.3547"/><path d="m166.03 119.68-1.3547 1.397 1.4817 1.397 1.3547-1.397-1.4817-1.397"/><path d="m120.99 101.86-1.3547 1.397 1.4817 1.397 1.3547-1.397-1.4817-1.397"/><path d="m164.29 107.36-1.397 1.3547 1.4817 1.4393 1.3547-1.4393-1.4393-1.3547"/><path d="m119.63 114.18-1.397 1.397 1.4817 1.4393 1.3547-1.4393-1.4393-1.397"/></g><g fill="#7f47dd"><path d="m131.1 93.011c0-0.29633 0.254-0.55033 0.55034-0.55033 0.29633 0 0.508 0.254 0.508 0.55033 0 0.29634-0.21167 0.508-0.508 0.508-0.29634 0-0.55034-0.21166-0.55034-0.508" fill-rule="evenodd"/><path d="m130.93 93.011v-0.1693l0.0423-0.0847v-0.0423l0.0847-0.0847v-0.0423l0.1694-0.1694h0.0423l0.0847-0.0423 0.0423-0.0423h0.0847 0.0423l0.0847-0.0423h0.0423l0.127 0.0423h0.127v0.0423l0.127 0.0423 0.0847 0.0847h0.0423l0.0423 0.0847 0.0423 0.0423 0.0423 0.0847v0.0423l0.0423 0.0847v0.2963 0.0423l-0.0423 0.0847v0.0423l-0.0423 0.0847s-0.0423 0-0.0423 0.0423l-0.0423 0.0847h-0.0423l-0.0847 0.0423v0.0423l-0.381 0.1269h-0.0423l-0.0847-0.0423h-0.0423l-0.0847-0.0423h-0.0423l-0.0847-0.0423c-0.0423 0-0.0423 0-0.0423-0.0423l-0.0847-0.0423-0.0847-0.0847v-0.0423l-0.0847-0.0847v-0.0423l-0.0423-0.0847v-0.0423zm0.381 0.0847-0.0423-0.0423 0.0423 0.127v-0.0423l0.0423 0.0847-0.0423-0.0423 0.127 0.127 0.0847 0.0423-0.0423-0.0423 0.0847 0.0423h0.0847-0.0423 0.127-0.0423l0.0847-0.0423v0.0423l0.0847-0.0423h-0.0423l0.0847-0.0423h-0.0423l0.0847-0.0847-0.0423 0.0423 0.0423-0.0847v0.0423l0.0423-0.127v0.0423-0.1694 0.0423l-0.0423-0.127v0.0423l-0.0423-0.0847 0.0423 0.0423-0.0847-0.0847h0.0423l-0.0847-0.0423h0.0423l-0.0847-0.0423h-0.0847 0.0423-0.127 0.0423-0.16934 0.0423l-0.0847 0.0423-0.127 0.127 0.0423-0.0423-0.0423 0.0847v-0.0423l-0.0423 0.127 0.0423-0.0423-0.0423 0.0847"/><path d="m175.22 94.62c0-0.29633 0.21167-0.508 0.508-0.508 0.29634 0 0.55034 0.21167 0.55034 0.508s-0.254 0.55033-0.55034 0.55033c-0.29633 0-0.508-0.254-0.508-0.55033" fill-rule="evenodd"/><path d="m175.05 94.662c-0.0423-0.0423-0.0423-0.0423 0-0.0423v-0.127-0.0423l0.0423-0.0847v-0.0423l0.0423-0.0847 0.0846-0.0846c0-0.0423 0-0.0423 0.0423-0.0423l0.0846-0.0846 0.0847-0.0423h0.0423l0.0847-0.0423h0.0423l0.127-0.0423h0.0423l0.0847 0.0423h0.0423l0.0847 0.0423h0.0423l0.0847 0.0423s0.0423 0 0.0423 0.0423l0.0847 0.0423v0.0423l0.0847 0.0423v0.0423l0.0423 0.0847s0 0.0423 0.0423 0.0423v0.0847 0.0423l0.0423 0.127v0.0423l-0.0423 0.0847v0.127c-0.0423 0-0.0423 0.0423-0.0423 0.0423l-0.0423 0.0847v0.0423l-0.1694 0.1694h-0.0423l-0.0847 0.0423s-0.0423 0-0.0423 0.0423h-0.127l-0.0847 0.0423h-0.0423l-0.127-0.0423h-0.0423-0.0847c0-0.0423 0-0.0423-0.0423-0.0423l-0.0847-0.0423h-0.0423l-0.0423-0.0847h-0.0423l-0.0423-0.0847c-0.0423 0-0.0423-0.0423-0.0423-0.0423l-0.0423-0.0847v-0.0423l-0.0423-0.0847v-0.0423zm0.33867 0.0423v-0.0423l0.0423 0.127-0.0423-0.0423 0.0423 0.0847v-0.0423l0.0423 0.0847 0.0847 0.0423h-0.0423l0.0847 0.0423h0.0847-0.0423 0.127-0.0423 0.0847-0.0423 0.127-0.0423l0.0847-0.0423h-0.0423l0.0847-0.0423 0.0423-0.0847v0.0423l0.0423-0.0847v0.0423-0.127 0.0423-0.0847 0.0423-0.127 0.0423-0.127 0.0423l-0.0423-0.0847v0.0423l-0.0423-0.0847-0.0847-0.0423h0.0423l-0.0847-0.0423 0.0423 0.0423-0.127-0.0423h0.0423-0.0847 0.0423-0.127 0.0423l-0.0847 0.0423v-0.0423l-0.0847 0.0423h0.0423l-0.0847 0.0423-0.0423 0.0847v-0.0423l-0.0423 0.0847 0.0423-0.0423-0.0423 0.127v-0.0423 0.127-0.0423"/><path d="m176.69 108.25c0-0.29633 0.21167-0.508 0.508-0.508 0.29634 0 0.508 0.21167 0.508 0.508 0 0.29634-0.21166 0.55034-0.508 0.55034-0.29633 0-0.508-0.254-0.508-0.55034" fill-rule="evenodd"/><path d="m176.48 108.29v-0.0423l0.1269-0.381 0.0847-0.0847s0-0.0423 0.0423-0.0423l0.0423-0.0423c0.0423 0 0.0423-0.0423 0.0423-0.0423l0.0847-0.0423h0.0423l0.0847-0.0423h0.0423 0.2963l0.0847 0.0423h0.0423l0.0847 0.0423s0 0.0423 0.0423 0.0423l0.0423 0.0423c0.0423 0 0.0423 0.0423 0.0423 0.0423l0.0847 0.0847 0.0423 0.127h0.0423v0.127l0.0423 0.127v0.0423l-0.0423 0.0847v0.0423 0.127h-0.0423l-0.0423 0.0847v0.0423l-0.0847 0.0847h-0.0423l-0.0423 0.0847h-0.0423l-0.0847 0.0847h-0.0423l-0.0847 0.0423h-0.2963-0.0423l-0.0847-0.0423h-0.0423l-0.0847-0.0847h-0.0423l-0.0423-0.0847h-0.0423l-0.0847-0.0847v-0.0423l-0.0423-0.0847-0.0423-0.127v-0.0423zm0.381 0.0423 0.0423 0.0847-0.0423-0.0423 0.0846 0.1694v-0.0423l0.0847 0.0423h-0.0423l0.1694 0.0846-0.0423-0.0423 0.0847 0.0423 0.0847-0.0423-0.0423 0.0423 0.127-0.0423h-0.0423l0.0847-0.0423-0.0423 0.0423 0.0847-0.0847v0.0423l0.0846-0.1694v0.0423-0.1694 0.0423-0.127 0.0423-0.0847l-0.0423-0.0847v0.0423l-0.0423-0.0847v0.0423l-0.0847-0.0847 0.0423 0.0423-0.0847-0.0423h0.0423l-0.127-0.0423h0.0423-0.16933 0.0423l-0.1694 0.0846 0.0423-0.0423-0.0847 0.0847v-0.0423l-0.0423 0.0847v-0.0423l-0.0423 0.0847h0.0423l-0.0423 0.0847v-0.0423 0.127-0.0423"/><path d="m131.1 104.74c0-0.29633 0.254-0.55033 0.55034-0.55033 0.29633 0 0.508 0.254 0.508 0.55033 0 0.29634-0.21167 0.508-0.508 0.508-0.29634 0-0.55034-0.21166-0.55034-0.508" fill-rule="evenodd"/><path d="m130.93 104.74v-0.0423-0.0847-0.0423l0.0423-0.0847v-0.0423l0.0847-0.0847v-0.0423l0.1694-0.1694h0.0423l0.0847-0.0847h0.0423l0.0847-0.0423h0.0423 0.0847 0.0423 0.127l0.127 0.0423 0.127 0.0847 0.0847 0.0847h0.0423l0.0423 0.0847s0.0423 0 0.0423 0.0423l0.0423 0.0847v0.0423l0.0423 0.0847v0.0423 0.0847 0.0423 0.127l-0.0423 0.127v0.0423l-0.0423 0.0847h-0.0423l-0.0423 0.0847-0.0423 0.0423-0.0847 0.0423v0.0423l-0.254 0.0846h-0.127-0.0423-0.0847-0.0423l-0.0847-0.0423h-0.0423l-0.0847-0.0423c-0.0423 0-0.0423-0.0423-0.0423-0.0423l-0.0847-0.0423v-0.0423l-0.1694-0.1694v-0.0423l-0.0423-0.127zm0.381 0.0847-0.0423-0.0423 0.0846 0.1694-0.0423-0.0423 0.0847 0.0847-0.0423-0.0423 0.0847 0.0847v-0.0423l0.0847 0.0423h-0.0423l0.0847 0.0423h0.0847-0.0423 0.127-0.0423l0.1694-0.0846-0.0423 0.0423 0.0847-0.0847-0.0423 0.0423 0.0847-0.0847-0.0423 0.0423 0.0846-0.1694v0.0423-0.127 0.0423-0.0847l-0.0423-0.0847v0.0423l-0.0423-0.0847h0.0423l-0.0847-0.0423h0.0423l-0.0847-0.0847 0.0423 0.0423-0.1694-0.0846 0.0423 0.0423-0.127-0.0423h0.0423l-0.0847 0.0423v-0.0423l-0.0847 0.0423h0.0423l-0.0847 0.0423v-0.0423l-0.0423 0.0847-0.0847 0.0423h0.0423l-0.0423 0.0847v-0.0423l-0.0423 0.0847h0.0423l-0.0423 0.0847v-0.0423"/><path d="m129.5 115.74c0-0.29633 0.254-0.55033 0.55033-0.55033 0.254 0 0.508 0.254 0.508 0.55033s-0.254 0.508-0.508 0.508c-0.29633 0-0.55033-0.21167-0.55033-0.508" fill-rule="evenodd"/><path d="m129.33 115.74v-0.0423-0.127l0.0423-0.0847v-0.0423l0.0423-0.0847c0.0423 0 0.0423-0.0423 0.0423-0.0423l0.1694-0.1694h0.0423l0.0847-0.0423v-0.0423h0.127s0-0.0423 0.0423-0.0423h0.2117c0.0423 0 0.0423 0.0423 0.0423 0.0423h0.127v0.0423l0.0847 0.0423h0.0423l0.0847 0.0847h0.0423l0.0423 0.0847s0 0.0423 0.0423 0.0423l0.0423 0.0847v0.0423l0.0423 0.0847v0.127 0.0423 0.127 0.0423l-0.0423 0.0847v0.0423l-0.0423 0.0847h-0.0423l-0.0423 0.0847-0.0423 0.0423-0.0847 0.0423c0 0.0423 0 0.0423-0.0423 0.0423l-0.0847 0.0423-0.127 0.0423h-0.0423-0.2117-0.0423l-0.127-0.0423-0.0847-0.0423c-0.0423 0-0.0423 0-0.0423-0.0423l-0.0847-0.0423v-0.0423l-0.0847-0.0847h-0.0423l-0.0423-0.0847v-0.0423l-0.0423-0.0847v-0.0423zm0.33867 0.0847v-0.0423l0.0846 0.1694-0.0423-0.0423 0.0847 0.0847-0.0423-0.0423 0.0847 0.0847-0.0423-0.0423 0.127 0.0847-0.0423-0.0423 0.0847 0.0423h-0.0423 0.127-0.0423 0.127-0.0423l0.0847-0.0423-0.0423 0.0423 0.127-0.0847-0.0423 0.0423 0.0847-0.0847-0.0423 0.0423 0.0847-0.0847-0.0423 0.0423 0.0846-0.1694v0.0423-0.127 0.0423-0.0847 0.0423l-0.0423-0.127v0.0423l-0.0423-0.0847 0.0423 0.0423-0.0847-0.0847h0.0423l-0.0847-0.0423h0.0423l-0.127-0.0423h0.0423-0.0847 0.0423l-0.127-0.0423h0.0423l-0.127 0.0423h0.0423-0.0847 0.0423l-0.127 0.0423h0.0423l-0.0847 0.0423h0.0423l-0.0847 0.0847 0.0423-0.0423-0.0423 0.0847v-0.0423l-0.0423 0.127v-0.0423 0.0847-0.0423"/><path d="m178.14 120.36c0-0.29633 0.254-0.55033 0.508-0.55033 0.29634 0 0.55034 0.254 0.55034 0.55033 0 0.29634-0.254 0.508-0.55034 0.508-0.254 0-0.508-0.21166-0.508-0.508" fill-rule="evenodd"/><g><path d="m177.97 120.36v-0.1693l0.0423-0.0847v-0.0423l0.0423-0.0847c0.0423 0 0.0423 0 0.0423-0.0423l0.1693-0.1693h0.0423l0.0847-0.0423 0.254-0.0846h0.0423l0.0847 0.0423h0.0423l0.127 0.0423 0.0847 0.0423h0.0423l0.1693 0.1693v0.0423l0.0847 0.0847v0.0423l0.0423 0.0847v0.2963 0.0423l-0.0423 0.0847v0.0423l-0.0847 0.0847v0.0423l-0.0847 0.0423v0.0423l-0.0847 0.0847h-0.0423l-0.0847 0.0423-0.127 0.0423h-0.0423l-0.0847 0.0423h-0.0423l-0.254-0.0846-0.0847-0.0423h-0.0423l-0.1693-0.1693c0-0.0423 0-0.0423-0.0423-0.0423l-0.0423-0.0847v-0.0423l-0.0423-0.0847v-0.0423zm0.33867 0.0847v-0.0423l0.0423 0.127v-0.0423l0.0423 0.0847-0.0423-0.0423 0.0847 0.0847h-0.0423l0.0847 0.0423h-0.0423l0.127 0.0423h-0.0423 0.0847-0.0423 0.127-0.0423 0.0847l0.0847-0.0423-0.0423 0.0423 0.1694-0.0846h-0.0423l0.0847-0.0847-0.0423 0.0423 0.0423-0.0847v0.0423l0.0423-0.127v0.0423-0.1694 0.0423l-0.0423-0.127v0.0423l-0.0423-0.0847 0.0423 0.0423-0.0847-0.0847h0.0423l-0.1694-0.0846 0.0423 0.0423-0.0847-0.0423h-0.0847 0.0423-0.127 0.0423-0.0847 0.0423l-0.127 0.0423h0.0423l-0.0847 0.0423h0.0423l-0.0847 0.0847 0.0423-0.0423-0.0423 0.0847v-0.0423l-0.0423 0.127v-0.0423 0.0847"/><path d="m127.84 83.698 1.524-3.048c0.0847-0.127 0.21166-0.21167 0.381-0.21167 0.16933 0 0.29633 0.127 0.33866 0.254l1.3123 3.0903-0.71967 0.29633-1.3123-3.0903 0.71966 0.0423-1.524 3.0057"/><path d="m178.9 81.2-1.5663 3.0057c-0.0423 0.127-0.21167 0.21167-0.33867 0.21167-0.16933 0-0.29633-0.0847-0.381-0.21167l-1.3123-3.0903 0.71967-0.33867 1.3547 3.0903h-0.71966l1.524-3.048"/></g></g><path d="m43.051 80.608-1.4817 1.4817-1.4817-1.4817-2.921 3.0057-1.651-1.6933 1.4393-1.4393 1.4817 1.397 2.9633-2.921 1.651 1.651" fill-rule="evenodd"/><g transform="matrix(0 .042333 .042333 0 -37.764 -29.925)"><g clip-path="url(#clipPath47207-5)"><path d="m2602 2024 66 1-6-17-105 98c-2 2-3 6-2 10s5 6 9 6h52v-19h-52l6 16 104-97c3-2 4-7 3-10-2-4-5-6-9-6h-65" fill="#7f47dd"/><path d="m1734 696c-3 0-4 2-4 4v4712c0 2 1 4 4 4h1905c3 0 5-2 5-4v-4712c0-2-2-4-5-4zm1905 9-4-5v4712l4-5h-1905l4 5v-4712l-4 5"/></g></g><g transform="matrix(.26458 0 0 .26458 360.55 -48.99)" style="shape-inside:url(#rect48420-6);white-space:pre" aria-label=""><path d="m-1211.4 379.79q-0.888 0-0.888-0.864v-11.04q-1.2 3.576-2.592 5.712-0.36 0.504-0.624 0.456-0.24-0.048-0.576-0.6-0.216-0.36-0.216-0.6 0-0.264 0.24-0.552 1.008-1.416 1.92-3.528 0.936-2.112 1.464-4.152h-2.376q-0.84 0-0.84-0.84t0.84-0.84h2.76v-4.176q0-0.864 0.888-0.864 0.864 0 0.864 0.864v4.176h2.232q0.84 0 0.84 0.84t-0.84 0.84h-2.232v0.624q1.296 1.56 2.928 3.72 0.192 0.24 0.144 0.432-0.024 0.12-0.24 0.408l-0.048 0.072q-0.36 0.48-0.6 0.504-0.216 0.024-0.504-0.456-0.744-1.248-1.68-2.616v11.616q0 0.864-0.864 0.864zm7.944-0.072q-1.128 0-1.368-0.768-0.168-0.528 0.216-0.792 0.336-0.24 0.984-0.216 0.96 0 1.128-0.024 0.264-0.024 0.36-0.096t0.096-0.312v-10.416h-4.224q-0.84 0-0.84-0.84t0.84-0.84h10.872q0.84 0 0.84 0.84t-0.84 0.84h-4.896v10.44q0 0.792-0.192 1.176-0.192 0.432-0.696 0.648-0.576 0.312-2.28 0.36zm-3.168-2.88q-0.432 0.648-1.104 0.216-0.408-0.264-0.48-0.528-0.048-0.288 0.24-0.672 1.368-2.112 2.28-5.256 0.24-0.84 1.008-0.672 0.816 0.168 0.6 0.984-0.576 1.848-1.176 3.24-0.696 1.56-1.368 2.688zm11.376 0.36q-0.48 0.168-0.72 0.072t-0.336-0.552q-0.264-1.104-0.816-2.712-0.504-1.536-1.224-3.096-0.336-0.72 0.48-0.984 0.672-0.216 0.96 0.408 1.584 3.384 2.256 5.976 0.144 0.648-0.6 0.888zm-10.008-15.792q-0.84 0-0.84-0.84t0.84-0.84h8.616q0.84 0 0.84 0.84t-0.84 0.84z"/><path d="m-1182.4 378.63q-0.624 0-1.008-0.384t-0.384-1.008v-11.376q-0.84 1.224-1.44 1.968-0.672 0.768-1.32 0.072-0.36-0.384-0.384-0.696 0-0.312 0.36-0.696 2.664-2.976 4.392-7.776 0.288-0.84 1.128-0.624 0.888 0.24 0.576 1.104-0.552 1.488-1.464 3.384h4.296q0.648-1.584 1.248-3.744 0.12-0.456 0.36-0.6 0.264-0.144 0.744-0.024 0.912 0.24 0.576 1.176-0.6 1.728-1.224 3.192h4.128q0.792 0 0.792 0.792 0 0.816-0.792 0.816h-4.416v3.12h3.84q0.792 0 0.792 0.792 0 0.816-0.792 0.816h-3.84v3.192h3.864q0.768 0 0.768 0.768 0 0.792-0.768 0.792h-3.864v3.312h4.92q0.816 0 0.816 0.816t-0.816 0.816h-4.992zm-7.872-1.416q-0.48 0.744-1.272 0.12-0.696-0.6-0.24-1.2 0.96-1.344 1.728-2.52 0.912-1.344 1.848-2.952 0.48-0.792 1.2-0.144 0.528 0.528 0.192 1.104-1.536 2.76-3.456 5.592zm8.664-0.216h3.672v-3.312h-4.176v2.808q0 0.504 0.504 0.504zm-0.504-4.872h4.176v-3.192h-4.176zm0-4.8h4.176v-3.12h-4.176zm-4.584-3.912q-0.648 0.792-1.272 0.096-0.624-0.624-1.224-1.128-0.72-0.624-1.632-1.296-0.72-0.504-0.096-1.176 0.528-0.552 1.104-0.144 2.04 1.392 3.192 2.544 0.264 0.288 0.24 0.552-0.024 0.216-0.312 0.552z"/></g><g transform="matrix(.26458 0 0 .26458 399.57 -48.99)" style="shape-inside:url(#rect48428-0);white-space:pre" aria-label=""><path d="m-1220.4 379.74q-1.104 0-1.392-0.648-0.264-0.576 0.144-0.864 0.336-0.24 1.08-0.216 1.416 0.048 1.848 0 0.312-0.024 0.408-0.12 0.12-0.096 0.12-0.336v-5.112h-8.376q-0.84 0-0.84-0.864 0-0.84 0.84-0.84h8.376v-0.96q0-0.816 0.816-0.816h0.072q1.752-1.008 3.36-2.544h-8.808q-0.816 0-0.816-0.84 0-0.816 0.816-0.816h10.176q0.816 0 1.008 0.432 0.216 0.432-0.312 1.152-1.704 2.112-4.44 3.648v0.744h8.4q0.84 0 0.84 0.84 0 0.864-0.84 0.864h-8.4v5.136q0 0.792-0.264 1.224-0.24 0.432-0.864 0.648-0.744 0.24-2.952 0.288zm-5.928-13.656q-0.864 0-0.864-0.864v-3.36q0-0.624 0.384-1.008t1.008-0.384h7.56v-1.704q0-0.912 0.936-0.912 0.912 0 0.912 0.912v1.704h7.608q0.624 0 1.008 0.384t0.384 1.008v3.336q0 0.888-0.888 0.888-0.912 0-0.912-0.888v-2.544q0-0.504-0.504-0.504h-15.264q-0.504 0-0.504 0.504v2.568q0 0.864-0.864 0.864z"/><path d="m-1189.1 379.74q-0.864 0.096-2.496 0.024-0.888-0.048-1.08-0.696-0.288-0.984 1.152-0.84 0.744 0.048 1.728 0.048 0.648 0 0.984-0.456 0.432-0.48 0.744-2.016h-12.312q-0.096 0.624-0.168 0.912-0.144 0.816-0.984 0.744-0.528-0.048-0.696-0.24-0.216-0.192-0.12-0.648 0.528-2.64 1.416-8.4h-2.448q-0.816 0-0.816-0.816t0.816-0.816h2.688q0.48-3.36 0.84-6.312 0.048-0.504 0.432-0.84 0.408-0.336 0.984-0.336h11.952q1.416 0 1.344 1.824-0.144 3.936-0.264 5.664h2.208q0.816 0 0.816 0.816t-0.816 0.816h-2.28q-0.24 3.648-0.504 6h2.184q0.816 0 0.816 0.816t-0.816 0.816h-2.424q-0.36 2.112-0.96 2.856-0.384 0.552-0.84 0.792-0.384 0.216-1.08 0.288zm-10.992-5.568h12.312q0.288-2.232 0.504-6h-11.88q-0.36 2.592-0.936 6zm8.4-0.72q-0.264 0.024-0.552-0.264-0.672-0.648-1.656-1.32-1.2-0.84-2.016-1.272-0.816-0.456-0.12-1.104 0.432-0.384 0.96-0.144 2.544 1.368 4.08 2.736 0.264 0.264 0.24 0.504-0.048 0.216-0.36 0.528t-0.576 0.336zm-7.224-6.912h11.736q0.12-1.872 0.24-5.28 0.024-0.576-0.48-0.576h-10.704q-0.24 1.968-0.792 5.856zm8.28-1.344q-0.552 0.624-1.104 0.12-0.648-0.552-1.512-1.104-0.888-0.6-1.8-1.104-0.744-0.408-0.144-1.056 0.408-0.432 0.936-0.192 2.112 1.08 3.648 2.304 0.288 0.264 0.288 0.504-0.024 0.216-0.312 0.528z"/><path d="m-1161 379.83q-2.736 0-4.44-4.56-1.512-4.032-2.04-11.184h-11.4q-0.864 0-0.864-0.888 0-0.864 0.864-0.864h11.28q-0.048-1.08-0.096-3.312v-0.072q-0.048-0.96 0.912-0.96 0.936 0 0.936 0.96 0.048 2.256 0.096 3.384h6.168q0.864 0 0.864 0.864 0 0.888-0.864 0.888h-6.096q0.456 6.168 1.752 9.96 1.32 3.936 3.048 3.936 0.672 0 0.912-2.208 0.072-0.84 0.336-1.344 0.336-0.624 0.84-0.312 0.264 0.168 0.384 0.768 0.096 0.48 0.048 0.936-0.264 2.28-0.864 3.168-0.576 0.84-1.776 0.84zm-17.4-0.888q-0.72 0.144-0.96-0.672-0.288-0.936 0.528-1.104 1.104-0.216 3.768-0.768 0.264-0.048 0.384-0.072v-6.96h-3.36q-0.864 0-0.864-0.864t0.864-0.864h8.688q0.864 0 0.864 0.864t-0.864 0.864h-3.576v6.576q0.768-0.168 2.328-0.504 1.248-0.24 1.896-0.384 0.84-0.192 0.912 0.672 0.072 0.744-0.672 0.888-6.48 1.56-9.936 2.328zm17.52-17.16q-0.264 0-0.552-0.312-0.288-0.288-1.008-0.912-0.048-0.024-0.12-0.096-0.72-0.624-1.056-0.912-0.696-0.48 0-1.08 0.48-0.408 0.984-0.048 1.416 0.984 2.472 2.016 0.456 0.48-0.144 1.032-0.336 0.288-0.576 0.312z"/></g><g transform="matrix(.26458 0 0 .26458 440.52 -48.997)" style="shape-inside:url(#rect48428-9-6);white-space:pre" aria-label=""><path d="m-1223.4 379.79q-0.888 0-0.888-0.864v-11.04q-1.2 3.576-2.592 5.712-0.36 0.504-0.624 0.456-0.24-0.048-0.576-0.6-0.216-0.36-0.216-0.6 0-0.264 0.24-0.552 1.008-1.416 1.92-3.528 0.936-2.112 1.464-4.152h-2.376q-0.84 0-0.84-0.84t0.84-0.84h2.76v-4.176q0-0.864 0.888-0.864 0.864 0 0.864 0.864v4.176h2.232q0.84 0 0.84 0.84t-0.84 0.84h-2.232v0.624q1.296 1.56 2.928 3.72 0.192 0.24 0.144 0.432-0.024 0.12-0.24 0.408l-0.048 0.072q-0.36 0.48-0.6 0.504-0.216 0.024-0.504-0.456-0.744-1.248-1.68-2.616v11.616q0 0.864-0.864 0.864zm7.944-0.072q-1.128 0-1.368-0.768-0.168-0.528 0.216-0.792 0.336-0.24 0.984-0.216 0.96 0 1.128-0.024 0.264-0.024 0.36-0.096t0.096-0.312v-10.416h-4.224q-0.84 0-0.84-0.84t0.84-0.84h10.872q0.84 0 0.84 0.84t-0.84 0.84h-4.896v10.44q0 0.792-0.192 1.176-0.192 0.432-0.696 0.648-0.576 0.312-2.28 0.36zm-3.168-2.88q-0.432 0.648-1.104 0.216-0.408-0.264-0.48-0.528-0.048-0.288 0.24-0.672 1.368-2.112 2.28-5.256 0.24-0.84 1.008-0.672 0.816 0.168 0.6 0.984-0.576 1.848-1.176 3.24-0.696 1.56-1.368 2.688zm11.376 0.36q-0.48 0.168-0.72 0.072t-0.336-0.552q-0.264-1.104-0.816-2.712-0.504-1.536-1.224-3.096-0.336-0.72 0.48-0.984 0.672-0.216 0.96 0.408 1.584 3.384 2.256 5.976 0.144 0.648-0.6 0.888zm-10.008-15.792q-0.84 0-0.84-0.84t0.84-0.84h8.616q0.84 0 0.84 0.84t-0.84 0.84z"/><path d="m-1201.3 378.66q-0.528 0.84-1.296 0.192-0.384-0.288-0.456-0.576-0.048-0.288 0.216-0.648 0.432-0.672 1.416-2.304 0.216-0.36 0.336-0.552 0.96-1.608 1.824-3.288 0.456-0.888 1.224-0.192 0.528 0.456 0.216 1.08-1.56 3.096-3.48 6.288zm4.248 0.408q-0.84 0-0.84-0.84 0-0.864 0.84-0.864h6v-5.808h-4.344q-0.84 0-0.84-0.84t0.84-0.84h4.344v-5.16h-5.232q-0.84 0-0.84-0.84t0.84-0.84h7.536q-1.536-1.656-4.416-3.36-0.936-0.48-0.264-1.272 0.504-0.576 1.152-0.216 2.256 1.224 4.008 2.664 0.336 0.288 0.36 0.768 0 0.504-0.36 0.96l-0.384 0.456h4.92q0.84 0 0.84 0.84t-0.84 0.84h-5.52v5.16h4.656q0.84 0 0.84 0.84t-0.84 0.84h-4.656v5.808h6q0.84 0 0.84 0.864 0 0.84-0.84 0.84h-6.912zm-2.016-11.616q-0.504 0.792-1.2 0.312-0.672-0.432-1.368-0.768-0.648-0.36-1.656-0.792-0.864-0.336-0.336-1.128 0.36-0.552 1.008-0.336 2.04 0.744 3.432 1.608 0.336 0.216 0.36 0.48 0 0.24-0.24 0.624zm0.672-5.712q-0.288 0.048-0.648-0.264-0.624-0.48-1.296-0.84-0.96-0.552-1.632-0.888-0.864-0.36-0.288-1.128 0.408-0.552 1.032-0.312 2.016 0.888 3.336 1.848 0.312 0.24 0.312 0.504 0 0.24-0.24 0.6-0.288 0.408-0.576 0.48z"/><path d="m-1161 379.83q-2.736 0-4.44-4.56-1.512-4.032-2.04-11.184h-11.4q-0.864 0-0.864-0.888 0-0.864 0.864-0.864h11.28q-0.048-1.08-0.096-3.312v-0.072q-0.048-0.96 0.912-0.96 0.936 0 0.936 0.96 0.048 2.256 0.096 3.384h6.168q0.864 0 0.864 0.864 0 0.888-0.864 0.888h-6.096q0.456 6.168 1.752 9.96 1.32 3.936 3.048 3.936 0.672 0 0.912-2.208 0.072-0.84 0.336-1.344 0.336-0.624 0.84-0.312 0.264 0.168 0.384 0.768 0.096 0.48 0.048 0.936-0.264 2.28-0.864 3.168-0.576 0.84-1.776 0.84zm-17.4-0.888q-0.72 0.144-0.96-0.672-0.288-0.936 0.528-1.104 1.104-0.216 3.768-0.768 0.264-0.048 0.384-0.072v-6.96h-3.36q-0.864 0-0.864-0.864t0.864-0.864h8.688q0.864 0 0.864 0.864t-0.864 0.864h-3.576v6.576q0.768-0.168 2.328-0.504 1.248-0.24 1.896-0.384 0.84-0.192 0.912 0.672 0.072 0.744-0.672 0.888-6.48 1.56-9.936 2.328zm17.52-17.16q-0.264 0-0.552-0.312-0.288-0.288-1.008-0.912-0.048-0.024-0.12-0.096-0.72-0.624-1.056-0.912-0.696-0.48 0-1.08 0.48-0.408 0.984-0.048 1.416 0.984 2.472 2.016 0.456 0.48-0.144 1.032-0.336 0.288-0.576 0.312z"/></g><g transform="matrix(.26458 0 0 .26458 378.49 -47.436)" style="shape-inside:url(#rect48463-6);white-space:pre" aria-label=""><path d="m-811.02 373.74q-0.864 0-0.864-0.84v-4.056l-3.576 0.696q-0.84 0.168-1.032-0.696-0.096-0.48 0.024-0.696 0.12-0.24 0.552-0.312 0.24-0.048 0.72-0.12 2.112-0.336 3.312-0.552v-3.456h-2.112q-0.192 0-0.576 0.048-0.624 0.048-0.864 0-0.432-0.096-0.576-0.504-0.12-0.36 0.048-0.864 0.096-0.288 0.456-0.936 0.312-0.576 0.432-0.888 0.504-1.104 1.368-4.176h-2.016q-0.816 0-0.816-0.84 0-0.816 0.816-0.816h2.424q0.264-1.128 0.408-1.896 0.144-0.864 0.984-0.672 0.864 0.168 0.696 0.96-0.144 0.672-0.408 1.608h3q0.816 0 0.816 0.816 0 0.84-0.816 0.84h-3.48q-0.912 3.024-2.112 5.688h2.328v-2.784q0-0.84 0.864-0.84 0.84 0 0.84 0.84v2.784h1.608q0.816 0 0.816 0.816t-0.816 0.816h-1.608v3.168l2.28-0.408q0.816-0.144 0.864 0.696 0.048 0.696-0.648 0.84l-2.496 0.504v4.392q0 0.84-0.84 0.84zm12.576-0.12q-0.288 0.048-0.624-0.264-2.16-2.04-5.208-4.008-0.768-0.504-0.168-1.152 0.48-0.504 1.032-0.168 1.248 0.768 1.872 1.2 0.792-1.032 2.304-3.168 0.36-0.504 0.528-0.744h-5.16q-0.744 0-1.056-0.408t-0.12-1.008 0.6-1.92q0.24-0.72 0.36-1.104h-2.664q-0.816 0-0.816-0.84 0-0.816 0.816-0.816h3.12q0.24-0.768 0.672-2.328 0.096-0.336 0.144-0.504h-3.048q-0.816 0-0.816-0.816t0.816-0.816h3.48q0.336-1.392 0.504-2.04 0.216-0.744 1.008-0.648 0.912 0.144 0.72 1.008-0.288 1.104-0.456 1.68h3.936q0.816 0 0.816 0.816t-0.816 0.816h-4.368q-0.12 0.456-0.384 1.416-0.264 0.936-0.408 1.416h5.976q0.816 0 0.816 0.816 0 0.84-0.816 0.84h-6.432q-0.072 0.264-0.216 0.768-0.408 1.368-0.6 1.992h5.424q0.816 0 1.056 0.432 0.24 0.408-0.168 1.128-1.44 2.352-3.432 4.968 1.584 1.104 2.352 1.824 0.528 0.504-0.024 1.152-0.336 0.408-0.552 0.48z"/><path d="m-779.73 373.84q-0.768 0.072-2.784-0.024-1.056-0.024-1.248-0.912v-0.024l-0.024-0.048q-0.384-0.744 0.648-0.648 1.248 0.072 2.832 0.072 0.816 0 1.104-0.264 0.744-0.624 1.176-3.576h-13.512q-0.816 0-0.816-0.84 0-0.816 0.816-0.816h13.752q0.024-0.216 0.072-0.648 0.12-1.032 0.168-1.608 0.024-0.552-0.456-0.552h-8.688l-0.024 0.048q-0.168 0.744-0.96 0.672-0.528-0.048-0.696-0.216-0.192-0.192-0.072-0.648 0.864-3.36 1.728-7.92 0.144-0.84 0.984-0.72 0.936 0.12 0.768 0.984-0.24 1.152-0.36 1.752h9.216q0.792 0 0.792 0.792t-0.792 0.792h-9.552q-0.432 1.968-0.648 2.856h9.264q1.44 0 1.272 1.848-0.144 1.56-0.24 2.568h3.936q0.816 0 0.816 0.816 0 0.84-0.816 0.84h-4.176q-0.528 3.696-1.512 4.656-0.672 0.696-1.968 0.768zm-11.184-15.408q-0.864 0-0.864-0.864v-2.928q0-0.624 0.384-1.008t1.008-0.384h17.136q0.624 0 1.008 0.384t0.384 1.008v2.904q0 0.888-0.888 0.888-0.912 0-0.912-0.888v-2.16q0-0.504-0.504-0.504h-15.384q-0.504 0-0.504 0.504v2.184q0 0.864-0.864 0.864z"/><path d="m-749.58 373.89q-2.736 0-4.44-4.56-1.512-4.032-2.04-11.184h-11.4q-0.864 0-0.864-0.888 0-0.864 0.864-0.864h11.28q-0.048-1.08-0.096-3.312v-0.072q-0.048-0.96 0.912-0.96 0.936 0 0.936 0.96 0.048 2.256 0.096 3.384h6.168q0.864 0 0.864 0.864 0 0.888-0.864 0.888h-6.096q0.456 6.168 1.752 9.96 1.32 3.936 3.048 3.936 0.672 0 0.912-2.208 0.072-0.84 0.336-1.344 0.336-0.624 0.84-0.312 0.264 0.168 0.384 0.768 0.096 0.48 0.048 0.936-0.264 2.28-0.864 3.168-0.576 0.84-1.776 0.84zm-17.4-0.888q-0.72 0.144-0.96-0.672-0.288-0.936 0.528-1.104 1.104-0.216 3.768-0.768 0.264-0.048 0.384-0.072v-6.96h-3.36q-0.864 0-0.864-0.864t0.864-0.864h8.688q0.864 0 0.864 0.864t-0.864 0.864h-3.576v6.576q0.768-0.168 2.328-0.504 1.248-0.24 1.896-0.384 0.84-0.192 0.912 0.672 0.072 0.744-0.672 0.888-6.48 1.56-9.936 2.328zm17.52-17.16q-0.264 0-0.552-0.312-0.288-0.288-1.008-0.912-0.048-0.024-0.12-0.096-0.72-0.624-1.056-0.912-0.696-0.48 0-1.08 0.48-0.408 0.984-0.048 1.416 0.984 2.472 2.016 0.456 0.48-0.144 1.032-0.336 0.288-0.576 0.312z"/></g><g transform="matrix(.26458 0 0 .26458 326.13 -39.7)" style="shape-inside:url(#rect48420-8-9);white-space:pre" aria-label="      "><path d="m-1217.9 378.13q-0.744 0.48-1.272-0.192-0.336-0.432-0.264-0.744t0.576-0.576q2.712-1.68 4.704-4.68-1.92-4.056-2.952-10.56-0.144-0.888 0.672-1.032t0.984 0.768q0.816 5.4 2.376 9 2.088-4.008 2.904-9.408 0.072-0.576-0.432-0.576h-6.528q-0.864 0-0.864-0.864t0.864-0.864h7.488q1.464 0 1.248 1.776-0.96 7.128-3.744 11.88 1.632 2.88 3.792 4.464 0.48 0.336 0.528 0.648 0.072 0.336-0.288 0.768-0.576 0.624-1.32 0.096-2.136-1.608-3.792-4.32-1.992 2.688-4.68 4.416zm-7.224 0.432q-0.984 0-1.2-0.648-0.336-0.96 1.056-0.912 0.696 0 0.864-0.024 0.384 0 0.384-0.36v-7.704h-4.008q-0.792 0-0.792-0.792t0.792-0.792h4.008v-2.688h-1.872q-0.576 0-0.912-0.336t-0.336-0.912v-0.072q-0.072 0.072-0.216 0.192-0.408 0.384-0.648 0.576-0.648 0.552-1.176 0-0.552-0.624 0.264-1.296 2.712-2.304 4.416-5.424 0.12-0.288 0.48-0.48t0.768-0.192h0.072q0.672 0 1.176 0.432 2.28 1.968 3.936 3.984 0.24 0.336 0.192 0.576-0.048 0.216-0.36 0.552-0.384 0.408-0.648 0.432-0.288 0.024-0.576-0.384-1.608-2.16-3.672-3.984-1.656 2.688-3.72 4.752h7.056q0.792 0 0.792 0.792t-0.792 0.792h-2.592v2.688h3.696q0.792 0 0.792 0.792t-0.792 0.792h-3.696v7.704q0 0.696-0.168 1.056-0.168 0.384-0.624 0.6-0.6 0.24-1.944 0.288zm-2.496-2.808q-0.384 0.624-1.056 0.24-0.384-0.216-0.456-0.456-0.048-0.24 0.192-0.6 0.936-1.584 1.56-3.864 0.24-0.816 0.984-0.648 0.768 0.168 0.552 0.96-0.288 1.056-0.816 2.376-0.384 0.96-0.96 1.992zm9.168-0.792q-0.432 0.168-0.696 0.072-0.24-0.12-0.336-0.552-0.24-0.744-0.504-1.416-0.384-0.96-0.72-1.68-0.384-0.744 0.408-1.032 0.648-0.24 0.96 0.384 1.008 1.944 1.416 3.384 0.096 0.336-0.048 0.528-0.12 0.168-0.48 0.312z"/><path d="m-1203.7 377.63q-0.912 0.744-1.392-0.216-0.432-0.768 0.264-1.272 1.344-0.984 2.736-2.256v-3.96q0-0.504-0.504-0.504h-1.776q-0.816 0-0.816-0.84 0-0.816 0.816-0.816h2.856q0.528 0 0.816 0.312 0.312 0.288 0.312 0.816v4.872q1.632 2.52 6 2.712 4.152 0.12 9.72-0.096 0.648-0.024 0.792 0.192 0.144 0.192-0.048 0.816-0.12 0.384-0.312 0.528-0.168 0.168-0.576 0.192-5.904 0.168-9.552 0.048-4.632-0.216-6.768-2.856-1.008 0.984-2.568 2.328zm11.952-2.448q-0.888 0-0.888-0.864v-11.808h-5.184q-0.816 0-0.816-0.84 0-0.816 0.816-0.816h5.184v-3.216q0-0.864 0.888-0.864 0.864 0 0.864 0.864v3.216h6.072q0.816 0 0.816 0.816 0 0.84-0.816 0.84h-6.072v11.808q0 0.864-0.864 0.864zm-5.928-1.968q-0.264 0.048-0.624-0.192-0.432-0.312-0.48-0.6-0.024-0.288 0.312-0.672 1.632-2.208 2.016-6.504 0.072-1.008 0.936-0.936 0.816 0.072 0.744 0.96-0.264 2.544-0.84 4.368-0.6 1.896-1.536 3.192-0.264 0.336-0.528 0.384zm10.968-0.048q-0.888 0-1.344-0.432-0.24-0.216-0.336-0.552-0.072-0.336-0.072-1.176v-5.952q0-0.768 0.792-0.768 0.768 0 0.768 0.768v6q0 0.24 0.12 0.336 0.192 0.144 0.48 0.144h0.624q0.408 0 0.576-0.12 0.192-0.12 0.264-0.456 0.024-0.264 0.072-0.936 0-1.344 0.84-0.864 0.48 0.264 0.432 0.984-0.096 1.44-0.216 1.872-0.144 0.576-0.672 0.912-0.432 0.24-1.152 0.24zm-13.656-8.016q-0.624 0.648-1.2 0.096-0.456-0.384-1.248-0.936t-1.44-0.912q-0.888-0.456-0.144-1.152 0.432-0.432 1.008-0.192 1.848 0.936 3.072 1.992 0.528 0.504-0.048 1.104zm0.096-4.368q-0.288 0.048-0.6-0.264-0.936-0.936-2.448-1.92-0.864-0.48-0.144-1.176 0.456-0.432 0.984-0.144 0.912 0.528 1.656 1.08 0.744 0.528 1.248 0.96 0.48 0.528-0.096 1.104-0.336 0.336-0.6 0.36zm14.904-0.912q-0.6 0.528-1.08-0.024-0.456-0.504-0.912-0.888l-0.072-0.048q-0.696-0.624-1.056-0.888-0.624-0.504 0-0.984 0.432-0.36 0.888-0.048 1.488 1.008 2.376 1.944 0.24 0.264 0.192 0.48-0.024 0.192-0.336 0.456z"/><path d="m-1161.8 378.59q-2.04 0-3.192-4.104-1.584 2.04-3.36 3.408-0.696 0.504-1.248-0.024-0.384-0.36-0.336-0.648t0.504-0.6q2.232-1.68 3.936-4.152-0.768-4.032-1.008-10.608h-7.152q-0.816 0-0.816-0.84 0-0.816 0.816-0.816h7.104q-0.024-0.576-0.048-1.752-0.024-0.6-0.024-0.888 0-0.864 0.864-0.864t0.864 0.888q0 1.776 0.024 2.616h3.216q0.48 0 0.24-0.312-0.672-0.744-1.968-1.776-0.6-0.456 0-0.984 0.432-0.36 0.888-0.048 0.912 0.624 1.608 1.296 0.36 0.36 0.336 0.864-0.024 0.48-0.456 0.888l-0.096 0.072h0.456q0.816 0 0.816 0.816 0 0.84-0.816 0.84h-4.176q0.144 4.584 0.648 8.424 1.248-2.424 2.064-5.376 0.216-0.792 1.008-0.648 0.864 0.144 0.576 1.056-1.224 4.2-3.216 7.392 0.912 4.176 2.16 4.176 0.456 0 0.624-1.464 0.048-0.696 0.288-1.128 0.264-0.528 0.696-0.216 0.384 0.264 0.312 1.368-0.192 1.776-0.672 2.448-0.456 0.696-1.464 0.696zm-12.288-2.856q-0.408 0.12-0.624-0.024t-0.336-0.576q-0.264-0.864 0.528-1.032 0.672-0.168 2.184-0.552 0.6-0.168 0.888-0.24 0.648-0.168 1.992-0.528 1.176-0.336 1.752-0.48 0.792-0.216 0.864 0.624 0.072 0.672-0.576 0.864-3.936 1.176-6.672 1.944zm-5.808-0.744q-0.432 0.216-0.696 0.096-0.264-0.144-0.456-0.624-0.312-0.84 0.456-1.176 0.984-0.432 1.872-0.84v-8.256h-1.632q-0.84 0-0.84-0.84t0.84-0.84h1.632v-4.704q0-0.84 0.84-0.84t0.84 0.84v4.704h1.32q0.84 0 0.84 0.84t-0.84 0.84h-1.32v7.464q0.912-0.456 1.392-0.672 0.816-0.408 1.08 0.48 0.216 0.696-0.432 1.032-1.224 0.624-3.648 1.872-0.84 0.408-1.248 0.624zm7.488-3.96q-0.624 0-1.008-0.384t-0.384-1.008v-4.128q0-0.624 0.384-1.008t1.008-0.384h3.12q0.624 0 1.008 0.384t0.384 1.008v4.128q0 0.624-0.384 1.008t-1.008 0.384h-1.56zm0.504-1.44h2.064q0.504 0 0.504-0.504v-3.024q0-0.504-0.504-0.504h-2.064q-0.504 0-0.504 0.504v3.024q0 0.504 0.504 0.504z"/><path d="m-1226.1 422.94q-0.624 0-1.008-0.384t-0.384-1.008v-11.952q0-0.84 0.864-0.84 0.84 0 0.84 0.84v11.208q0 0.504 0.504 0.504h16.68q0.816 0 0.816 0.816t-0.816 0.816zm4.344-3.696q-0.624 0-1.008-0.384t-0.384-1.008v-8.376q0-0.624 0.384-1.008t1.008-0.384h2.208q0.168-1.104 0.264-1.944h-8.64q-0.816 0-0.816-0.84 0-0.816 0.816-0.816h8.808q0.048-0.432 0.096-1.224v-0.072q0.024-0.984 1.056-0.912 1.008 0.072 0.888 1.08-0.024 0.192-0.072 0.576-0.048 0.36-0.072 0.552h8.4q0.816 0 0.816 0.816 0 0.84-0.816 0.84h-8.616q-0.072 0.456-0.216 1.32-0.072 0.432-0.096 0.624h5.688q0.624 0 1.008 0.384t0.384 1.008v8.376q0 0.624-0.384 1.008t-1.008 0.384h-4.848zm0.792-1.32h8.04q0.504 0 0.504-0.504v-1.512h-9.048v1.512q0 0.504 0.504 0.504zm-0.504-3.312h9.048v-1.944h-9.048zm0-3.24h9.048v-1.416q0-0.504-0.504-0.504h-8.04q-0.504 0-0.504 0.504z"/><path d="m-1200.2 423.15q-0.624 0-1.008-0.384t-0.384-1.008v-3.672q0-0.624 0.384-1.008t1.008-0.384h11.544q0.624 0 1.008 0.384t0.384 1.008v3.672q0 0.624-0.384 1.008t-1.008 0.384zm0.84-1.512h9.792q0.504 0 0.504-0.504v-2.424q0-0.504-0.504-0.504h-9.792q-0.504 0-0.504 0.504v2.424q0 0.504 0.504 0.504zm-1.248-6.792q-0.72 0-0.72-0.744 0-0.72 0.72-0.72h12.288q0.72 0 0.72 0.72 0 0.744-0.72 0.744h-6.144zm0.024-3.216q-0.744 0-0.744-0.744t0.744-0.744h12.24q0.744 0 0.744 0.744t-0.744 0.744zm-3.624-3.24q-0.768 0-0.768-0.792 0-0.768 0.768-0.768h19.632q0.768 0 0.768 0.768 0 0.792-0.768 0.792h-9.816zm4.008-3.312q-0.744 0-0.744-0.744t0.744-0.744h11.52q0.744 0 0.744 0.744t-0.744 0.744z"/><path d="m-1161.8 424.19q-2.04 0-3.192-4.104-1.584 2.04-3.36 3.408-0.696 0.504-1.248-0.024-0.384-0.36-0.336-0.648t0.504-0.6q2.232-1.68 3.936-4.152-0.768-4.032-1.008-10.608h-7.152q-0.816 0-0.816-0.84 0-0.816 0.816-0.816h7.104q-0.024-0.576-0.048-1.752-0.024-0.6-0.024-0.888 0-0.864 0.864-0.864t0.864 0.888q0 1.776 0.024 2.616h3.216q0.48 0 0.24-0.312-0.672-0.744-1.968-1.776-0.6-0.456 0-0.984 0.432-0.36 0.888-0.048 0.912 0.624 1.608 1.296 0.36 0.36 0.336 0.864-0.024 0.48-0.456 0.888l-0.096 0.072h0.456q0.816 0 0.816 0.816 0 0.84-0.816 0.84h-4.176q0.144 4.584 0.648 8.424 1.248-2.424 2.064-5.376 0.216-0.792 1.008-0.648 0.864 0.144 0.576 1.056-1.224 4.2-3.216 7.392 0.912 4.176 2.16 4.176 0.456 0 0.624-1.464 0.048-0.696 0.288-1.128 0.264-0.528 0.696-0.216 0.384 0.264 0.312 1.368-0.192 1.776-0.672 2.448-0.456 0.696-1.464 0.696zm-12.288-2.856q-0.408 0.12-0.624-0.024t-0.336-0.576q-0.264-0.864 0.528-1.032 0.672-0.168 2.184-0.552 0.6-0.168 0.888-0.24 0.648-0.168 1.992-0.528 1.176-0.336 1.752-0.48 0.792-0.216 0.864 0.624 0.072 0.672-0.576 0.864-3.936 1.176-6.672 1.944zm-5.808-0.744q-0.432 0.216-0.696 0.096-0.264-0.144-0.456-0.624-0.312-0.84 0.456-1.176 0.984-0.432 1.872-0.84v-8.256h-1.632q-0.84 0-0.84-0.84t0.84-0.84h1.632v-4.704q0-0.84 0.84-0.84t0.84 0.84v4.704h1.32q0.84 0 0.84 0.84t-0.84 0.84h-1.32v7.464q0.912-0.456 1.392-0.672 0.816-0.408 1.08 0.48 0.216 0.696-0.432 1.032-1.224 0.624-3.648 1.872-0.84 0.408-1.248 0.624zm7.488-3.96q-0.624 0-1.008-0.384t-0.384-1.008v-4.128q0-0.624 0.384-1.008t1.008-0.384h3.12q0.624 0 1.008 0.384t0.384 1.008v4.128q0 0.624-0.384 1.008t-1.008 0.384h-1.56zm0.504-1.44h2.064q0.504 0 0.504-0.504v-3.024q0-0.504-0.504-0.504h-2.064q-0.504 0-0.504 0.504v3.024q0 0.504 0.504 0.504z"/><path d="m-1227.5 469.81q-0.792 0-0.792-0.768v-18.744q0-0.624 0.384-1.008t1.008-0.384h3.528q0.72 0 1.032 0.432t0.12 1.2q-0.696 2.592-1.8 5.424 1.992 2.52 1.992 5.352 0 2.184-0.888 2.832-0.456 0.384-1.2 0.456-0.144 0.024-0.528 0.048-0.168 0.024-0.264 0.024-0.696-0.048-0.768-0.648 0-0.072-0.024-0.216l-0.024-0.048q-0.312-0.72 0.504-0.648 0.096 0 0.24 0 0.168-0.024 0.24-0.024 0.408-0.048 0.648-0.216 0.456-0.36 0.456-1.728 0-2.088-1.2-3.984-0.672-1.008-0.408-1.896 0.6-1.824 1.416-4.752h-2.4q-0.504 0-0.504 0.504v18.024q0 0.768-0.768 0.768zm14.64-0.048q-1.128 0-1.368-0.72-0.168-0.528 0.216-0.792 0.336-0.24 1.008-0.216 0.6 0 1.176 0 0.504-0.024 0.504-0.528v-12.48h-5.088q-0.816 0-0.816-0.84 0-0.816 0.816-0.816h5.088v-4.344q0-0.84 0.864-0.84 0.84 0 0.84 0.84v4.344h1.272q0.816 0 0.816 0.816 0 0.84-0.816 0.84h-1.272v12.48q0 0.792-0.216 1.224-0.192 0.432-0.672 0.672-0.672 0.312-2.352 0.36zm-6.288-0.096q-0.792 0-0.792-0.792v-12.744q-0.528 0.84-1.056 1.536-0.336 0.432-0.624 0.432-0.312 0-0.648-0.432-0.264-0.36-0.288-0.624 0-0.288 0.288-0.624 2.448-3.12 3.936-7.704 0.264-0.816 1.056-0.6 0.816 0.216 0.576 1.008-0.768 2.256-1.656 4.104v15.648q0 0.792-0.792 0.792zm5.664-6.552q-0.792 0.408-1.056-0.312-0.264-0.744-0.816-1.944-0.216-0.48-0.672-1.464-0.24-0.504-0.36-0.744-0.312-0.648 0.384-0.936 0.648-0.312 0.96 0.288 1.344 2.52 2.016 4.224 0.216 0.552-0.456 0.888z"/><path d="m-1202.5 468.66q-0.528 0.84-1.296 0.192-0.384-0.288-0.456-0.576-0.048-0.288 0.216-0.648 0.432-0.672 1.416-2.304 0.216-0.36 0.336-0.552 0.96-1.608 1.824-3.288 0.456-0.888 1.224-0.192 0.528 0.456 0.216 1.08-1.56 3.096-3.48 6.288zm4.248 0.408q-0.84 0-0.84-0.84 0-0.864 0.84-0.864h6v-5.808h-4.344q-0.84 0-0.84-0.84t0.84-0.84h4.344v-5.16h-5.232q-0.84 0-0.84-0.84t0.84-0.84h7.536q-1.536-1.656-4.416-3.36-0.936-0.48-0.264-1.272 0.504-0.576 1.152-0.216 2.256 1.224 4.008 2.664 0.336 0.288 0.36 0.768 0 0.504-0.36 0.96l-0.384 0.456h4.92q0.84 0 0.84 0.84t-0.84 0.84h-5.52v5.16h4.656q0.84 0 0.84 0.84t-0.84 0.84h-4.656v5.808h6q0.84 0 0.84 0.864 0 0.84-0.84 0.84h-6.912zm-2.016-11.616q-0.504 0.792-1.2 0.312-0.672-0.432-1.368-0.768-0.648-0.36-1.656-0.792-0.864-0.336-0.336-1.128 0.36-0.552 1.008-0.336 2.04 0.744 3.432 1.608 0.336 0.216 0.36 0.48 0 0.24-0.24 0.624zm0.672-5.712q-0.288 0.048-0.648-0.264-0.624-0.48-1.296-0.84-0.96-0.552-1.632-0.888-0.864-0.36-0.288-1.128 0.408-0.552 1.032-0.312 2.016 0.888 3.336 1.848 0.312 0.24 0.312 0.504 0 0.24-0.24 0.6-0.288 0.408-0.576 0.48z"/><path d="m-1161.8 469.79q-2.04 0-3.192-4.104-1.584 2.04-3.36 3.408-0.696 0.504-1.248-0.024-0.384-0.36-0.336-0.648t0.504-0.6q2.232-1.68 3.936-4.152-0.768-4.032-1.008-10.608h-7.152q-0.816 0-0.816-0.84 0-0.816 0.816-0.816h7.104q-0.024-0.576-0.048-1.752-0.024-0.6-0.024-0.888 0-0.864 0.864-0.864t0.864 0.888q0 1.776 0.024 2.616h3.216q0.48 0 0.24-0.312-0.672-0.744-1.968-1.776-0.6-0.456 0-0.984 0.432-0.36 0.888-0.048 0.912 0.624 1.608 1.296 0.36 0.36 0.336 0.864-0.024 0.48-0.456 0.888l-0.096 0.072h0.456q0.816 0 0.816 0.816 0 0.84-0.816 0.84h-4.176q0.144 4.584 0.648 8.424 1.248-2.424 2.064-5.376 0.216-0.792 1.008-0.648 0.864 0.144 0.576 1.056-1.224 4.2-3.216 7.392 0.912 4.176 2.16 4.176 0.456 0 0.624-1.464 0.048-0.696 0.288-1.128 0.264-0.528 0.696-0.216 0.384 0.264 0.312 1.368-0.192 1.776-0.672 2.448-0.456 0.696-1.464 0.696zm-12.288-2.856q-0.408 0.12-0.624-0.024t-0.336-0.576q-0.264-0.864 0.528-1.032 0.672-0.168 2.184-0.552 0.6-0.168 0.888-0.24 0.648-0.168 1.992-0.528 1.176-0.336 1.752-0.48 0.792-0.216 0.864 0.624 0.072 0.672-0.576 0.864-3.936 1.176-6.672 1.944zm-5.808-0.744q-0.432 0.216-0.696 0.096-0.264-0.144-0.456-0.624-0.312-0.84 0.456-1.176 0.984-0.432 1.872-0.84v-8.256h-1.632q-0.84 0-0.84-0.84t0.84-0.84h1.632v-4.704q0-0.84 0.84-0.84t0.84 0.84v4.704h1.32q0.84 0 0.84 0.84t-0.84 0.84h-1.32v7.464q0.912-0.456 1.392-0.672 0.816-0.408 1.08 0.48 0.216 0.696-0.432 1.032-1.224 0.624-3.648 1.872-0.84 0.408-1.248 0.624zm7.488-3.96q-0.624 0-1.008-0.384t-0.384-1.008v-4.128q0-0.624 0.384-1.008t1.008-0.384h3.12q0.624 0 1.008 0.384t0.384 1.008v4.128q0 0.624-0.384 1.008t-1.008 0.384h-1.56zm0.504-1.44h2.064q0.504 0 0.504-0.504v-3.024q0-0.504-0.504-0.504h-2.064q-0.504 0-0.504 0.504v3.024q0 0.504 0.504 0.504z"/><path d="m-1220.2 514.91q-1.896 0-2.568-0.504-0.648-0.504-0.648-1.92v-3.888q0-0.864 0.888-0.864 0.864 0 0.864 0.864v3.864q0 0.504 0.288 0.648t1.296 0.144h4.512q0.576 0 0.84-0.192 0.288-0.192 0.432-0.792 0.072-0.768 0.336-1.272 0.336-0.624 0.84-0.408 0.312 0.12 0.456 0.672 0.096 0.432 0.048 0.936-0.216 1.584-0.816 2.136-0.6 0.576-1.992 0.576h-2.4zm-6.84-1.368q-0.432 0.624-1.152 0.24-0.888-0.456-0.336-1.248 1.056-1.704 1.8-4.104 0.24-0.816 1.056-0.528 0.768 0.264 0.552 1.008-0.384 1.248-0.84 2.424-0.48 1.224-1.08 2.208zm18.456 0.024q-0.48 0.216-0.768 0.12-0.312-0.096-0.456-0.552-0.408-0.936-1.008-2.04-0.576-1.104-1.368-2.328-0.528-0.792 0.384-1.152 0.648-0.264 1.056 0.288 1.728 2.376 2.688 4.632 0.144 0.384 0.024 0.624-0.12 0.216-0.552 0.408zm-7.104-3.816q-0.6 0.6-1.152 0.072-0.624-0.552-1.656-1.272-1.104-0.768-1.944-1.248-0.816-0.48-0.072-1.128 0.456-0.432 0.984-0.144 2.232 1.2 3.912 2.64 0.288 0.288 0.264 0.528t-0.336 0.552zm-9.696-4.464q-0.624 0-1.008-0.384t-0.384-1.008v-7.968q0-0.624 0.384-1.008t1.008-0.384h13.752q0.624 0 1.008 0.384t0.384 1.008v7.968q0 0.624-0.384 1.008t-1.008 0.384zm0.768-1.584h5.256v-3.048h-5.76v2.544q0 0.504 0.504 0.504zm7.008 0h5.112q0.504 0 0.504-0.504v-2.544h-5.616zm-7.512-4.56h5.76v-3.024h-5.256q-0.504 0-0.504 0.504zm7.512 0h5.616v-2.52q0-0.504-0.504-0.504h-5.112z"/><path d="m-1194.5 515.43q-0.864 0-0.864-0.864v-5.04q-2.544 0.072-7.056 0.168-1.056 0.024-1.536 0.024-0.648 0.024-0.696-0.792-0.048-0.84 0.696-0.84 2.952 0 4.68-0.024 0.696-0.384 1.632-1.032-1.416-1.176-3.6-2.376-0.84-0.456-0.12-1.08 0.432-0.36 0.936-0.12 0.216 0.12 0.696 0.36 1.632-1.248 3.096-2.808h-5.688q-0.504 0-0.504 0.504v1.584q0 0.84-0.84 0.84t-0.84-0.84v-2.232q0-0.624 0.384-1.008t1.008-0.384h7.728v-2.328h-8.28q-0.768 0-0.768-0.792 0-0.768 0.768-0.768h8.28v-1.248q0-0.864 0.888-0.864 0.864 0 0.864 0.864v1.248h8.352q0.768 0 0.768 0.768 0 0.792-0.768 0.792h-8.352v2.328h7.944q0.624 0 1.008 0.384t0.384 1.008v2.208q0 0.864-0.864 0.864-0.888 0-0.888-0.864v-1.56q0-0.504-0.504-0.504h-8.808l0.432 0.216q0.288 0.144 0.072 0.36-2.016 1.896-3.552 2.976 1.56 0.984 2.208 1.512 2.712-1.92 4.584-3.552 0.456-0.384 1.08-0.072 0.984 0.528 0.144 1.2-2.784 2.208-6.192 4.392 2.568-0.024 7.968-0.12-0.576-0.408-1.728-1.2-0.24-0.168-0.36-0.24-0.672-0.432 0-1.008 0.432-0.36 0.912-0.072 3.024 1.824 5.04 3.576 0.312 0.264 0.264 0.528-0.048 0.216-0.384 0.528-0.6 0.504-1.128 0l-0.024-0.024q-0.528-0.504-0.84-0.744l-6.768 0.216v5.088q0 0.864-0.864 0.864zm-8.688-0.624q-0.624 0.312-1.128-0.144-0.864-0.792 0.264-1.296 2.616-1.296 4.2-2.76 0.432-0.384 1.056-0.168 1.032 0.384 0.288 1.128-0.936 0.792-2.112 1.632-1.248 0.888-2.568 1.608zm17.736 0.072q-0.264 0.024-0.528-0.24-1.68-1.392-4.392-2.952-0.984-0.528-0.096-1.128 0.456-0.288 0.912-0.096 1.488 0.768 2.784 1.584 1.152 0.744 2.04 1.368 0.384 0.312 0.336 0.576-0.048 0.288-0.48 0.6-0.36 0.264-0.576 0.288z"/><path d="m-1161.8 515.39q-2.04 0-3.192-4.104-1.584 2.04-3.36 3.408-0.696 0.504-1.248-0.024-0.384-0.36-0.336-0.648t0.504-0.6q2.232-1.68 3.936-4.152-0.768-4.032-1.008-10.608h-7.152q-0.816 0-0.816-0.84 0-0.816 0.816-0.816h7.104q-0.024-0.576-0.048-1.752-0.024-0.6-0.024-0.888 0-0.864 0.864-0.864t0.864 0.888q0 1.776 0.024 2.616h3.216q0.48 0 0.24-0.312-0.672-0.744-1.968-1.776-0.6-0.456 0-0.984 0.432-0.36 0.888-0.048 0.912 0.624 1.608 1.296 0.36 0.36 0.336 0.864-0.024 0.48-0.456 0.888l-0.096 0.072h0.456q0.816 0 0.816 0.816 0 0.84-0.816 0.84h-4.176q0.144 4.584 0.648 8.424 1.248-2.424 2.064-5.376 0.216-0.792 1.008-0.648 0.864 0.144 0.576 1.056-1.224 4.2-3.216 7.392 0.912 4.176 2.16 4.176 0.456 0 0.624-1.464 0.048-0.696 0.288-1.128 0.264-0.528 0.696-0.216 0.384 0.264 0.312 1.368-0.192 1.776-0.672 2.448-0.456 0.696-1.464 0.696zm-12.288-2.856q-0.408 0.12-0.624-0.024t-0.336-0.576q-0.264-0.864 0.528-1.032 0.672-0.168 2.184-0.552 0.6-0.168 0.888-0.24 0.648-0.168 1.992-0.528 1.176-0.336 1.752-0.48 0.792-0.216 0.864 0.624 0.072 0.672-0.576 0.864-3.936 1.176-6.672 1.944zm-5.808-0.744q-0.432 0.216-0.696 0.096-0.264-0.144-0.456-0.624-0.312-0.84 0.456-1.176 0.984-0.432 1.872-0.84v-8.256h-1.632q-0.84 0-0.84-0.84t0.84-0.84h1.632v-4.704q0-0.84 0.84-0.84t0.84 0.84v4.704h1.32q0.84 0 0.84 0.84t-0.84 0.84h-1.32v7.464q0.912-0.456 1.392-0.672 0.816-0.408 1.08 0.48 0.216 0.696-0.432 1.032-1.224 0.624-3.648 1.872-0.84 0.408-1.248 0.624zm7.488-3.96q-0.624 0-1.008-0.384t-0.384-1.008v-4.128q0-0.624 0.384-1.008t1.008-0.384h3.12q0.624 0 1.008 0.384t0.384 1.008v4.128q0 0.624-0.384 1.008t-1.008 0.384h-1.56zm0.504-1.44h2.064q0.504 0 0.504-0.504v-3.024q0-0.504-0.504-0.504h-2.064q-0.504 0-0.504 0.504v3.024q0 0.504 0.504 0.504z"/><path d="m-1218.5 561.03q-0.888 0-0.888-0.888v-3.816h-7.872q-0.84 0-0.84-0.864 0-0.84 0.84-0.84h7.872v-2.928h-4.536q-0.84 0-0.84-0.84t0.84-0.84h4.536v-2.04q0-0.888 0.888-0.888t0.888 0.888v2.04h4.728q0.84 0 0.84 0.84t-0.84 0.84h-4.728v2.928h8.064q0.84 0 0.84 0.84 0 0.864-0.84 0.864h-8.064v3.816q0 0.888-0.888 0.888zm-9.216-9.288q-0.744 0.36-1.2-0.216-0.36-0.432-0.264-0.72 0.12-0.288 0.648-0.552 3.432-1.824 5.304-4.848h-4.944q-0.816 0-0.816-0.816t0.816-0.816h3.984q-0.48-1.08-1.752-2.64-0.648-0.792 0.24-1.224 0.624-0.288 1.08 0.216 0.84 0.984 1.488 1.968 0.264 0.432 0.096 0.912-0.144 0.456-0.672 0.744l-0.072 0.024h8.52q1.464-1.824 2.52-3.672 0.384-0.72 1.2-0.456 1.056 0.336 0.384 1.32-1.152 1.608-2.16 2.808h4.536q0.816 0 0.816 0.816t-0.816 0.816h-4.848q2.016 2.904 5.232 4.56 0.552 0.264 0.648 0.576t-0.264 0.768q-0.48 0.6-1.248 0.216-1.824-1.056-3.48-2.664-1.632-1.632-2.688-3.456h-6q-1.032 1.968-2.712 3.648-1.656 1.656-3.576 2.688zm9.72-8.76q-0.816 0.384-1.128-0.384-0.024-0.072-0.096-0.192-0.288-0.576-0.456-0.864-0.36-0.672-0.72-1.2-0.552-0.768 0.312-1.128 0.6-0.288 1.008 0.264 0.984 1.344 1.536 2.544 0.168 0.36 0.048 0.576-0.096 0.192-0.504 0.384z"/><path d="m-1187.9 561.01q-1.104 0-1.32-0.672-0.192-0.528 0.216-0.816 0.336-0.24 1.008-0.216 0.744 0 1.488 0 0.312-0.024 0.408-0.144 0.12-0.096 0.12-0.408v-18.48q0-0.816 0.816-0.816t0.816 0.816v18.48q0 0.84-0.216 1.272t-0.744 0.648q-0.744 0.288-2.592 0.336zm-13.896-0.024q-0.84 0-0.84-0.816v-12.696q-0.744 1.272-1.44 2.184-0.408 0.528-0.72 0.528-0.312-0.024-0.624-0.624-0.336-0.72 0.096-1.272 2.592-3.24 4.344-8.304 0.264-0.816 1.056-0.6 0.84 0.216 0.552 1.056-0.648 1.872-1.608 3.936v15.792q0 0.816-0.816 0.816zm4.032-0.408q-0.36 0.288-0.6 0.24-0.24-0.024-0.552-0.408-0.336-0.408-0.288-0.696t0.48-0.624q2.472-2.088 3.96-5.64-1.272-1.368-3.048-2.592-0.408 0.864-1.008 1.68-0.576 0.72-1.152 0.048-0.48-0.552-0.048-1.104 2.208-3.12 3.168-9.576h-1.344q-0.792 0-0.792-0.816 0-0.792 0.792-0.792h6.984q0.792 0 0.792 0.792 0 0.816-0.792 0.816h-3.936q-0.288 1.656-0.648 3.384h3.12q1.488 0 1.224 1.968-1.536 9.336-6.312 13.32zm8.256-5.04q-0.792 0-0.792-0.792v-12.168q0-0.792 0.792-0.792t0.792 0.792v12.168q0 0.792-0.792 0.792zm-4.632-3.744q0.696-2.04 1.056-4.416 0.072-0.528-0.432-0.528h-2.712q-0.36 1.224-0.912 2.592 1.8 1.176 3 2.352z"/><path d="m-1161.8 560.99q-2.04 0-3.192-4.104-1.584 2.04-3.36 3.408-0.696 0.504-1.248-0.024-0.384-0.36-0.336-0.648t0.504-0.6q2.232-1.68 3.936-4.152-0.768-4.032-1.008-10.608h-7.152q-0.816 0-0.816-0.84 0-0.816 0.816-0.816h7.104q-0.024-0.576-0.048-1.752-0.024-0.6-0.024-0.888 0-0.864 0.864-0.864t0.864 0.888q0 1.776 0.024 2.616h3.216q0.48 0 0.24-0.312-0.672-0.744-1.968-1.776-0.6-0.456 0-0.984 0.432-0.36 0.888-0.048 0.912 0.624 1.608 1.296 0.36 0.36 0.336 0.864-0.024 0.48-0.456 0.888l-0.096 0.072h0.456q0.816 0 0.816 0.816 0 0.84-0.816 0.84h-4.176q0.144 4.584 0.648 8.424 1.248-2.424 2.064-5.376 0.216-0.792 1.008-0.648 0.864 0.144 0.576 1.056-1.224 4.2-3.216 7.392 0.912 4.176 2.16 4.176 0.456 0 0.624-1.464 0.048-0.696 0.288-1.128 0.264-0.528 0.696-0.216 0.384 0.264 0.312 1.368-0.192 1.776-0.672 2.448-0.456 0.696-1.464 0.696zm-12.288-2.856q-0.408 0.12-0.624-0.024t-0.336-0.576q-0.264-0.864 0.528-1.032 0.672-0.168 2.184-0.552 0.6-0.168 0.888-0.24 0.648-0.168 1.992-0.528 1.176-0.336 1.752-0.48 0.792-0.216 0.864 0.624 0.072 0.672-0.576 0.864-3.936 1.176-6.672 1.944zm-5.808-0.744q-0.432 0.216-0.696 0.096-0.264-0.144-0.456-0.624-0.312-0.84 0.456-1.176 0.984-0.432 1.872-0.84v-8.256h-1.632q-0.84 0-0.84-0.84t0.84-0.84h1.632v-4.704q0-0.84 0.84-0.84t0.84 0.84v4.704h1.32q0.84 0 0.84 0.84t-0.84 0.84h-1.32v7.464q0.912-0.456 1.392-0.672 0.816-0.408 1.08 0.48 0.216 0.696-0.432 1.032-1.224 0.624-3.648 1.872-0.84 0.408-1.248 0.624zm7.488-3.96q-0.624 0-1.008-0.384t-0.384-1.008v-4.128q0-0.624 0.384-1.008t1.008-0.384h3.12q0.624 0 1.008 0.384t0.384 1.008v4.128q0 0.624-0.384 1.008t-1.008 0.384h-1.56zm0.504-1.44h2.064q0.504 0 0.504-0.504v-3.024q0-0.504-0.504-0.504h-2.064q-0.504 0-0.504 0.504v3.024q0 0.504 0.504 0.504z"/><path d="m-1214.5 606.59q-0.864 0-0.864-0.864v-4.848h-5.208q-0.816 0-0.816-0.84 0-0.816 0.816-0.816h5.208v-3.384h-3.888q-0.816 0-0.816-0.84 0-0.816 0.816-0.816h3.888v-3.264h-4.656q-0.816 0-0.816-0.84 0-0.816 0.816-0.816h7.032q1.056-1.752 1.92-3.84 0.288-0.792 1.152-0.504 0.96 0.312 0.48 1.224-0.768 1.584-1.68 3.12h1.968q0.816 0 0.816 0.816 0 0.84-0.816 0.84h-4.488v3.264h3.768q0.816 0 0.816 0.816 0 0.84-0.816 0.84h-3.768v3.384h5.04q0.816 0 0.816 0.816 0 0.84-0.816 0.84h-5.04v4.848q0 0.864-0.864 0.864zm-11.328-0.432q-0.144-0.336-0.504-0.768-0.192-0.216-0.216-0.504 0-0.288 0.144-0.432 0.744-0.84 0.744-1.896v-8.136q0-0.504-0.504-0.504h-2.256q-0.864 0-0.864-0.864t0.864-0.864h3.192q0.576 0 0.912 0.336t0.336 0.912v8.952l1.56-1.2q0.744-0.6 1.128 0.24 0.12 0.312-0.24 0.864-0.312 0.432-0.696 0.744-2.16 1.728-2.736 2.208-0.648 0.552-0.864 0.888zm2.424-16.848q-0.672 0.744-1.224 0.048-0.624-0.672-1.056-1.104-0.696-0.696-1.416-1.344-0.6-0.552-0.024-1.128 0.528-0.528 1.104-0.072 1.776 1.512 2.712 2.544 0.264 0.288 0.216 0.528-0.024 0.216-0.312 0.528zm6.744-0.432q-0.84 0.36-1.152-0.432-0.096-0.24-0.384-0.792-0.096-0.192-0.144-0.288-0.384-0.72-0.696-1.224-0.504-0.768 0.408-1.104 0.624-0.24 1.032 0.336 0.912 1.464 1.416 2.52 0.288 0.648-0.48 0.984z"/><path d="m-1203.7 605.63q-0.912 0.744-1.392-0.216-0.432-0.768 0.264-1.272 1.344-0.984 2.736-2.256v-3.96q0-0.504-0.504-0.504h-1.776q-0.816 0-0.816-0.84 0-0.816 0.816-0.816h2.856q0.528 0 0.816 0.312 0.312 0.288 0.312 0.816v4.872q1.632 2.52 6 2.712 4.152 0.12 9.72-0.096 0.648-0.024 0.792 0.192 0.144 0.192-0.048 0.816-0.12 0.384-0.312 0.528-0.168 0.168-0.576 0.192-5.904 0.168-9.552 0.048-4.632-0.216-6.768-2.856-1.008 0.984-2.568 2.328zm11.952-2.448q-0.888 0-0.888-0.864v-11.808h-5.184q-0.816 0-0.816-0.84 0-0.816 0.816-0.816h5.184v-3.216q0-0.864 0.888-0.864 0.864 0 0.864 0.864v3.216h6.072q0.816 0 0.816 0.816 0 0.84-0.816 0.84h-6.072v11.808q0 0.864-0.864 0.864zm-5.928-1.968q-0.264 0.048-0.624-0.192-0.432-0.312-0.48-0.6-0.024-0.288 0.312-0.672 1.632-2.208 2.016-6.504 0.072-1.008 0.936-0.936 0.816 0.072 0.744 0.96-0.264 2.544-0.84 4.368-0.6 1.896-1.536 3.192-0.264 0.336-0.528 0.384zm10.968-0.048q-0.888 0-1.344-0.432-0.24-0.216-0.336-0.552-0.072-0.336-0.072-1.176v-5.952q0-0.768 0.792-0.768 0.768 0 0.768 0.768v6q0 0.24 0.12 0.336 0.192 0.144 0.48 0.144h0.624q0.408 0 0.576-0.12 0.192-0.12 0.264-0.456 0.024-0.264 0.072-0.936 0-1.344 0.84-0.864 0.48 0.264 0.432 0.984-0.096 1.44-0.216 1.872-0.144 0.576-0.672 0.912-0.432 0.24-1.152 0.24zm-13.656-8.016q-0.624 0.648-1.2 0.096-0.456-0.384-1.248-0.936t-1.44-0.912q-0.888-0.456-0.144-1.152 0.432-0.432 1.008-0.192 1.848 0.936 3.072 1.992 0.528 0.504-0.048 1.104zm0.096-4.368q-0.288 0.048-0.6-0.264-0.936-0.936-2.448-1.92-0.864-0.48-0.144-1.176 0.456-0.432 0.984-0.144 0.912 0.528 1.656 1.08 0.744 0.528 1.248 0.96 0.48 0.528-0.096 1.104-0.336 0.336-0.6 0.36zm14.904-0.912q-0.6 0.528-1.08-0.024-0.456-0.504-0.912-0.888l-0.072-0.048q-0.696-0.624-1.056-0.888-0.624-0.504 0-0.984 0.432-0.36 0.888-0.048 1.488 1.008 2.376 1.944 0.24 0.264 0.192 0.48-0.024 0.192-0.336 0.456z"/><path d="m-1161.8 606.59q-2.04 0-3.192-4.104-1.584 2.04-3.36 3.408-0.696 0.504-1.248-0.024-0.384-0.36-0.336-0.648t0.504-0.6q2.232-1.68 3.936-4.152-0.768-4.032-1.008-10.608h-7.152q-0.816 0-0.816-0.84 0-0.816 0.816-0.816h7.104q-0.024-0.576-0.048-1.752-0.024-0.6-0.024-0.888 0-0.864 0.864-0.864t0.864 0.888q0 1.776 0.024 2.616h3.216q0.48 0 0.24-0.312-0.672-0.744-1.968-1.776-0.6-0.456 0-0.984 0.432-0.36 0.888-0.048 0.912 0.624 1.608 1.296 0.36 0.36 0.336 0.864-0.024 0.48-0.456 0.888l-0.096 0.072h0.456q0.816 0 0.816 0.816 0 0.84-0.816 0.84h-4.176q0.144 4.584 0.648 8.424 1.248-2.424 2.064-5.376 0.216-0.792 1.008-0.648 0.864 0.144 0.576 1.056-1.224 4.2-3.216 7.392 0.912 4.176 2.16 4.176 0.456 0 0.624-1.464 0.048-0.696 0.288-1.128 0.264-0.528 0.696-0.216 0.384 0.264 0.312 1.368-0.192 1.776-0.672 2.448-0.456 0.696-1.464 0.696zm-12.288-2.856q-0.408 0.12-0.624-0.024t-0.336-0.576q-0.264-0.864 0.528-1.032 0.672-0.168 2.184-0.552 0.6-0.168 0.888-0.24 0.648-0.168 1.992-0.528 1.176-0.336 1.752-0.48 0.792-0.216 0.864 0.624 0.072 0.672-0.576 0.864-3.936 1.176-6.672 1.944zm-5.808-0.744q-0.432 0.216-0.696 0.096-0.264-0.144-0.456-0.624-0.312-0.84 0.456-1.176 0.984-0.432 1.872-0.84v-8.256h-1.632q-0.84 0-0.84-0.84t0.84-0.84h1.632v-4.704q0-0.84 0.84-0.84t0.84 0.84v4.704h1.32q0.84 0 0.84 0.84t-0.84 0.84h-1.32v7.464q0.912-0.456 1.392-0.672 0.816-0.408 1.08 0.48 0.216 0.696-0.432 1.032-1.224 0.624-3.648 1.872-0.84 0.408-1.248 0.624zm7.488-3.96q-0.624 0-1.008-0.384t-0.384-1.008v-4.128q0-0.624 0.384-1.008t1.008-0.384h3.12q0.624 0 1.008 0.384t0.384 1.008v4.128q0 0.624-0.384 1.008t-1.008 0.384h-1.56zm0.504-1.44h2.064q0.504 0 0.504-0.504v-3.024q0-0.504-0.504-0.504h-2.064q-0.504 0-0.504 0.504v3.024q0 0.504 0.504 0.504z"/></g></g></g><path d="m162.58 12.146q0.0551 0.01929 0.0496 0.08544-3e-3 0.06614-0.0827 0.20395-0.0799 0.1378-0.13505 0.17363-0.0551 0.03307-0.0992-0.0028l-0.54846-0.43822 0.11024 0.69177q0.0138 0.05788-0.0469 0.08819-0.0606 0.03032-0.22048 0.03032-0.15986 0-0.22049-0.03032-0.0606-0.03032-0.0469-0.08819l0.11024-0.69177-0.54845 0.43822q-0.0413 0.03583-0.0965 0-0.0551-0.03583-0.13781-0.17363-0.0799-0.13505-0.0827-0.20119-3e-3 -0.06615 0.0496-0.08544l0.65595-0.25356-0.65595-0.25356q-0.0524-0.01929-0.0496-0.08544 3e-3 -0.06615 0.0827-0.20395 0.0799-0.1378 0.13505-0.17363 0.0579-0.03583 0.0992 0.0028l0.54846 0.43822-0.11024-0.69178q-0.0138-0.05512 0.0469-0.08544 0.0606-0.03307 0.22048-0.03307 0.15985 0 0.22049 0.03307 0.0606 0.03032 0.0469 0.08544l-0.11025 0.69178 0.54846-0.43822q0.0441-0.03858 0.0965 0 0.0551 0.03583 0.13781 0.17363 0.0799 0.13505 0.0827 0.20119 6e-3 0.06615-0.0496 0.08544l-0.65319 0.25356z" stroke-linejoin="bevel" stroke-opacity=".44465" stroke-width="1.7639" style="font-variant-ligatures:none;paint-order:stroke fill markers;text-orientation:upright" aria-label="*"/><path d="m209.43 12.146q0.0551 0.01929 0.0496 0.08544-3e-3 0.06614-0.0827 0.20395-0.0799 0.1378-0.13505 0.17363-0.0551 0.03307-0.0992-0.0028l-0.54846-0.43822 0.11024 0.69177q0.0138 0.05788-0.0469 0.08819-0.0606 0.03032-0.22048 0.03032-0.15986 0-0.22049-0.03032-0.0606-0.03032-0.0469-0.08819l0.11024-0.69177-0.54845 0.43822q-0.0413 0.03583-0.0965 0-0.0551-0.03583-0.13781-0.17363-0.0799-0.13505-0.0827-0.20119-3e-3 -0.06615 0.0496-0.08544l0.65595-0.25356-0.65595-0.25356q-0.0524-0.01929-0.0496-0.08544 3e-3 -0.06615 0.0827-0.20395 0.0799-0.1378 0.13505-0.17363 0.0579-0.03583 0.0992 0.0028l0.54846 0.43822-0.11024-0.69178q-0.0138-0.05512 0.0469-0.08544 0.0606-0.03307 0.22048-0.03307 0.15985 0 0.22049 0.03307 0.0606 0.03032 0.0469 0.08544l-0.11025 0.69178 0.54846-0.43822q0.0441-0.03858 0.0965 0 0.0551 0.03583 0.13781 0.17363 0.0799 0.13505 0.0827 0.20119 6e-3 0.06615-0.0496 0.08544l-0.65319 0.25356z" stroke-linejoin="bevel" stroke-opacity=".44465" stroke-width="1.7639" style="font-variant-ligatures:none;paint-order:stroke fill markers;text-orientation:upright" aria-label="*"/></svg>
