<?xml version="1.0" encoding="UTF-8"?>
<svg id="_图层_1" data-name="图层 1" xmlns="http://www.w3.org/2000/svg" viewBox="0 0 1000 800">
  <defs>
    <style>
      .cls-1 {
        fill: #999;
      }

      .cls-2 {
        fill: #b3b3b3;
      }

      .cls-3 {
        fill: #666;
      }

      .cls-4 {
        fill: #f2f2f2;
      }
    </style>
  </defs>
  <g>
    <path d="M456.8,178.02v4.5h-4.5v40.5h-4.5v4.5h-4.5v-4.5h-9v4.5h-4.5v4.5h-4.5v-58.5h4.5v4.5h18v-4.5h4.5v4.5h4.5Zm-22.5,4.5v13.5h9v-13.5h-9Zm0,36h9v-18h-9v18Zm45-49.5v4.5h4.5v13.5h9v4.5h-9v45h-4.5v4.5h-4.5v-4.5h-9v-4.5h9v-40.5h-18v-4.5h18v-18h4.5Zm-18,49.5v-13.5h-4.5v-9h4.5v4.5h4.5v4.5h4.5v9h-4.5v4.5h-4.5Z"/>
    <path d="M547.7,178.02v4.5h22.5v-4.5h4.5v4.5h4.5v4.5h-4.5v4.5h-4.5v4.5h-4.5v-9h-13.5v4.5h4.5v4.5h4.5v4.5h9v4.5h-4.5v4.5h-4.5v-4.5h-4.5v-4.5h-4.5v-4.5h-4.5v-9h-9v4.5h4.5v4.5h-4.5v4.5h-4.5v4.5h-9v-4.5h4.5v-4.5h4.5v-9h-9v4.5h-4.5v4.5h-4.5v-4.5h-4.5v-4.5h4.5v-4.5h4.5v-4.5h4.5v4.5h18v-4.5h-4.5v-4.5h-4.5v-4.5h9v4.5h9v4.5h-4.5Zm0,58.5h18v-4.5h4.5v4.5h4.5v4.5h-58.5v-4.5h22.5v-22.5h-13.5v-4.5h27v-4.5h4.5v4.5h4.5v4.5h-13.5v22.5Zm-22.5-27h-4.5v-4.5h4.5v4.5Z"/>
  </g>
  <g>
    <g>
      <g>
        <path class="cls-3" d="M118.96,324.41v4.5h22.5v-4.5h4.5v4.5h4.5v4.5h-4.5v4.5h-4.5v4.5h-4.5v-9h-13.5v4.5h4.5v4.5h4.5v4.5h9v4.5h-4.5v4.5h-4.5v-4.5h-4.5v-4.5h-4.5v-4.5h-4.5v-9h-9v4.5h4.5v4.5h-4.5v4.5h-4.5v4.5h-9v-4.5h4.5v-4.5h4.5v-9h-9v4.5h-4.5v4.5h-4.5v-4.5h-4.5v-4.5h4.5v-4.5h4.5v-4.5h4.5v4.5h18v-4.5h-4.5v-4.5h-4.5v-4.5h9v4.5h9v4.5h-4.5Zm0,58.5h18v-4.5h4.5v4.5h4.5v4.5h-58.5v-4.5h22.5v-22.5h-13.5v-4.5h27v-4.5h4.5v4.5h4.5v4.5h-13.5v22.5Zm-22.5-27h-4.5v-4.5h4.5v4.5Z"/>
        <path class="cls-3" d="M91.96,415.31v54h-4.5v4.5h-4.5v-63h4.5v4.5h4.5Zm4.5-4.5h-4.5v-4.5h-4.5v-4.5h9v4.5h9v4.5h-4.5v4.5h-4.5v-4.5Zm22.5,49.5v-4.5h-13.5v4.5h-4.5v-40.5h4.5v4.5h18v-4.5h4.5v4.5h4.5v4.5h-4.5v27h-4.5v4.5h-4.5Zm18-49.5h-27v-4.5h31.5v-4.5h4.5v4.5h4.5v4.5h-4.5v58.5h-4.5v4.5h-4.5v-4.5h-9v-4.5h9v-54Zm-18,27v-9h-9v9h9Zm0,4.5h-9v9h9v-9Z"/>
      </g>
      <g>
        <path class="cls-3" d="M881.04,562.68v4.5h-4.5v40.5h-4.5v4.5h-4.5v-4.5h-9v4.5h-4.5v4.5h-4.5v-58.5h4.5v4.5h18v-4.5h4.5v4.5h4.5Zm-22.5,4.5v13.5h9v-13.5h-9Zm0,36h9v-18h-9v18Zm45-49.5v4.5h4.5v13.5h9v4.5h-9v45h-4.5v4.5h-4.5v-4.5h-9v-4.5h9v-40.5h-18v-4.5h18v-18h4.5Zm-18,49.5v-13.5h-4.5v-9h4.5v4.5h4.5v4.5h4.5v9h-4.5v4.5h-4.5Z"/>
        <path class="cls-3" d="M858.54,653.58v54h-4.5v4.5h-4.5v-63h4.5v4.5h4.5Zm4.5-4.5h-4.5v-4.5h-4.5v-4.5h9v4.5h9v4.5h-4.5v4.5h-4.5v-4.5Zm22.5,49.5v-4.5h-13.5v4.5h-4.5v-40.5h4.5v4.5h18v-4.5h4.5v4.5h4.5v4.5h-4.5v27h-4.5v4.5h-4.5Zm18-49.5h-27v-4.5h31.5v-4.5h4.5v4.5h4.5v4.5h-4.5v58.5h-4.5v4.5h-4.5v-4.5h-9v-4.5h9v-54Zm-18,27v-9h-9v9h9Zm0,4.5h-9v9h9v-9Z"/>
      </g>
      <g>
        <g>
          <polygon class="cls-2" points="173.42 478.74 350.05 632.88 350.05 549.26 580.53 549.26 580.53 549.26 580.53 408.23 350.05 408.23 350.05 324.61 173.42 478.74"/>
          <g>
            <path class="cls-4" d="M252.27,477.24h-3v3h3v3h-3v6h-3v-3h-3v-3h3v-3h-3v-9h3v-3h3v6h3v3Zm0-9h3v3h9v18h-6v-3h3v-3h-3v-3h3v-6h-3v3h-3v-3h-3v-6Zm0,9h3v3h-3v-3Zm0,9h3v3h-3v-3Zm3-3h3v3h-3v-3Z"/>
            <path class="cls-4" d="M278.07,489.24h-3v-12h-3v-3h3v-3h3v18Zm0-21h3v3h-3v-3Zm3,9h3v-9h3v6h3v3h-3v9h3v-3h3v6h-9v-9h-3v-3Zm9-6h3v3h-3v-3Z"/>
            <path class="cls-4" d="M300.87,474.24h9v3h-9v-3Zm0,9v-3h9v3h-9Z"/>
            <path class="cls-4" d="M332.67,477.24h6v12h-15v-6h-6v-3h9v6h9v-6h-9v-3h3v-3h3v3Zm-12-6h3v3h-3v-3Zm3-3h12v6h-3v-3h-9v-3Zm0,6h3v3h-3v-3Z"/>
            <path class="cls-4" d="M346.47,474.24h6v12h3v3h-6v-12h-3v-3Zm3-6h3v3h-3v-3Zm12,18h3v-15h-9v-3h12v21h-6v-3Zm-6-12h6v3h-6v-3Zm0,6h6v6h-6v-6Z"/>
          </g>
        </g>
        <g>
          <polygon class="cls-4" points="826.58 548.74 649.95 394.61 649.95 478.23 419.47 478.23 419.47 478.23 419.47 619.26 649.95 619.26 649.95 702.88 826.58 548.74"/>
          <g>
            <path class="cls-1" d="M625.97,556.24v-3h9v-3h-9v-3h3v-3h-3v-3h9v-3h3v3h9v3h-3v6h3v3h-3v3h-6v3h-6v-3h-6Zm9-9v-3h-3v3h3Zm6,0v-3h-3v3h3Zm0,6v-3h-3v3h3Z"/>
            <path class="cls-1" d="M660.76,559.24h-3v-12h-3v-3h3v-3h3v18Zm0-21h3v3h-3v-3Zm3,9h3v-9h3v6h3v3h-3v9h3v-3h3v6h-9v-9h-3v-3Zm9-6h3v3h-3v-3Z"/>
            <path class="cls-1" d="M683.56,544.24h9v3h-9v-3Zm0,9v-3h9v3h-9Z"/>
            <path class="cls-1" d="M700.36,553.24h3v-3h-3v-3h9v3h-3v3h3v3h-9v-3Zm3-12h6v3h-6v-3Zm12,15h3v-9h-3v9h-3v-9h-3v-3h6v-6h3v6h3v15h-6v-3Zm-6,0h3v3h-3v-3Z"/>
            <path class="cls-1" d="M729.17,544.24h6v12h3v3h-6v-12h-3v-3Zm3-6h3v3h-3v-3Zm12,18h3v-15h-9v-3h12v21h-6v-3Zm-6-12h6v3h-6v-3Zm0,6h6v6h-6v-6Z"/>
          </g>
        </g>
      </g>
    </g>
    <g>
      <path d="M459.2,513.74h3v-3h-3v-3h3v-3h3v3h3v3h-3v3h3v3h-3v9h-3v-6h-3v-6Zm18,9h-9v-6h3v3h3v-3h3v-6h-6v-6h3v3h6v18h-3v-3Zm-9-12h3v3h-3v-3Zm3,3h3v3h-3v-3Z"/>
      <path d="M497,516.74h-3v6h-3v-6h-3v-3h3v-6h-3v-3h15v3h-3v6h6v3h-6v9h-3v-9Zm-9,6h3v3h-3v-3Zm9-9v-6h-3v6h3Zm6-6h3v3h-3v-3Zm0,15h3v3h-3v-3Zm3-18h3v3h-3v-3Zm0,6h3v3h-3v-3Zm0,9h3v3h-3v-3Z"/>
      <path d="M516.8,510.74h6v12h3v3h-6v-12h-3v-3Zm3-6h3v3h-3v-3Zm12,18h3v-15h-9v-3h12v21h-6v-3Zm-6-12h6v3h-6v-3Zm0,6h6v6h-6v-6Z"/>
    </g>
  </g>
</svg>