<?xml version="1.0" ?>
<svg viewBox="-201.45831298828125 -66 960 131" stroke-linejoin="round" stroke-linecap="round" stroke-width="5" stroke="black" fill="none" xmlns="http://www.w3.org/2000/svg"><g><g><path d="M -1024 -35 h 2048 m -2048 35 h 2048 m -2048 35 h 2048 m -1024 -35 v 0" stroke="#ccc" stroke-width="1"></path><g><g><path d="M 0 -35 c 0 40 30 70 70 70"></path></g><g><path d="M 80 -35 c 40 0 40 50 0 70 h 50"></path><g><path d="M 130 35 c 15 0 3.75 22.5 -11.25 -7.5"></path></g></g><g><path d="M 147.08334350585938 -35 c 0 40 30 70 70 70"></path><path d="M 217.08334350585938 35 a -10 -10 0 0 0 10 -10 v 17"></path></g><g><path d="M 247.08334350585938 35 v -35 c 30 10 40 -15 40 -35"></path><path d="M 247.08334350585938 35 a -10 -10 0 0 1 -10 10 c 15 5 15 15 15 15"></path><path d="M 287.0833435058594 -35 c 0 -30 -50 -30 -35 -15"></path><path d="M 252.08334350585938 -21 h 20"></path></g><g><path d="M 307.0833435058594 35 c 0 -20 20 -35 40 -35 h -40 c 20 0 40 -15 40 -35"></path><path d="M 307.0833435058594 35 a -20 -10 0 1 1 -10 15"></path><path d="M 347.0833435058594 -35 h -30 c 22.5 0 30 -15 30 -15"></path><path d="M 328.5833435058594 -25 h -15 l 10 10"></path></g><g><path d="M 357.0833435058594 35 c 0 -30 20 -35 25 -30 c -15 0 -15 30 0 30 c 15 0 15 -15 15 -35 v -35"></path><path d="M 366.5833435058594 -20.5 c 0 -12 15 -12 15 0"></path></g><g><path d="M 407.0833435058594 35 v -35 c 0 20 15 35 40 35 v -70"></path><path d="M 407.0833435058594 35 v 10 h 30 c -22.5 0 -30 15 -30 15"></path><path d="M 447.0833435058594 -35 a 20 10 0 1 1 10 -15"></path><path d="M 428.5833435058594 -32.5 c -12 0 -12 15 0 15"></path></g><g><path d="M 467.0833435058594 35 c 0 -15 20 -15 40 0 v -70"></path><path d="M 467.0833435058594 35 c 0 30 50 30 35 15"></path><path d="M 507.0833435058594 -35 a 10 10 0 0 1 10 -10 c -15 -5 -15 -15 -15 -15"></path><path d="M 491.5833435058594 -12.5 l -15 15"></path></g><g><path d="M 547.0833740234375 -35 v 70"></path><g><path d="M 547.0833740234375 -35 a 10 13 0 0 1 -20 0"></path></g><g><path d="M 547.0833740234375 35 h 10"></path></g></g></g></g></g></svg>